<svg width="128" height="128" viewBox="0 0 128 128" fill="none" xmlns="http://www.w3.org/2000/svg">
<path d="M21.5 53.4079C21.5 61.1078 27.7421 67.3499 35.442 67.3499H72.5844C77.94 67.3499 82.2816 63.0083 82.2816 57.6527C82.2816 53.8654 80.1105 50.5862 76.9468 48.99C76.9659 48.6373 76.9756 48.2822 76.9756 47.9249C76.9756 37.1968 68.2787 28.5 57.5506 28.5C49.5888 28.5 42.7469 33.2899 39.7472 40.1434C38.3908 39.7034 36.9437 39.4659 35.442 39.4659C27.7421 39.4659 21.5 45.7079 21.5 53.4079Z" fill="white" stroke="black"/>
<path d="M10.7184 82.6552C10.7184 96.4401 21.8933 107.615 35.6782 107.615H103.264C112.783 107.615 120.5 99.8983 120.5 90.3793C120.5 83.5529 116.531 77.6544 110.778 74.8632C110.822 74.1405 110.845 73.412 110.845 72.6782C110.845 53.3831 95.2031 37.7414 75.908 37.7414C61.4564 37.7414 49.0553 46.5158 43.7395 59.026C41.21 58.1633 38.4982 57.6954 35.6782 57.6954C21.8933 57.6954 10.7184 68.8703 10.7184 82.6552Z" fill="white" stroke="black"/>
</svg>
