<svg width="375" height="338" viewBox="0 0 375 338" fill="none" xmlns="http://www.w3.org/2000/svg">
<path d="M0 267C1.41413 247.379 26.235 239.777 38.3945 255.241L68.4705 293.49C83.2156 312.242 110.922 314.178 128.133 297.66L149.2 277.44C169.488 257.968 199.796 253.285 225.016 265.724L228.425 267.406C246.629 276.385 267.77 277.29 286.675 269.9L290.657 268.343C304.618 262.886 319.808 261.363 334.574 263.942L375 271V338H0V267Z" fill="white"/>
<path d="M232.835 177.102C228.1 182.173 222.674 186.552 216.718 190.109C216.581 190.193 216.443 190.272 216.303 190.354L206.661 181.816C206.762 181.722 206.874 181.616 206.995 181.5C214.18 174.675 249.847 126.958 252.224 115.338C252.06 116.306 254.368 154.27 232.835 177.102Z" fill="#F0F0F0"/>
<path d="M218.579 191.756C218.396 191.8 218.211 191.841 218.025 191.878L210.791 185.473C210.932 185.423 211.097 185.365 211.286 185.3C214.39 184.2 223.634 180.881 232.834 177.101C242.719 173.037 252.557 168.446 254.672 165.505C254.218 166.188 240.238 186.911 218.579 191.756Z" fill="#F0F0F0"/>
<path d="M232.701 50.808H231.671V22.5758C231.671 20.43 231.248 18.3052 230.427 16.3228C229.606 14.3403 228.403 12.539 226.887 11.0217C225.37 9.50436 223.569 8.30075 221.588 7.47959C219.606 6.65843 217.482 6.23578 215.337 6.23578H155.546C153.401 6.23577 151.277 6.65842 149.295 7.47957C147.314 8.30073 145.513 9.50433 143.996 11.0216C142.48 12.5389 141.277 14.3403 140.456 16.3227C139.635 18.3052 139.212 20.43 139.212 22.5758V177.46C139.212 179.606 139.635 181.73 140.456 183.713C141.277 185.695 142.48 187.497 143.996 189.014C145.513 190.531 147.314 191.735 149.295 192.556C151.277 193.377 153.401 193.8 155.546 193.8H215.337C217.482 193.8 219.606 193.377 221.588 192.556C223.569 191.735 225.37 190.531 226.887 189.014C228.403 187.497 229.606 185.695 230.427 183.713C231.248 181.731 231.671 179.606 231.671 177.46V70.9042H232.701V50.808Z" fill="#3F3D56"/>
<path d="M228.194 22.6881V177.347C228.194 178.949 227.878 180.536 227.265 182.017C226.652 183.497 225.753 184.842 224.62 185.975C223.487 187.108 222.142 188.007 220.662 188.619C219.182 189.232 217.596 189.547 215.994 189.547H155.915C154.314 189.547 152.728 189.231 151.248 188.618C149.769 188.005 148.424 187.107 147.292 185.974C146.159 184.841 145.261 183.496 144.648 182.016C144.035 180.535 143.72 178.949 143.72 177.347V22.6881C143.72 21.0859 144.035 19.4994 144.648 18.0192C145.261 16.5389 146.159 15.194 147.292 14.0611C148.424 12.9282 149.769 12.0295 151.248 11.4165C152.728 10.8034 154.314 10.4879 155.915 10.488H163.206C162.848 11.3684 162.712 12.3232 162.81 13.2685C162.907 14.2138 163.235 15.1207 163.766 15.9093C164.296 16.698 165.011 17.3442 165.85 17.7913C166.688 18.2384 167.623 18.4725 168.573 18.4731H202.826C203.776 18.474 204.712 18.2409 205.551 17.7942C206.391 17.3476 207.107 16.7012 207.637 15.9121C208.168 15.123 208.496 14.2155 208.593 13.2695C208.689 12.3236 208.552 11.3683 208.193 10.488H215.994C217.596 10.4875 219.182 10.8026 220.662 11.4154C222.142 12.0283 223.487 12.9268 224.62 14.0598C225.753 15.1927 226.652 16.5378 227.265 18.0183C227.878 19.4988 228.194 21.0856 228.194 22.6881Z" fill="white"/>
<path d="M210.773 81.2233H157.965C157.041 81.2222 156.154 80.8542 155.5 80.1999C154.846 79.5456 154.478 78.6585 154.477 77.7332V75.9961C154.478 75.0708 154.846 74.1837 155.5 73.5294C156.154 72.8751 157.041 72.5071 157.965 72.506H210.773C211.698 72.5071 212.584 72.8751 213.238 73.5294C213.893 74.1837 214.26 75.0708 214.261 75.9961V77.7332C214.26 78.6585 213.893 79.5456 213.238 80.1999C212.584 80.8542 211.698 81.2222 210.773 81.2233Z" fill="#F0F0F0"/>
<path d="M210.773 96.1981H157.965C157.041 96.197 156.154 95.829 155.5 95.1747C154.846 94.5204 154.478 93.6333 154.477 92.708V90.9708C154.478 90.0455 154.846 89.1584 155.5 88.5042C156.154 87.8499 157.041 87.4818 157.965 87.4808H210.773C211.698 87.4818 212.584 87.8499 213.238 88.5042C213.893 89.1584 214.26 90.0455 214.261 90.9708V92.708C214.26 93.6333 213.893 94.5204 213.238 95.1747C212.584 95.829 211.698 96.197 210.773 96.1981Z" fill="#F0F0F0"/>
<path d="M213.414 77.8742H160.607C159.636 77.8731 158.705 77.4866 158.018 76.7996C157.331 76.1126 156.945 75.1812 156.944 74.2096V72.4724C156.945 71.5009 157.331 70.5694 158.018 69.8824C158.705 69.1954 159.636 68.809 160.607 68.8079H213.414C214.386 68.809 215.317 69.1954 216.003 69.8824C216.69 70.5694 217.076 71.5009 217.078 72.4724V74.2096C217.076 75.1812 216.69 76.1126 216.003 76.7996C215.317 77.4866 214.386 77.8731 213.414 77.8742ZM160.607 69.5059C159.821 69.5068 159.067 69.8196 158.511 70.3758C157.955 70.9319 157.643 71.6859 157.642 72.4724V74.2096C157.643 74.9961 157.955 75.7502 158.511 76.3063C159.067 76.8625 159.821 77.1753 160.607 77.1762H213.414C214.201 77.1753 214.954 76.8625 215.51 76.3063C216.066 75.7502 216.379 74.9961 216.38 74.2096V72.4724C216.379 71.6859 216.066 70.9319 215.51 70.3758C214.954 69.8196 214.201 69.5068 213.414 69.5059H160.607Z" fill="#3F3D56"/>
<path d="M213.414 92.8489H160.607C159.636 92.8478 158.705 92.4614 158.018 91.7744C157.331 91.0874 156.945 90.1559 156.944 89.1844V87.4472C156.945 86.4756 157.331 85.5442 158.018 84.8572C158.705 84.1702 159.636 83.7838 160.607 83.7827H213.414C214.386 83.7838 215.317 84.1702 216.003 84.8572C216.69 85.5442 217.076 86.4756 217.078 87.4472V89.1844C217.076 90.1559 216.69 91.0874 216.003 91.7744C215.317 92.4614 214.386 92.8478 213.414 92.8489ZM160.607 84.4807C159.821 84.4815 159.067 84.7944 158.511 85.3505C157.955 85.9067 157.643 86.6607 157.642 87.4472V89.1844C157.643 89.9709 157.955 90.7249 158.511 91.2811C159.067 91.8372 159.821 92.1501 160.607 92.1509H213.414C214.201 92.1501 214.954 91.8372 215.51 91.2811C216.066 90.7249 216.379 89.9709 216.38 89.1844V87.4472C216.379 86.6607 216.066 85.9067 215.51 85.3505C214.954 84.7944 214.201 84.4815 213.414 84.4807H160.607Z" fill="#3F3D56"/>
<path d="M210.773 110.849H157.965C157.041 110.848 156.154 110.48 155.5 109.826C154.846 109.171 154.478 108.284 154.477 107.359V105.622C154.478 104.696 154.846 103.809 155.5 103.155C156.154 102.501 157.041 102.133 157.965 102.132H210.773C211.698 102.133 212.584 102.501 213.238 103.155C213.893 103.809 214.26 104.696 214.261 105.622V107.359C214.26 108.284 213.893 109.171 213.238 109.826C212.584 110.48 211.698 110.848 210.773 110.849Z" fill="#F0F0F0"/>
<path d="M210.773 125.824H157.965C157.041 125.823 156.154 125.455 155.5 124.8C154.846 124.146 154.478 123.259 154.477 122.334V120.596C154.478 119.671 154.846 118.784 155.5 118.13C156.154 117.475 157.041 117.107 157.965 117.106H210.773C211.698 117.107 212.584 117.475 213.238 118.13C213.893 118.784 214.26 119.671 214.261 120.596V122.334C214.26 123.259 213.893 124.146 213.238 124.8C212.584 125.455 211.698 125.823 210.773 125.824Z" fill="#F0F0F0"/>
<path d="M213.414 107.5H160.607C159.636 107.499 158.705 107.112 158.018 106.425C157.331 105.738 156.945 104.807 156.944 103.835V102.098C156.945 101.126 157.331 100.195 158.018 99.508C158.705 98.8211 159.636 98.4346 160.607 98.4335H213.414C214.386 98.4346 215.317 98.8211 216.003 99.508C216.69 100.195 217.076 101.126 217.078 102.098V103.835C217.076 104.807 216.69 105.738 216.003 106.425C215.317 107.112 214.386 107.499 213.414 107.5ZM160.607 99.1315C159.821 99.1324 159.067 99.4452 158.511 100.001C157.955 100.558 157.643 101.312 157.642 102.098V103.835C157.643 104.622 157.955 105.376 158.511 105.932C159.067 106.488 159.821 106.801 160.607 106.802H213.414C214.201 106.801 214.954 106.488 215.51 105.932C216.066 105.376 216.379 104.622 216.38 103.835V102.098C216.379 101.312 216.066 100.558 215.51 100.001C214.954 99.4452 214.201 99.1324 213.414 99.1315H160.607Z" fill="#3F3D56"/>
<path d="M213.414 122.475H160.607C159.636 122.473 158.705 122.087 158.018 121.4C157.331 120.713 156.945 119.782 156.944 118.81V117.073C156.945 116.101 157.331 115.17 158.018 114.483C158.705 113.796 159.636 113.409 160.607 113.408H213.414C214.386 113.409 215.317 113.796 216.003 114.483C216.69 115.17 217.076 116.101 217.078 117.073V118.81C217.076 119.782 216.69 120.713 216.003 121.4C215.317 122.087 214.386 122.473 213.414 122.475ZM160.607 114.106C159.821 114.107 159.067 114.42 158.511 114.976C157.955 115.532 157.643 116.286 157.642 117.073V118.81C157.643 119.597 157.955 120.351 158.511 120.907C159.067 121.463 159.821 121.776 160.607 121.777H213.414C214.201 121.776 214.954 121.463 215.51 120.907C216.066 120.351 216.379 119.597 216.38 118.81V117.073C216.379 116.286 216.066 115.532 215.51 114.976C214.954 114.42 214.201 114.107 213.414 114.106H160.607Z" fill="#3F3D56"/>
<path d="M228.194 22.6881V56.3285C222.85 57.7348 217.256 57.8961 211.841 56.8001C206.425 55.7041 201.333 53.3799 196.957 50.0064C192.58 46.633 189.035 42.3 186.595 37.3411C184.155 32.3821 182.885 26.9292 182.882 21.402C182.882 20.4155 182.921 19.4392 183.001 18.4731H202.826C203.776 18.474 204.712 18.2409 205.551 17.7942C206.391 17.3476 207.107 16.7012 207.637 15.9121C208.168 15.123 208.496 14.2155 208.593 13.2695C208.689 12.3236 208.552 11.3683 208.193 10.488H215.994C217.596 10.4875 219.182 10.8026 220.662 11.4154C222.142 12.0283 223.487 12.9268 224.62 14.0598C225.753 15.1927 226.652 16.5378 227.265 18.0183C227.878 19.4988 228.194 21.0856 228.194 22.6881Z" fill="#F0F0F0"/>
<path d="M174.076 187.446C174.076 188.155 174.05 188.855 173.993 189.547H155.915C154.314 189.547 152.728 189.231 151.248 188.618C149.769 188.005 148.424 187.107 147.292 185.974C146.159 184.841 145.261 183.496 144.648 182.016C144.035 180.535 143.72 178.949 143.72 177.347V160.804C147.509 160.311 151.36 160.632 155.016 161.744C158.671 162.857 162.048 164.737 164.92 167.258C167.793 169.779 170.095 172.883 171.674 176.364C173.253 179.846 174.072 183.623 174.076 187.446H174.076Z" fill="#F9ADF6"/>
<path d="M124.139 99.7881L112.434 90.833L103.483 102.542L115.187 111.497L124.139 99.7881Z" fill="#F0F0F0"/>
<path d="M57.9914 19.847C59.8407 19.8455 61.6646 20.2773 63.3171 21.1077C64.9696 21.9381 66.4048 23.1441 67.5077 24.6291L74.342 15.6898L53.8358 0L38.1522 20.5141L46.9902 27.2764C47.8747 25.082 49.3947 23.2022 51.3549 21.8784C53.3152 20.5545 55.6263 19.8471 57.9914 19.847Z" fill="#F0F0F0"/>
<path d="M254.651 194H8.34887C8.25634 194 8.16761 193.963 8.10218 193.898C8.03676 193.832 8 193.744 8 193.651C8 193.558 8.03676 193.47 8.10218 193.404C8.16761 193.339 8.25634 193.302 8.34887 193.302H254.651C254.744 193.302 254.832 193.339 254.898 193.404C254.963 193.47 255 193.558 255 193.651C255 193.744 254.963 193.832 254.898 193.898C254.832 193.963 254.744 194 254.651 194Z" fill="#3F3D56"/>
<path d="M197.396 140.474H172.326C171.401 140.473 170.514 140.105 169.86 139.451C169.206 138.797 168.838 137.91 168.837 136.984V135.247C168.838 134.322 169.206 133.435 169.86 132.78C170.514 132.126 171.401 131.758 172.326 131.757H197.396C198.321 131.758 199.208 132.126 199.862 132.78C200.516 133.435 200.884 134.322 200.885 135.247V136.984C200.884 137.91 200.516 138.797 199.862 139.451C199.208 140.105 198.321 140.473 197.396 140.474Z" fill="#F9ADF6"/>
<path d="M200.038 137.125H174.967C173.996 137.124 173.065 136.738 172.378 136.051C171.692 135.364 171.305 134.432 171.304 133.461V131.724C171.305 130.752 171.692 129.821 172.378 129.134C173.065 128.447 173.996 128.06 174.967 128.059H200.038C201.009 128.06 201.94 128.447 202.627 129.134C203.314 129.821 203.7 130.752 203.701 131.724V133.461C203.7 134.432 203.314 135.364 202.627 136.051C201.94 136.738 201.009 137.124 200.038 137.125ZM174.967 128.757C174.181 128.758 173.428 129.071 172.872 129.627C172.316 130.183 172.003 130.937 172.002 131.724V133.461C172.003 134.247 172.316 135.001 172.872 135.558C173.428 136.114 174.181 136.426 174.967 136.427H200.038C200.824 136.426 201.578 136.114 202.134 135.558C202.69 135.001 203.003 134.247 203.003 133.461V131.724C203.003 130.937 202.69 130.183 202.134 129.627C201.578 129.071 200.824 128.758 200.038 128.757H174.967Z" fill="#3F3D56"/>
<path d="M95.8546 95.0655C95.3402 95.3564 94.7715 95.5252 94.1884 95.5598C93.6053 95.5945 93.0221 95.4942 92.4798 95.266C91.9375 95.0379 91.4494 94.6874 91.0498 94.2394C90.6502 93.7913 90.3489 93.2564 90.167 92.6726L75.9729 92.4144L80.14 86.0099L92.9801 87.2369C93.9326 86.9804 94.9415 87.1005 95.8156 87.5744C96.6896 88.0482 97.3681 88.8429 97.7224 89.8079C98.0767 90.7729 98.0823 91.8411 97.7381 92.8101C97.3938 93.7791 96.7237 94.5816 95.8546 95.0655H95.8546Z" fill="#FFB7B7"/>
<path d="M86.8736 94.6108C87.0822 94.6108 87.2886 94.5669 87.4804 94.4818C87.6723 94.3967 87.8455 94.2721 87.9897 94.1156C88.134 93.959 88.2462 93.7737 88.3196 93.5709C88.3931 93.3681 88.4262 93.1519 88.4171 92.9354L88.1452 86.5239C88.1304 86.1421 87.9844 85.7784 87.7336 85.4989C87.4828 85.2195 87.1438 85.0426 86.7782 85.0006L71.186 83.1429L71.7086 93.827L86.7973 94.6085C86.8227 94.6101 86.8482 94.6108 86.8736 94.6108Z" fill="#F9ADF6"/>
<path d="M67.3566 181.115L71.9061 182.532L79.8023 166.466L73.0877 164.374L67.3566 181.115Z" fill="#FFB7B7"/>
<path d="M65.4418 185.464L79.4607 190.177L79.5186 189.995C79.7526 189.257 79.8433 188.479 79.7853 187.706C79.7273 186.932 79.5219 186.178 79.1807 185.486C78.8395 184.794 78.3693 184.178 77.7968 183.673C77.2244 183.168 76.561 182.785 75.8444 182.544L75.8441 182.544L67.2819 179.665L65.4418 185.464Z" fill="#2F2E41"/>
<path d="M53.9543 188.266L59.1438 188.266L61.6124 170.108L53.9534 170.109L53.9543 188.266Z" fill="#FFB7B7"/>
<path d="M52.9964 193.044L68.314 193.044V192.863C68.314 192.134 68.1598 191.412 67.8601 190.738C67.5605 190.065 67.1214 189.452 66.5677 188.937C66.0141 188.421 65.3568 188.012 64.6335 187.733C63.9101 187.454 63.1349 187.31 62.3519 187.31H62.3515L52.9961 187.311L52.9964 193.044Z" fill="#2F2E41"/>
<path d="M61.7492 184.443C62.1376 184.443 62.5123 184.299 62.8026 184.04C63.093 183.78 63.2789 183.423 63.3253 183.034L69.4493 131.493L78.4134 145.98L67.8956 173.039C67.7525 173.413 67.7533 173.828 67.8977 174.201C68.0422 174.575 68.3199 174.881 68.6765 175.059L77.5988 179.454C77.8025 179.555 78.0251 179.61 78.2517 179.616C78.4783 179.623 78.7037 179.581 78.9127 179.492C79.1217 179.404 79.3094 179.271 79.4633 179.104C79.6172 178.936 79.7337 178.737 79.8049 178.52L89.6928 148.445C90.4377 146.182 90.535 143.753 89.9736 141.437L83.5802 115.023L83.5052 114.982L69.0935 107.034L69.011 107.065L52.0387 113.301L53.815 147.163L52.5244 182.309C52.5068 182.726 52.6531 183.134 52.9318 183.444C53.2105 183.754 53.5991 183.941 54.0136 183.964L61.6498 184.44C61.6831 184.442 61.7163 184.443 61.7492 184.443Z" fill="#2F2E41"/>
<path d="M71.2274 125.192C73.7839 125.192 75.9377 124.465 77.2853 122.616L77.3288 122.556L76.4568 113.417L84.2121 117.717C84.3729 117.806 84.5573 117.844 84.7402 117.825C84.9231 117.806 85.0959 117.732 85.2351 117.612C85.3743 117.492 85.4733 117.332 85.5187 117.154C85.5641 116.976 85.5537 116.788 85.4889 116.616L75.817 90.9611L69.4308 70.0623C69.1141 68.3897 68.2963 66.8525 67.0855 65.6545C65.8748 64.4564 64.3282 63.6539 62.6507 63.3534C56.9616 62.3096 53.5733 64.227 49.6607 68.4817C48.7144 69.517 48.0175 70.7545 47.6231 72.0998C47.2288 73.4451 47.1473 74.8626 47.3851 76.2442L51.0865 97.3744L49.9989 116.32C49.9157 116.646 49.9381 116.991 50.0628 117.304C50.1874 117.617 50.4081 117.883 50.6931 118.063C53.7182 119.987 62.9942 125.191 71.2274 125.192Z" fill="#F9ADF6"/>
<path d="M57.7829 60.2069C52.4955 60.2069 48.2093 55.9282 48.2093 50.6503C48.2093 45.3723 52.4955 41.0936 57.7829 41.0936C63.0703 41.0936 67.3566 45.3723 67.3566 50.6503C67.3566 55.9282 63.0703 60.2069 57.7829 60.2069Z" fill="#FFB7B7"/>
<path d="M56.0374 119.081C55.5194 118.837 55.0598 118.479 54.691 118.032C54.3221 117.586 54.053 117.061 53.9025 116.496C53.752 115.931 53.7239 115.339 53.82 114.762C53.9162 114.184 54.1343 113.636 54.4591 113.154L46.2945 101.651L53.4841 101.301L60.1351 112.278C60.8855 112.892 61.3906 113.768 61.5546 114.74C61.7187 115.712 61.5303 116.712 61.0252 117.55C60.5202 118.389 59.7334 119.008 58.8141 119.29C57.8948 119.572 56.9069 119.497 56.0374 119.081Z" fill="#FFB7B7"/>
<path d="M51.1086 112.752C51.5163 112.81 51.9309 112.712 52.2688 112.479L57.8001 108.657C58.1327 108.429 58.3671 108.086 58.4573 107.696C58.5475 107.305 58.4869 106.895 58.2875 106.546L48.4402 89.1869L58.3443 77.3747C58.8644 76.7544 59.2485 76.0336 59.4721 75.2582C59.6957 74.4828 59.7539 73.6698 59.6431 72.8709C59.5322 72.072 59.2547 71.3046 58.8282 70.6178C58.4017 69.9309 57.8356 69.3396 57.1659 68.8813C56.4961 68.4231 55.7374 68.108 54.9381 67.9562C54.1387 67.8043 53.3162 67.819 52.5229 67.9993C51.7296 68.1796 50.9829 68.5215 50.3302 69.0034C49.6776 69.4852 49.1333 70.0964 48.7321 70.798L37.7963 89.9222C37.7188 90.0584 37.6782 90.212 37.6783 90.3683C37.6784 90.5246 37.7192 90.6782 37.7968 90.8143L49.9247 111.953C50.0367 112.148 50.1883 112.318 50.37 112.451C50.5517 112.585 50.7595 112.679 50.9801 112.729C51.0227 112.739 51.0656 112.746 51.1086 112.752Z" fill="#F9ADF6"/>
<path d="M62.2479 50.0296C63.1843 49.309 64.4806 49.4214 65.5902 49.0437C66.2508 48.8189 66.8425 48.4189 67.3058 47.8839C67.7692 47.3489 68.088 46.6978 68.2302 45.9957C68.3724 45.2937 68.3331 44.5654 68.1161 43.884C67.8992 43.2025 67.5122 42.5919 66.9941 42.1132C65.7958 41.0062 64.0908 40.755 62.4938 40.5525C60.3059 40.275 58.0967 39.9971 55.9028 40.2177C53.7088 40.4384 51.5003 41.2023 49.8966 42.7616C48.1285 44.4807 47.2576 47.0399 47.2519 49.5455C47.3135 52.0628 47.9838 54.5245 49.202 56.7071C49.5785 57.5364 50.1462 58.2582 50.8554 58.8095C51.5934 59.3117 52.6334 59.4431 53.3442 58.9008C53.9585 58.432 54.1834 57.6109 54.4609 56.8768C54.7384 56.1427 55.212 55.3607 55.9683 55.2475C56.9424 55.1016 57.6855 56.1226 58.6149 56.4567C59.9148 56.924 61.3587 55.8905 61.889 54.5808C62.4192 53.2711 62.2796 51.7893 62.1308 50.3784" fill="#2F2E41"/>
<path d="M285.376 74.9844C284.648 68.9375 280.071 65.4602 274.011 65.4602C267.095 65.4602 261.815 70.3438 261.815 78.9091C261.815 87.4489 267.006 92.358 274.011 92.358C280.723 92.358 284.776 87.8963 285.376 83.0767L279.777 83.0511C279.253 85.8509 277.054 87.4616 274.101 87.4616C270.125 87.4616 267.428 84.5085 267.428 78.9091C267.428 73.4631 270.087 70.3565 274.139 70.3565C277.169 70.3565 279.355 72.108 279.777 74.9844H285.376ZM289.244 92H294.69V80.8906C294.69 78.4744 296.454 76.8125 298.857 76.8125C299.612 76.8125 300.647 76.9403 301.158 77.1065V72.2741C300.673 72.1591 299.995 72.0824 299.445 72.0824C297.246 72.0824 295.444 73.3608 294.728 75.7898H294.523V72.3636H289.244V92ZM303.974 92H309.42V72.3636H303.974V92ZM306.71 69.8324C308.333 69.8324 309.663 68.5923 309.663 67.071C309.663 65.5625 308.333 64.3224 306.71 64.3224C305.099 64.3224 303.77 65.5625 303.77 67.071C303.77 68.5923 305.099 69.8324 306.71 69.8324ZM319.382 92.3707C322.284 92.3707 324.163 91.1051 325.122 89.277H325.276V92H330.44V78.7557C330.44 74.0767 326.477 72.108 322.105 72.108C317.401 72.108 314.307 74.358 313.553 77.9375L318.589 78.3466C318.96 77.0426 320.124 76.0838 322.08 76.0838C323.933 76.0838 324.994 77.017 324.994 78.6278V78.7045C324.994 79.9702 323.652 80.1364 320.239 80.4688C316.352 80.8267 312.862 82.1307 312.862 86.5156C312.862 90.402 315.636 92.3707 319.382 92.3707ZM320.942 88.6122C319.267 88.6122 318.065 87.8324 318.065 86.3366C318.065 84.8026 319.331 84.0483 321.249 83.7798C322.438 83.6136 324.381 83.3324 325.033 82.8977V84.9815C325.033 87.0398 323.332 88.6122 320.942 88.6122ZM334.665 92H340.112V80.8906C340.112 78.4744 341.876 76.8125 344.279 76.8125C345.033 76.8125 346.069 76.9403 346.58 77.1065V72.2741C346.094 72.1591 345.417 72.0824 344.867 72.0824C342.668 72.0824 340.866 73.3608 340.15 75.7898H339.945V72.3636H334.665V92ZM285.376 118.984C284.648 112.938 280.071 109.46 274.011 109.46C267.095 109.46 261.815 114.344 261.815 122.909C261.815 131.449 267.006 136.358 274.011 136.358C280.723 136.358 284.776 131.896 285.376 127.077L279.777 127.051C279.253 129.851 277.054 131.462 274.101 131.462C270.125 131.462 267.428 128.509 267.428 122.909C267.428 117.463 270.087 114.357 274.139 114.357C277.169 114.357 279.355 116.108 279.777 118.984H285.376ZM298.116 136.384C304.073 136.384 307.781 132.305 307.781 126.259C307.781 120.173 304.073 116.108 298.116 116.108C292.158 116.108 288.451 120.173 288.451 126.259C288.451 132.305 292.158 136.384 298.116 136.384ZM298.141 132.165C295.393 132.165 293.987 129.646 293.987 126.22C293.987 122.794 295.393 120.263 298.141 120.263C300.839 120.263 302.245 122.794 302.245 126.22C302.245 129.646 300.839 132.165 298.141 132.165ZM316.768 124.648C316.781 122.116 318.289 120.634 320.488 120.634C322.674 120.634 323.991 122.065 323.978 124.469V136H329.424V123.497C329.424 118.92 326.739 116.108 322.648 116.108C319.734 116.108 317.624 117.54 316.742 119.828H316.512V116.364H311.322V136H316.768V124.648ZM344.161 116.364H340.466V111.659H335.02V116.364H332.336V120.455H335.02V130.682C334.995 134.53 337.615 136.435 341.566 136.268C342.972 136.217 343.969 135.936 344.519 135.757L343.662 131.705C343.394 131.756 342.819 131.884 342.307 131.884C341.221 131.884 340.466 131.474 340.466 129.966V120.455H344.161V116.364ZM353.308 136.371C356.21 136.371 358.089 135.105 359.048 133.277H359.201V136H364.366V122.756C364.366 118.077 360.403 116.108 356.031 116.108C351.326 116.108 348.233 118.358 347.478 121.938L352.515 122.347C352.886 121.043 354.049 120.084 356.005 120.084C357.859 120.084 358.92 121.017 358.92 122.628V122.705C358.92 123.97 357.578 124.136 354.164 124.469C350.278 124.827 346.788 126.131 346.788 130.516C346.788 134.402 349.562 136.371 353.308 136.371ZM354.868 132.612C353.193 132.612 351.991 131.832 351.991 130.337C351.991 128.803 353.257 128.048 355.174 127.78C356.363 127.614 358.306 127.332 358.958 126.898V128.982C358.958 131.04 357.258 132.612 354.868 132.612Z" fill="white"/>
</svg>
