<svg width="359" height="194" viewBox="0 0 359 194" fill="none" xmlns="http://www.w3.org/2000/svg">
<path d="M224.835 177.102C220.1 182.173 214.674 186.552 208.718 190.109C208.581 190.193 208.443 190.272 208.303 190.354L198.661 181.816C198.762 181.722 198.874 181.616 198.995 181.5C206.18 174.675 241.847 126.958 244.224 115.338C244.06 116.306 246.368 154.27 224.835 177.102Z" fill="#F0F0F0"/>
<path d="M210.579 191.756C210.396 191.8 210.211 191.841 210.025 191.878L202.791 185.473C202.932 185.423 203.097 185.365 203.286 185.3C206.39 184.2 215.634 180.881 224.834 177.101C234.719 173.037 244.557 168.446 246.672 165.505C246.218 166.188 232.238 186.911 210.579 191.756Z" fill="#F0F0F0"/>
<path d="M224.701 50.8081H223.671V22.5759C223.671 20.43 223.248 18.3053 222.427 16.3228C221.606 14.3403 220.403 12.539 218.887 11.0217C217.37 9.50439 215.569 8.30079 213.588 7.47962C211.606 6.65846 209.482 6.23581 207.337 6.23581H147.546C145.401 6.2358 143.277 6.65845 141.295 7.47961C139.314 8.30076 137.513 9.50436 135.996 11.0217C134.48 12.539 133.277 14.3403 132.456 16.3227C131.635 18.3052 131.212 20.43 131.212 22.5758V177.46C131.212 179.606 131.635 181.731 132.456 183.713C133.277 185.695 134.48 187.497 135.996 189.014C137.513 190.531 139.314 191.735 141.295 192.556C143.277 193.377 145.401 193.8 147.546 193.8H207.337C209.482 193.8 211.606 193.377 213.588 192.556C215.569 191.735 217.37 190.531 218.887 189.014C220.403 187.497 221.606 185.695 222.427 183.713C223.248 181.731 223.671 179.606 223.671 177.46V70.9042H224.701V50.8081Z" fill="#3F3D56"/>
<path d="M220.194 22.6881V177.347C220.194 178.949 219.878 180.536 219.265 182.017C218.652 183.497 217.753 184.842 216.62 185.975C215.487 187.108 214.142 188.007 212.662 188.619C211.182 189.232 209.596 189.547 207.994 189.547H147.915C146.314 189.547 144.728 189.231 143.248 188.618C141.769 188.005 140.424 187.107 139.292 185.974C138.159 184.841 137.261 183.496 136.648 182.016C136.035 180.535 135.72 178.949 135.72 177.347V22.6881C135.72 21.0859 136.035 19.4994 136.648 18.0192C137.261 16.5389 138.159 15.194 139.292 14.0611C140.424 12.9282 141.769 12.0295 143.248 11.4165C144.728 10.8034 146.314 10.4879 147.915 10.488H155.206C154.848 11.3684 154.712 12.3232 154.81 13.2685C154.907 14.2138 155.235 15.1207 155.766 15.9093C156.296 16.698 157.011 17.3442 157.85 17.7913C158.688 18.2384 159.623 18.4725 160.573 18.4731H194.826C195.776 18.474 196.712 18.2409 197.551 17.7942C198.391 17.3476 199.107 16.7012 199.637 15.9121C200.168 15.123 200.496 14.2155 200.593 13.2695C200.689 12.3236 200.552 11.3683 200.193 10.488H207.994C209.596 10.4875 211.182 10.8026 212.662 11.4154C214.142 12.0283 215.487 12.9268 216.62 14.0598C217.753 15.1927 218.652 16.5378 219.265 18.0183C219.878 19.4988 220.194 21.0856 220.194 22.6881Z" fill="white"/>
<path d="M202.773 81.2233H149.965C149.041 81.2222 148.154 80.8542 147.5 80.1999C146.846 79.5456 146.478 78.6585 146.477 77.7332V75.9961C146.478 75.0708 146.846 74.1837 147.5 73.5294C148.154 72.8751 149.041 72.5071 149.965 72.506H202.773C203.698 72.5071 204.584 72.8751 205.238 73.5294C205.893 74.1837 206.26 75.0708 206.261 75.9961V77.7332C206.26 78.6585 205.893 79.5456 205.238 80.1999C204.584 80.8542 203.698 81.2222 202.773 81.2233Z" fill="#F0F0F0"/>
<path d="M202.773 96.1981H149.965C149.041 96.197 148.154 95.829 147.5 95.1747C146.846 94.5204 146.478 93.6333 146.477 92.708V90.9708C146.478 90.0455 146.846 89.1584 147.5 88.5042C148.154 87.8499 149.041 87.4818 149.965 87.4808H202.773C203.698 87.4818 204.584 87.8499 205.238 88.5042C205.893 89.1584 206.26 90.0455 206.261 90.9708V92.708C206.26 93.6333 205.893 94.5204 205.238 95.1747C204.584 95.829 203.698 96.197 202.773 96.1981Z" fill="#F0F0F0"/>
<path d="M205.414 77.8742H152.607C151.636 77.8731 150.705 77.4866 150.018 76.7996C149.331 76.1126 148.945 75.1812 148.944 74.2096V72.4724C148.945 71.5009 149.331 70.5694 150.018 69.8824C150.705 69.1954 151.636 68.809 152.607 68.8079H205.414C206.386 68.809 207.317 69.1954 208.003 69.8824C208.69 70.5694 209.076 71.5009 209.078 72.4724V74.2096C209.076 75.1812 208.69 76.1126 208.003 76.7996C207.317 77.4866 206.386 77.8731 205.414 77.8742ZM152.607 69.5059C151.821 69.5068 151.067 69.8196 150.511 70.3758C149.955 70.9319 149.643 71.6859 149.642 72.4724V74.2096C149.643 74.9961 149.955 75.7502 150.511 76.3063C151.067 76.8625 151.821 77.1753 152.607 77.1762H205.414C206.201 77.1753 206.954 76.8625 207.51 76.3063C208.066 75.7502 208.379 74.9961 208.38 74.2096V72.4724C208.379 71.6859 208.066 70.9319 207.51 70.3758C206.954 69.8196 206.201 69.5068 205.414 69.5059H152.607Z" fill="#3F3D56"/>
<path d="M205.414 92.8489H152.607C151.636 92.8478 150.705 92.4614 150.018 91.7744C149.331 91.0874 148.945 90.1559 148.944 89.1844V87.4472C148.945 86.4756 149.331 85.5442 150.018 84.8572C150.705 84.1702 151.636 83.7838 152.607 83.7827H205.414C206.386 83.7838 207.317 84.1702 208.003 84.8572C208.69 85.5442 209.076 86.4756 209.078 87.4472V89.1844C209.076 90.1559 208.69 91.0874 208.003 91.7744C207.317 92.4614 206.386 92.8478 205.414 92.8489ZM152.607 84.4807C151.821 84.4815 151.067 84.7944 150.511 85.3505C149.955 85.9067 149.643 86.6607 149.642 87.4472V89.1844C149.643 89.9709 149.955 90.7249 150.511 91.2811C151.067 91.8372 151.821 92.1501 152.607 92.1509H205.414C206.201 92.1501 206.954 91.8372 207.51 91.2811C208.066 90.7249 208.379 89.9709 208.38 89.1844V87.4472C208.379 86.6607 208.066 85.9067 207.51 85.3505C206.954 84.7944 206.201 84.4815 205.414 84.4807H152.607Z" fill="#3F3D56"/>
<path d="M202.773 110.849H149.965C149.041 110.848 148.154 110.48 147.5 109.826C146.846 109.171 146.478 108.284 146.477 107.359V105.622C146.478 104.696 146.846 103.809 147.5 103.155C148.154 102.501 149.041 102.133 149.965 102.132H202.773C203.698 102.133 204.584 102.501 205.238 103.155C205.893 103.809 206.26 104.696 206.261 105.622V107.359C206.26 108.284 205.893 109.171 205.238 109.826C204.584 110.48 203.698 110.848 202.773 110.849Z" fill="#F0F0F0"/>
<path d="M202.773 125.824H149.965C149.041 125.823 148.154 125.455 147.5 124.8C146.846 124.146 146.478 123.259 146.477 122.334V120.596C146.478 119.671 146.846 118.784 147.5 118.13C148.154 117.475 149.041 117.107 149.965 117.106H202.773C203.698 117.107 204.584 117.475 205.238 118.13C205.893 118.784 206.26 119.671 206.261 120.596V122.334C206.26 123.259 205.893 124.146 205.238 124.8C204.584 125.455 203.698 125.823 202.773 125.824Z" fill="#F0F0F0"/>
<path d="M205.414 107.5H152.607C151.636 107.499 150.705 107.112 150.018 106.425C149.331 105.738 148.945 104.807 148.944 103.835V102.098C148.945 101.126 149.331 100.195 150.018 99.508C150.705 98.8211 151.636 98.4346 152.607 98.4335H205.414C206.386 98.4346 207.317 98.8211 208.003 99.508C208.69 100.195 209.076 101.126 209.078 102.098V103.835C209.076 104.807 208.69 105.738 208.003 106.425C207.317 107.112 206.386 107.499 205.414 107.5ZM152.607 99.1315C151.821 99.1324 151.067 99.4452 150.511 100.001C149.955 100.558 149.643 101.312 149.642 102.098V103.835C149.643 104.622 149.955 105.376 150.511 105.932C151.067 106.488 151.821 106.801 152.607 106.802H205.414C206.201 106.801 206.954 106.488 207.51 105.932C208.066 105.376 208.379 104.622 208.38 103.835V102.098C208.379 101.312 208.066 100.558 207.51 100.001C206.954 99.4452 206.201 99.1324 205.414 99.1315H152.607Z" fill="#3F3D56"/>
<path d="M205.414 122.475H152.607C151.636 122.473 150.705 122.087 150.018 121.4C149.331 120.713 148.945 119.782 148.944 118.81V117.073C148.945 116.101 149.331 115.17 150.018 114.483C150.705 113.796 151.636 113.409 152.607 113.408H205.414C206.386 113.409 207.317 113.796 208.003 114.483C208.69 115.17 209.076 116.101 209.078 117.073V118.81C209.076 119.782 208.69 120.713 208.003 121.4C207.317 122.087 206.386 122.473 205.414 122.475ZM152.607 114.106C151.821 114.107 151.067 114.42 150.511 114.976C149.955 115.532 149.643 116.286 149.642 117.073V118.81C149.643 119.597 149.955 120.351 150.511 120.907C151.067 121.463 151.821 121.776 152.607 121.777H205.414C206.201 121.776 206.954 121.463 207.51 120.907C208.066 120.351 208.379 119.597 208.38 118.81V117.073C208.379 116.286 208.066 115.532 207.51 114.976C206.954 114.42 206.201 114.107 205.414 114.106H152.607Z" fill="#3F3D56"/>
<path d="M220.194 22.6881V56.3285C214.85 57.7348 209.256 57.8961 203.841 56.8001C198.425 55.7041 193.333 53.3799 188.957 50.0064C184.58 46.633 181.035 42.3 178.595 37.3411C176.155 32.3821 174.885 26.9292 174.882 21.402C174.882 20.4155 174.921 19.4392 175.001 18.4731H194.826C195.776 18.474 196.712 18.2409 197.551 17.7942C198.391 17.3476 199.107 16.7012 199.637 15.9121C200.168 15.123 200.496 14.2155 200.593 13.2695C200.689 12.3236 200.552 11.3683 200.193 10.488H207.994C209.596 10.4875 211.182 10.8026 212.662 11.4154C214.142 12.0283 215.487 12.9268 216.62 14.0598C217.753 15.1927 218.652 16.5378 219.265 18.0183C219.878 19.4988 220.194 21.0856 220.194 22.6881Z" fill="#F0F0F0"/>
<path d="M166.076 187.446C166.076 188.155 166.05 188.855 165.993 189.547H147.915C146.314 189.547 144.728 189.231 143.248 188.618C141.769 188.005 140.424 187.107 139.292 185.974C138.159 184.841 137.261 183.496 136.648 182.016C136.035 180.535 135.72 178.949 135.72 177.347V160.804C139.509 160.311 143.36 160.632 147.016 161.744C150.671 162.857 154.048 164.737 156.92 167.258C159.793 169.779 162.095 172.883 163.674 176.364C165.253 179.846 166.072 183.623 166.076 187.446H166.076Z" fill="#F9ADF6"/>
<path d="M116.139 99.7881L104.434 90.833L95.4827 102.542L107.187 111.497L116.139 99.7881Z" fill="#F0F0F0"/>
<path d="M49.9914 19.847C51.8407 19.8455 53.6646 20.2773 55.3171 21.1077C56.9696 21.9381 58.4048 23.1441 59.5077 24.6291L66.342 15.6898L45.8358 0L30.1522 20.5141L38.9902 27.2764C39.8747 25.082 41.3947 23.2022 43.3549 21.8784C45.3152 20.5545 47.6263 19.8471 49.9914 19.847Z" fill="#F0F0F0"/>
<path d="M246.651 194H0.34887C0.256344 194 0.167607 193.963 0.102181 193.898C0.0367556 193.832 0 193.744 0 193.651C0 193.558 0.0367556 193.47 0.102181 193.404C0.167607 193.339 0.256344 193.302 0.34887 193.302H246.651C246.744 193.302 246.832 193.339 246.898 193.404C246.963 193.47 247 193.558 247 193.651C247 193.744 246.963 193.832 246.898 193.898C246.832 193.963 246.744 194 246.651 194Z" fill="#3F3D56"/>
<path d="M189.396 140.474H164.326C163.401 140.473 162.514 140.105 161.86 139.451C161.206 138.797 160.838 137.91 160.837 136.984V135.247C160.838 134.322 161.206 133.435 161.86 132.78C162.514 132.126 163.401 131.758 164.326 131.757H189.396C190.321 131.758 191.208 132.126 191.862 132.78C192.516 133.435 192.884 134.322 192.885 135.247V136.984C192.884 137.91 192.516 138.797 191.862 139.451C191.208 140.105 190.321 140.473 189.396 140.474Z" fill="#F9ADF6"/>
<path d="M192.038 137.125H166.967C165.996 137.124 165.065 136.738 164.378 136.051C163.692 135.364 163.305 134.432 163.304 133.461V131.724C163.305 130.752 163.692 129.821 164.378 129.134C165.065 128.447 165.996 128.06 166.967 128.059H192.038C193.009 128.06 193.94 128.447 194.627 129.134C195.314 129.821 195.7 130.752 195.701 131.724V133.461C195.7 134.432 195.314 135.364 194.627 136.051C193.94 136.738 193.009 137.124 192.038 137.125ZM166.967 128.757C166.181 128.758 165.428 129.071 164.872 129.627C164.316 130.183 164.003 130.937 164.002 131.724V133.461C164.003 134.247 164.316 135.001 164.872 135.558C165.428 136.114 166.181 136.426 166.967 136.427H192.038C192.824 136.426 193.578 136.114 194.134 135.558C194.69 135.001 195.003 134.247 195.003 133.461V131.724C195.003 130.937 194.69 130.183 194.134 129.627C193.578 129.071 192.824 128.758 192.038 128.757H166.967Z" fill="#3F3D56"/>
<path d="M87.8546 95.0655C87.3402 95.3564 86.7715 95.5252 86.1884 95.5598C85.6053 95.5945 85.0221 95.4942 84.4798 95.266C83.9375 95.0379 83.4494 94.6874 83.0498 94.2394C82.6502 93.7913 82.3489 93.2564 82.167 92.6726L67.9729 92.4144L72.14 86.0099L84.9801 87.2369C85.9326 86.9804 86.9415 87.1005 87.8156 87.5744C88.6896 88.0482 89.3681 88.8429 89.7224 89.8079C90.0767 90.7729 90.0823 91.8411 89.7381 92.8101C89.3938 93.7791 88.7237 94.5816 87.8546 95.0655H87.8546Z" fill="#FFB7B7"/>
<path d="M78.8736 94.6108C79.0822 94.6108 79.2886 94.5669 79.4804 94.4818C79.6723 94.3967 79.8455 94.2721 79.9897 94.1156C80.134 93.959 80.2462 93.7737 80.3196 93.5709C80.3931 93.3681 80.4262 93.1519 80.4171 92.9354L80.1452 86.5239C80.1304 86.1421 79.9844 85.7784 79.7336 85.4989C79.4828 85.2195 79.1438 85.0426 78.7782 85.0006L63.186 83.1429L63.7086 93.827L78.7973 94.6085C78.8227 94.6101 78.8482 94.6108 78.8736 94.6108Z" fill="#F9ADF6"/>
<path d="M59.3566 181.115L63.9061 182.532L71.8023 166.466L65.0877 164.374L59.3566 181.115Z" fill="#FFB7B7"/>
<path d="M57.4418 185.464L71.4607 190.177L71.5186 189.995C71.7526 189.257 71.8433 188.479 71.7853 187.706C71.7273 186.932 71.5219 186.178 71.1807 185.486C70.8395 184.794 70.3693 184.178 69.7968 183.673C69.2244 183.168 68.561 182.785 67.8444 182.544L67.8441 182.544L59.2819 179.665L57.4418 185.464Z" fill="#2F2E41"/>
<path d="M45.9543 188.266L51.1438 188.266L53.6124 170.108L45.9534 170.109L45.9543 188.266Z" fill="#FFB7B7"/>
<path d="M44.9964 193.044L60.314 193.044V192.863C60.314 192.134 60.1598 191.412 59.8601 190.738C59.5605 190.065 59.1214 189.452 58.5677 188.937C58.0141 188.421 57.3568 188.012 56.6335 187.733C55.9101 187.454 55.1349 187.31 54.3519 187.31H54.3515L44.9961 187.311L44.9964 193.044Z" fill="#2F2E41"/>
<path d="M53.7492 184.443C54.1376 184.443 54.5123 184.299 54.8026 184.04C55.093 183.78 55.2789 183.423 55.3253 183.034L61.4493 131.493L70.4134 145.98L59.8956 173.039C59.7525 173.413 59.7533 173.828 59.8977 174.201C60.0422 174.575 60.3199 174.881 60.6765 175.059L69.5988 179.454C69.8025 179.555 70.0251 179.61 70.2517 179.616C70.4783 179.623 70.7037 179.581 70.9127 179.492C71.1217 179.404 71.3094 179.271 71.4633 179.104C71.6172 178.936 71.7337 178.737 71.8049 178.52L81.6928 148.445C82.4377 146.182 82.535 143.753 81.9736 141.437L75.5802 115.023L75.5052 114.982L61.0935 107.034L61.011 107.065L44.0387 113.301L45.815 147.163L44.5244 182.309C44.5068 182.726 44.6531 183.134 44.9318 183.444C45.2105 183.754 45.5991 183.941 46.0136 183.964L53.6498 184.44C53.6831 184.442 53.7163 184.443 53.7492 184.443Z" fill="#2F2E41"/>
<path d="M63.2274 125.192C65.7839 125.192 67.9377 124.465 69.2853 122.616L69.3288 122.556L68.4568 113.417L76.2121 117.717C76.3729 117.806 76.5573 117.844 76.7402 117.825C76.9231 117.806 77.0959 117.732 77.2351 117.612C77.3743 117.492 77.4733 117.332 77.5187 117.154C77.5641 116.976 77.5537 116.788 77.4889 116.616L67.817 90.9611L61.4308 70.0623C61.1141 68.3897 60.2963 66.8525 59.0855 65.6545C57.8748 64.4564 56.3282 63.6539 54.6507 63.3534C48.9616 62.3096 45.5733 64.227 41.6607 68.4817C40.7144 69.517 40.0175 70.7545 39.6231 72.0998C39.2288 73.4451 39.1473 74.8626 39.3851 76.2442L43.0865 97.3744L41.9989 116.32C41.9157 116.646 41.9381 116.991 42.0628 117.304C42.1874 117.617 42.4081 117.883 42.6931 118.063C45.7182 119.987 54.9942 125.191 63.2274 125.192Z" fill="#F9ADF6"/>
<path d="M49.7829 60.2069C44.4955 60.2069 40.2093 55.9282 40.2093 50.6503C40.2093 45.3723 44.4955 41.0936 49.7829 41.0936C55.0703 41.0936 59.3566 45.3723 59.3566 50.6503C59.3566 55.9282 55.0703 60.2069 49.7829 60.2069Z" fill="#FFB7B7"/>
<path d="M48.0374 119.081C47.5194 118.837 47.0598 118.479 46.691 118.032C46.3221 117.586 46.053 117.061 45.9025 116.496C45.752 115.931 45.7239 115.339 45.82 114.762C45.9162 114.184 46.1343 113.636 46.4591 113.154L38.2945 101.651L45.4841 101.301L52.1351 112.278C52.8855 112.892 53.3906 113.768 53.5546 114.74C53.7187 115.712 53.5303 116.712 53.0252 117.55C52.5202 118.389 51.7334 119.008 50.8141 119.29C49.8948 119.572 48.9069 119.497 48.0374 119.081Z" fill="#FFB7B7"/>
<path d="M43.1086 112.752C43.5163 112.81 43.9309 112.712 44.2688 112.479L49.8001 108.657C50.1327 108.429 50.3671 108.086 50.4573 107.696C50.5475 107.305 50.4869 106.895 50.2875 106.546L40.4402 89.1869L50.3443 77.3747C50.8644 76.7544 51.2485 76.0336 51.4721 75.2582C51.6957 74.4828 51.7539 73.6698 51.6431 72.8709C51.5322 72.072 51.2547 71.3046 50.8282 70.6178C50.4017 69.9309 49.8356 69.3396 49.1659 68.8813C48.4961 68.4231 47.7374 68.108 46.9381 67.9562C46.1387 67.8043 45.3162 67.819 44.5229 67.9993C43.7296 68.1796 42.9829 68.5215 42.3302 69.0034C41.6776 69.4852 41.1333 70.0964 40.7321 70.798L29.7963 89.9222C29.7188 90.0584 29.6782 90.212 29.6783 90.3683C29.6784 90.5246 29.7192 90.6782 29.7968 90.8143L41.9247 111.953C42.0367 112.148 42.1883 112.318 42.37 112.451C42.5517 112.585 42.7595 112.679 42.9801 112.729C43.0227 112.739 43.0656 112.746 43.1086 112.752Z" fill="#F9ADF6"/>
<path d="M54.2479 50.0296C55.1843 49.309 56.4806 49.4214 57.5902 49.0437C58.2508 48.8189 58.8425 48.4189 59.3058 47.8839C59.7692 47.3489 60.088 46.6978 60.2302 45.9957C60.3724 45.2937 60.3331 44.5654 60.1161 43.884C59.8992 43.2025 59.5122 42.5919 58.9941 42.1132C57.7958 41.0062 56.0908 40.755 54.4938 40.5525C52.3059 40.275 50.0967 39.9971 47.9028 40.2177C45.7088 40.4384 43.5003 41.2023 41.8966 42.7616C40.1285 44.4807 39.2576 47.0399 39.2519 49.5455C39.3135 52.0628 39.9838 54.5245 41.202 56.7071C41.5785 57.5364 42.1462 58.2582 42.8554 58.8095C43.5934 59.3117 44.6334 59.4431 45.3442 58.9008C45.9585 58.432 46.1834 57.6109 46.4609 56.8768C46.7384 56.1427 47.212 55.3607 47.9683 55.2475C48.9424 55.1016 49.6855 56.1226 50.6149 56.4567C51.9148 56.924 53.3587 55.8905 53.889 54.5808C54.4192 53.2711 54.2796 51.7893 54.1308 50.3784" fill="#2F2E41"/>
<path d="M277.376 74.9844C276.648 68.9375 272.071 65.4602 266.011 65.4602C259.095 65.4602 253.815 70.3438 253.815 78.9091C253.815 87.4489 259.006 92.358 266.011 92.358C272.723 92.358 276.776 87.8963 277.376 83.0767L271.777 83.0511C271.253 85.8509 269.054 87.4616 266.101 87.4616C262.125 87.4616 259.428 84.5085 259.428 78.9091C259.428 73.4631 262.087 70.3565 266.139 70.3565C269.169 70.3565 271.355 72.108 271.777 74.9844H277.376ZM281.244 92H286.69V80.8906C286.69 78.4744 288.454 76.8125 290.857 76.8125C291.612 76.8125 292.647 76.9403 293.158 77.1065V72.2741C292.673 72.1591 291.995 72.0824 291.445 72.0824C289.246 72.0824 287.444 73.3608 286.728 75.7898H286.523V72.3636H281.244V92ZM295.974 92H301.42V72.3636H295.974V92ZM298.71 69.8324C300.333 69.8324 301.663 68.5923 301.663 67.071C301.663 65.5625 300.333 64.3224 298.71 64.3224C297.099 64.3224 295.77 65.5625 295.77 67.071C295.77 68.5923 297.099 69.8324 298.71 69.8324ZM311.382 92.3707C314.284 92.3707 316.163 91.1051 317.122 89.277H317.276V92H322.44V78.7557C322.44 74.0767 318.477 72.108 314.105 72.108C309.401 72.108 306.307 74.358 305.553 77.9375L310.589 78.3466C310.96 77.0426 312.124 76.0838 314.08 76.0838C315.933 76.0838 316.994 77.017 316.994 78.6278V78.7045C316.994 79.9702 315.652 80.1364 312.239 80.4688C308.352 80.8267 304.862 82.1307 304.862 86.5156C304.862 90.402 307.636 92.3707 311.382 92.3707ZM312.942 88.6122C311.267 88.6122 310.065 87.8324 310.065 86.3366C310.065 84.8026 311.331 84.0483 313.249 83.7798C314.438 83.6136 316.381 83.3324 317.033 82.8977V84.9815C317.033 87.0398 315.332 88.6122 312.942 88.6122ZM326.665 92H332.112V80.8906C332.112 78.4744 333.876 76.8125 336.279 76.8125C337.033 76.8125 338.069 76.9403 338.58 77.1065V72.2741C338.094 72.1591 337.417 72.0824 336.867 72.0824C334.668 72.0824 332.866 73.3608 332.15 75.7898H331.945V72.3636H326.665V92ZM277.376 118.984C276.648 112.938 272.071 109.46 266.011 109.46C259.095 109.46 253.815 114.344 253.815 122.909C253.815 131.449 259.006 136.358 266.011 136.358C272.723 136.358 276.776 131.896 277.376 127.077L271.777 127.051C271.253 129.851 269.054 131.462 266.101 131.462C262.125 131.462 259.428 128.509 259.428 122.909C259.428 117.463 262.087 114.357 266.139 114.357C269.169 114.357 271.355 116.108 271.777 118.984H277.376ZM290.116 136.384C296.073 136.384 299.781 132.305 299.781 126.259C299.781 120.173 296.073 116.108 290.116 116.108C284.158 116.108 280.451 120.173 280.451 126.259C280.451 132.305 284.158 136.384 290.116 136.384ZM290.141 132.165C287.393 132.165 285.987 129.646 285.987 126.22C285.987 122.794 287.393 120.263 290.141 120.263C292.839 120.263 294.245 122.794 294.245 126.22C294.245 129.646 292.839 132.165 290.141 132.165ZM308.768 124.648C308.781 122.116 310.289 120.634 312.488 120.634C314.674 120.634 315.991 122.065 315.978 124.469V136H321.424V123.497C321.424 118.92 318.739 116.108 314.648 116.108C311.734 116.108 309.624 117.54 308.742 119.828H308.512V116.364H303.322V136H308.768V124.648ZM336.161 116.364H332.466V111.659H327.02V116.364H324.336V120.455H327.02V130.682C326.995 134.53 329.615 136.435 333.566 136.268C334.972 136.217 335.969 135.936 336.519 135.757L335.662 131.705C335.394 131.756 334.819 131.884 334.307 131.884C333.221 131.884 332.466 131.474 332.466 129.966V120.455H336.161V116.364ZM345.308 136.371C348.21 136.371 350.089 135.105 351.048 133.277H351.201V136H356.366V122.756C356.366 118.077 352.403 116.108 348.031 116.108C343.326 116.108 340.233 118.358 339.478 121.938L344.515 122.347C344.886 121.043 346.049 120.084 348.005 120.084C349.859 120.084 350.92 121.017 350.92 122.628V122.705C350.92 123.97 349.578 124.136 346.164 124.469C342.278 124.827 338.788 126.131 338.788 130.516C338.788 134.402 341.562 136.371 345.308 136.371ZM346.868 132.612C345.193 132.612 343.991 131.832 343.991 130.337C343.991 128.803 345.257 128.048 347.174 127.78C348.363 127.614 350.306 127.332 350.958 126.898V128.982C350.958 131.04 349.258 132.612 346.868 132.612Z" fill="white"/>
</svg>
