<svg width="357" height="204" viewBox="0 0 357 204" fill="none" xmlns="http://www.w3.org/2000/svg">
<path d="M77.9366 94.6681C92.8628 94.6681 104.963 82.539 104.963 67.5771C104.963 52.6151 92.8628 40.4861 77.9366 40.4861C63.0103 40.4861 50.9102 52.6151 50.9102 67.5771C50.9102 82.539 63.0103 94.6681 77.9366 94.6681Z" fill="#D8D8D8"/>
<path d="M345.812 192.722C344.223 194.155 342.552 195.494 340.806 196.732C336.664 199.652 332.187 202.064 327.472 203.917C307.878 203.445 279.073 201.035 242.713 199.75C240.001 198.82 237.227 197.814 234.391 196.732C230.639 195.299 226.779 193.723 222.811 192.007C206.331 184.868 189.411 180.228 172.652 177.456C169.05 176.861 165.458 176.351 161.876 175.925C86.1954 166.853 16.4044 193.509 8.3216 196.732H7.54224L12.5138 187.08L97.1065 22.8455L116.889 73.7576L123.203 90.0091L140.603 66.0745L149.588 53.7166L190.505 100.738L202.07 75.1374L282.137 140.635L286.603 144.286L291.122 147.984L292.561 149.162L335.366 184.179L345.812 192.722Z" fill="#F2F2F2"/>
<path opacity="0.1" d="M89.5642 55.9218L97.735 37.9662L109.048 64.1121L99.3063 45.2114L89.5642 55.9218Z" fill="black"/>
<path opacity="0.1" d="M172.652 177.456C169.05 176.861 165.458 176.351 161.876 175.925L123.203 90.009L172.652 177.456Z" fill="black"/>
<path opacity="0.1" d="M140.604 66.0743L149.588 59.0719L190.442 106.324L148.959 66.0022L140.604 66.0743Z" fill="black"/>
<path opacity="0.1" d="M190.504 100.737L272.15 179.091L260.982 181.731L190.504 100.737Z" fill="black"/>
<path d="M357 196.889C357 202.991 346.642 204.38 327.472 203.917C307.878 203.445 279.073 201.035 242.713 199.75C228.961 199.264 214.125 198.937 198.298 198.937C99.7149 198.937 0 211.591 0 196.889C0 193.424 4.43736 190.117 12.5139 187.08C36.4605 178.077 92.3926 171.484 159.399 170.422C162.448 170.372 165.518 170.335 168.61 170.312C171.885 170.283 175.181 170.27 178.5 170.271C205.14 170.271 230.419 171.14 253.124 172.7C253.197 172.706 253.266 172.712 253.338 172.715C255.161 172.841 256.966 172.972 258.753 173.106C260.704 173.254 262.635 173.406 264.545 173.563C264.937 173.594 265.33 173.626 265.72 173.66C266.003 173.682 266.286 173.708 266.565 173.733C267.081 173.774 267.596 173.818 268.105 173.865C268.123 173.864 268.141 173.866 268.159 173.868C269.095 173.95 270.025 174.032 270.949 174.114C271.047 174.123 271.144 174.133 271.241 174.139C298.095 176.58 320.288 180.049 335.366 184.179C349.162 187.956 357 192.284 357 196.889Z" fill="#343434"/>
<path d="M22.2769 144.333C22.2769 164.498 34.8977 180.816 50.4946 180.816L22.2769 144.333Z" fill="#343434"/>
<path d="M50.4946 180.816C50.4946 160.424 64.5787 143.923 81.984 143.923L50.4946 180.816Z" fill="#D8D8D8"/>
<path d="M32.5007 146.161C32.5007 165.316 40.5488 180.816 50.4946 180.816L32.5007 146.161Z" fill="#D8D8D8"/>
<path d="M50.4946 180.816C50.4946 154.76 66.7736 133.675 86.8914 133.675L50.4946 180.816Z" fill="#343434"/>
<path d="M44.5583 181.074C44.5583 181.074 48.5601 180.95 49.7661 180.089C50.9721 179.228 55.9218 178.201 56.221 179.581C56.5202 180.962 62.2348 186.448 57.7169 186.484C53.199 186.521 47.2192 185.779 46.0155 185.044C44.8118 184.309 44.5583 181.074 44.5583 181.074Z" fill="#A8A8A8"/>
<path opacity="0.2" d="M57.7975 186.004C53.2796 186.04 47.2998 185.298 46.0961 184.563C45.1794 184.003 44.8142 181.995 44.6919 181.068C44.6073 181.072 44.5583 181.074 44.5583 181.074C44.5583 181.074 44.8118 184.309 46.0155 185.044C47.2192 185.779 53.199 186.521 57.7169 186.484C59.021 186.474 59.4715 186.008 59.4468 185.32C59.2656 185.736 58.7682 185.996 57.7975 186.004Z" fill="black"/>
<path d="M239.745 141.498C239.745 161.663 252.366 177.981 267.963 177.981L239.745 141.498Z" fill="#343434"/>
<path d="M267.963 177.981C267.963 157.589 282.047 141.088 299.452 141.088L267.963 177.981Z" fill="#D8D8D8"/>
<path d="M249.969 143.326C249.969 162.481 258.017 177.981 267.963 177.981L249.969 143.326Z" fill="#D8D8D8"/>
<path d="M267.963 177.981C267.963 151.924 284.242 130.839 304.36 130.839L267.963 177.981Z" fill="#343434"/>
<path d="M262.027 178.238C262.027 178.238 266.028 178.115 267.234 177.254C268.44 176.393 273.39 175.365 273.689 176.746C273.988 178.127 279.703 183.612 275.185 183.649C270.667 183.685 264.687 182.944 263.484 182.209C262.28 181.474 262.027 178.238 262.027 178.238Z" fill="#A8A8A8"/>
<path opacity="0.2" d="M275.266 183.168C270.748 183.205 264.768 182.463 263.564 181.728C262.648 181.168 262.282 179.16 262.16 178.233C262.076 178.237 262.027 178.238 262.027 178.238C262.027 178.238 262.28 181.474 263.484 182.209C264.687 182.944 270.667 183.686 275.185 183.649C276.489 183.638 276.94 183.173 276.915 182.484C276.734 182.901 276.237 183.161 275.266 183.168Z" fill="black"/>
<path d="M156.816 138.756H151.159V148.864H156.816V138.756Z" fill="#343434"/>
<path d="M153.988 142.577C154.599 142.577 155.094 142.08 155.094 141.468C155.094 140.855 154.599 140.358 153.988 140.358C153.376 140.358 152.881 140.855 152.881 141.468C152.881 142.08 153.376 142.577 153.988 142.577Z" fill="#F2F2F2"/>
<path d="M154.673 130.118C154.673 130.118 152.952 140.128 156.051 140.473C159.15 140.818 156.395 129.773 156.395 129.773L154.673 130.118Z" fill="#FFB9B9"/>
<path d="M156.74 95.9481C156.74 95.9481 153.124 130.291 154.157 130.809C155.19 131.326 157.945 132.017 158.461 131.499C158.978 130.981 161.044 109.754 161.044 109.754L159.494 98.7094L156.74 95.9481Z" fill="#D8D8D8"/>
<path opacity="0.1" d="M156.74 95.9481C156.74 95.9481 153.124 130.291 154.157 130.809C155.19 131.326 157.945 132.017 158.461 131.499C158.978 130.981 161.044 109.754 161.044 109.754L159.494 98.7094L156.74 95.9481Z" fill="black"/>
<path d="M174.214 80.5024H163.368V92.2377H174.214V80.5024Z" fill="#2F2E41"/>
<path d="M165.864 85.766C165.864 85.766 165.52 93.3594 163.11 93.8771C160.699 94.3948 165.348 103.196 165.348 103.196L172.579 102.506L174.301 92.1513C174.301 92.1513 170.341 91.461 171.718 86.1111L165.864 85.766Z" fill="#FFB9B9"/>
<path opacity="0.1" d="M165.864 85.766C165.864 85.766 165.52 93.3594 163.11 93.8771C160.699 94.3948 165.348 103.196 165.348 103.196L172.579 102.506L174.301 92.1513C174.301 92.1513 170.341 91.461 171.718 86.1111L165.864 85.766Z" fill="black"/>
<path d="M166.209 172.572L166.725 175.506L169.824 174.816L169.135 171.882L166.209 172.572Z" fill="#FFB9B9"/>
<path d="M176.022 168.085L174.989 171.192L178.26 172.917L178.432 170.329L176.022 168.085Z" fill="#FFB9B9"/>
<path d="M162.593 121.489C162.593 121.489 158.461 133.57 159.322 139.265C160.183 144.96 163.626 172.055 163.626 172.055C163.626 172.055 167.586 174.643 169.996 171.709L168.275 148.584C168.275 148.584 168.619 134.605 169.996 135.986C171.374 137.367 176.711 153.589 176.711 153.589L175.678 168.258C175.678 168.258 176.194 172.745 179.293 170.847L183.597 154.624C183.597 154.624 182.22 132.88 181.531 132.017C180.843 131.154 176.366 121.144 176.366 121.144L162.593 121.489Z" fill="#2F2E41"/>
<path d="M169.394 89.1312C172.151 89.1312 174.387 86.8905 174.387 84.1264C174.387 81.3624 172.151 79.1217 169.394 79.1217C166.636 79.1217 164.401 81.3624 164.401 84.1264C164.401 86.8905 166.636 89.1312 169.394 89.1312Z" fill="#FFB9B9"/>
<path d="M164.315 96.4659C164.315 96.4659 166.208 99.2271 168.619 97.3287C171.029 95.4304 172.406 95.2578 172.406 95.2578L175.333 96.9836L174.645 103.714L175.678 122.352C175.678 122.352 163.109 123.388 162.421 122.007C161.732 120.627 163.282 114.759 163.282 114.759L161.043 102.161V96.4659H164.315Z" fill="#D8D8D8"/>
<path d="M168.275 101.471C168.275 101.471 165.176 91.9788 164.143 91.8062C163.11 91.6337 160.183 93.7046 160.183 93.7046C160.183 93.7046 155.879 95.0852 155.879 95.9481C155.879 96.811 156.567 96.811 156.567 96.811L158.978 101.471C158.978 101.471 160.011 105.612 159.666 108.374C159.459 110.033 159.401 111.708 159.494 113.378C159.494 113.378 155.706 136.159 157.6 136.849C159.494 137.539 159.494 138.23 159.494 138.23C159.494 138.23 162.249 139.783 162.765 139.092C163.282 138.402 168.275 108.719 168.275 108.719C168.275 108.719 170.857 103.714 168.275 101.471Z" fill="#D8D8D8"/>
<path d="M168.963 101.471C168.963 101.471 170.513 97.8465 169.652 95.4304C169.652 95.4304 170.513 95.2578 170.857 94.7401C171.202 94.2224 170.857 91.6337 171.718 91.4611C172.579 91.2886 178.949 91.4611 179.293 91.8063C179.638 92.1514 180.671 94.5675 180.671 94.5675H180.154L176.367 100.78C176.367 100.78 178.26 112.516 177.916 114.414C177.572 116.312 182.909 124.251 183.597 124.769C184.286 125.286 187.385 133.57 186.008 134.433C184.63 135.296 172.579 140.818 172.062 138.057C171.546 135.296 167.93 118.728 167.93 118.728C167.93 118.728 167.758 109.582 168.275 107.338C168.791 105.095 168.963 101.471 168.963 101.471Z" fill="#D8D8D8"/>
<path d="M177.055 129.083C177.055 129.083 173.44 140.991 177.055 140.473C180.671 139.955 179.81 128.738 179.81 128.738L177.055 129.083Z" fill="#FFB9B9"/>
<path d="M169.487 174.822C169.487 174.822 172.342 175.64 172.138 177.479C172.074 178.013 171.871 178.521 171.549 178.952C171.227 179.383 170.797 179.72 170.303 179.931C170.004 180.126 169.768 180.403 169.623 180.73C169.479 181.056 169.431 181.418 169.487 181.771C169.691 182.997 167.856 184.836 164.798 184.019C161.74 183.201 162.351 182.384 162.351 182.384C162.518 181.477 163.03 180.671 163.779 180.136C165.002 179.318 166.429 176.457 166.429 176.253C166.429 176.048 166.837 174.618 166.837 174.618C166.837 174.618 168.468 173.596 169.487 174.822Z" fill="#2F2E41"/>
<path d="M175.506 170.847C175.506 170.847 172.407 172.227 173.095 173.953C173.784 175.679 176.022 178.095 176.366 180.684C176.711 183.272 179.637 185.516 181.703 184.135C183.769 182.755 181.359 179.993 181.359 179.993C181.359 179.993 178.777 175.161 178.605 174.126C178.432 173.09 178.949 172.055 177.916 171.71C176.883 171.364 175.506 170.847 175.506 170.847Z" fill="#2F2E41"/>
<path opacity="0.1" d="M180.068 96.3795C180.068 96.3795 179.638 94.3949 180.154 95.6029C180.671 96.811 184.458 111.48 181.015 120.281C181.015 120.281 180.671 131.154 180.326 131.154C179.982 131.154 175.85 130.981 176.022 129.773C176.194 128.565 176.539 109.064 176.539 107.856C176.539 106.648 177.141 98.7956 177.141 98.7956L180.068 96.3795Z" fill="black"/>
<path d="M179.293 93C179.845 93.6865 180.308 94.4403 180.67 95.2435C181.187 96.4515 184.975 111.121 181.531 119.922C181.531 119.922 181.187 130.794 180.843 130.794C180.498 130.794 176.366 130.622 176.538 129.414C176.711 128.206 177.055 108.705 177.055 107.497C177.055 106.288 176.022 98.1773 176.022 98.1773L179.293 93Z" fill="#D8D8D8"/>
<path d="M166.579 75.3154C164.773 75.8815 163.424 77.3609 162.167 78.7791C161.678 79.2806 161.263 79.8496 160.935 80.469C160.616 81.2585 160.447 82.1012 160.438 82.9531C160.354 84.2735 160.327 85.5959 160.358 86.9202C160.387 88.1889 160.464 89.4893 160.075 90.6969C159.699 91.8644 158.916 92.8513 158.378 93.9534C157.52 95.7115 157.322 97.8448 158.114 99.6337C158.55 100.618 159.256 101.456 159.783 102.395C160.715 104.067 161.06 106.004 160.763 107.896L163.242 104.677C164.83 102.615 166.468 100.442 166.915 97.8763C167.563 94.1544 165.582 90.509 165.192 86.7512C165.083 85.7033 165.119 84.5717 165.711 83.701C166.584 82.4157 168.484 81.9616 169.009 80.4983C169.085 81.1111 172.747 83.0627 173.188 82.6831C173.459 83.4168 173.538 84.208 173.417 84.981C173.296 85.754 172.979 86.4829 172.496 87.0979C172.142 87.539 171.706 87.9102 171.36 88.3583C170.465 89.5188 170.261 91.0836 170.388 92.5452C170.514 94.0068 170.934 95.4262 171.156 96.8763C171.343 98.3202 171.433 99.7751 171.424 101.231C171.44 102.239 171.413 103.364 170.708 104.082C171.864 103.676 172.921 103.027 173.807 102.179C174.287 101.654 174.804 101.163 175.352 100.71C176.461 99.9081 177.964 99.6702 178.869 98.6423C179.676 97.7246 179.805 96.3783 179.615 95.1692C179.426 93.9602 178.963 92.8099 178.73 91.6085C178.436 90.0804 178.518 88.5034 178.97 87.0143C179.299 85.9328 179.825 84.8904 179.889 83.7614C180.02 81.4589 178.249 79.5328 176.546 77.9819C173.995 75.6584 170.044 74.2295 166.579 75.3154Z" fill="#2F2E41"/>
<path d="M312.813 32.8767C311.287 33.4416 308.608 33.9037 305.506 34.2767C297.071 35.2913 285.512 35.6514 285.512 35.6514C285.512 35.6514 226.109 40.5905 181.585 22.2222C181.585 22.2222 175.108 18.8181 181.124 14.2387C182.048 13.5534 183.032 12.9517 184.062 12.4407C184.062 12.4407 184.087 12.4153 184.136 12.3681C184.819 11.7347 185.558 11.1639 186.343 10.6627C188.649 9.16832 192.545 7.39525 197.285 8.19832L314.218 27.1577C314.218 27.1577 318.49 30.7751 312.813 32.8767Z" fill="#F2F2F2"/>
<path d="M289.513 24.2849L313.993 6.8739L324.783 8.74435L314.218 27.1575C314.218 27.1575 289.794 27.3523 289.513 24.2849Z" fill="#F2F2F2"/>
<path d="M227.88 13.7084L276.642 0L284.502 1.64625L262.476 11.5786L255.59 19.2989L227.88 13.7084Z" fill="#F2F2F2"/>
<path d="M305.506 34.2767C297.071 35.2912 285.512 35.6513 285.512 35.6513C285.512 35.6513 226.109 40.5904 181.585 22.2222C181.585 22.2222 175.108 18.818 181.124 14.2386L181.145 14.3223C181.145 14.3223 190.751 20.831 236.654 26.2656L305.506 34.2767Z" fill="#F2F2F2"/>
<path d="M297.667 33.9003L319.469 42.8225L324.945 42.2129L311.905 32.3896C311.905 32.3896 296.133 29.0177 297.667 33.9003Z" fill="#F2F2F2"/>
<path d="M189.041 15.2755C188.001 15.2937 185.618 13.5442 184.136 12.3681C184.819 11.7347 185.558 11.1639 186.343 10.6627C187.537 11.5815 189.663 13.0693 190.845 13.0163C192.551 12.9397 190.607 15.2483 189.041 15.2755Z" fill="#F2F2F2"/>
<path d="M288.083 64.7449L274.086 65.4783L234.735 38.8786L227.429 33.9405L223.879 31.5406C230.537 25.8997 257.698 33.6772 257.698 33.6772C258.218 34.1173 258.383 34.8482 258.36 35.6553C258.315 37.168 257.606 38.9484 257.333 39.582C257.267 39.7347 257.227 39.8206 257.227 39.8206L288.083 64.7449Z" fill="#F2F2F2"/>
<path d="M312.813 32.8767C311.287 33.4416 308.608 33.9037 305.506 34.2767C297.071 35.2913 285.512 35.6514 285.512 35.6514C285.512 35.6514 226.109 40.5905 181.585 22.2222C181.585 22.2222 175.108 18.8181 181.124 14.2387C182.048 13.5534 183.032 12.9517 184.062 12.4407C184.062 12.4407 184.087 12.4153 184.136 12.3681C184.819 11.7347 185.558 11.1639 186.343 10.6627C188.649 9.16832 192.545 7.39525 197.285 8.19832L314.218 27.1577C314.218 27.1577 318.49 30.7751 312.813 32.8767Z" fill="#343434"/>
<path d="M289.513 24.2849L313.993 6.8739L324.783 8.74435L314.218 27.1575C314.218 27.1575 289.794 27.3523 289.513 24.2849Z" fill="#343434"/>
<path d="M227.88 13.7084L276.642 0L284.502 1.64625L262.476 11.5786L255.59 19.2989L227.88 13.7084Z" fill="#343434"/>
<path d="M305.506 34.2767C297.071 35.2912 285.512 35.6513 285.512 35.6513C285.512 35.6513 226.109 40.5904 181.585 22.2222C181.585 22.2222 175.108 18.818 181.124 14.2386L181.145 14.3223C181.145 14.3223 190.751 20.831 236.654 26.2656L305.506 34.2767Z" fill="#D8D8D8"/>
<path d="M297.667 33.9003L319.469 42.8225L324.945 42.2129L311.905 32.3896C311.905 32.3896 296.133 29.0177 297.667 33.9003Z" fill="#343434"/>
<path d="M189.041 15.2755C188.001 15.2937 185.618 13.5442 184.136 12.3681C184.819 11.7347 185.558 11.1639 186.343 10.6627C187.537 11.5815 189.663 13.0693 190.845 13.0163C192.551 12.9397 190.607 15.2483 189.041 15.2755Z" fill="#D8D8D8"/>
<path d="M288.083 64.7449L274.086 65.4783L234.735 38.8786L227.429 33.9405L223.879 31.5406C230.537 25.8997 257.698 33.6772 257.698 33.6772C258.218 34.1173 258.383 34.8482 258.36 35.6553C258.315 37.168 257.606 38.9484 257.333 39.582C257.267 39.7347 257.227 39.8206 257.227 39.8206L288.083 64.7449Z" fill="#343434"/>
</svg>
