<svg width="200" height="200" viewBox="0 0 200 200" fill="none" xmlns="http://www.w3.org/2000/svg">
<circle cx="100" cy="100" r="100" fill="#9482FF"/>
<mask id="mask0_242_81" style="mask-type:alpha" maskUnits="userSpaceOnUse" x="0" y="0" width="200" height="200">
<circle cx="100" cy="100" r="100" fill="#9482FF"/>
</mask>
<g mask="url(#mask0_242_81)">
<path d="M112.806 138.661C102.633 138.91 83.8611 134.03 90.1621 112.518L112.806 108.784V138.661Z" fill="#88656A"/>
<path d="M101.032 129.064C118.171 129.064 132.064 115.171 132.064 98.0321C132.064 80.8935 118.171 67 101.032 67C83.8936 67 70 80.8935 70 98.0321C70 115.171 83.8936 129.064 101.032 129.064Z" fill="#88656A"/>
<path d="M88.4148 126.49L80.1528 135.213L72.3944 309.769L164.199 307.184L142.217 154.61L122.823 136.023L112.981 126.49H88.4148Z" fill="#379FFF"/>
<path d="M73.6876 145.557L80.6561 134.248L82.7387 158.487C82.7387 158.487 99.5477 212.794 98.2547 260.635C96.9617 308.476 104.72 420.967 94.3757 422.26C84.0317 423.553 40.0696 426.139 40.0696 417.088C40.0696 408.037 37.4836 167.538 37.4836 167.538L73.6876 145.557Z" fill="#F7F7F7"/>
<path d="M120.739 134.248L138.338 148.143L177.128 162.366C177.128 162.366 177.128 327.871 184.886 366.661C192.644 405.451 206.867 409.33 188.765 410.623C170.663 411.916 171.956 405.451 171.956 405.451C171.956 405.451 118.943 239.947 121.529 198.571C124.115 157.194 118.153 134.248 120.739 134.248Z" fill="#F7F7F7"/>
<path d="M43.9485 167.539L40.5152 165.698C40.5152 165.698 21.9674 172.711 23.2604 177.883C24.5535 183.055 12.9164 364.075 16.7954 370.54C20.6745 377.005 51.7065 371.833 51.7065 371.833L43.9485 167.539Z" fill="#F7F7F7"/>
<path d="M176.399 361.505C176.399 361.505 207.848 362.334 210.796 355.394C213.743 348.455 177.172 170.786 177.736 165.484C178.301 160.183 158.962 155.804 158.962 155.804L155.816 158.102L176.399 361.505Z" fill="#F7F7F7"/>
</g>
</svg>
