<svg width="1048" height="931" viewBox="0 0 1048 931" fill="none" xmlns="http://www.w3.org/2000/svg">
<path d="M0 732.579V732.579C3.95202 677.744 73.318 656.5 107.3 699.716L191.352 806.608C232.56 859.014 309.99 864.426 358.088 818.263L416.965 761.755C473.662 707.338 558.364 694.249 628.843 729.012L638.372 733.712C689.246 758.805 748.329 761.335 801.161 740.683L812.289 736.332C851.305 721.081 893.757 716.826 935.024 724.031L1048 743.757V931H0V732.579Z" fill="white"/>
<path d="M582.353 270.453H273.877V78.4551H582.353V270.453ZM281.055 263.277H575.176V85.6306H281.055V263.277Z" fill="#E5E5E5"/>
<path d="M577.233 83.5747H278.997V266.612H577.233V83.5747Z" fill="white"/>
<path d="M577.233 129.965V118.726H535.861V83.5747H524.626V118.726H450.97V83.5747H439.735V118.726H326.131V83.5747H314.895V118.726H278.997V129.965H314.895V173.67H278.997V184.908H314.895V231.735H278.997V242.974H375.442V266.612H386.678V242.974H439.735V266.612H450.97V242.974H577.233V231.735H450.97V184.908H577.233V173.67H535.861V129.965L577.233 129.965ZM439.735 129.965V143.701H326.131V129.965H439.735ZM326.131 154.939H439.735V173.67H326.131V154.939ZM326.131 231.735V184.908H375.442V231.735L326.131 231.735ZM439.735 231.735H386.678V184.908H439.735V231.735ZM524.626 173.67H450.97V129.965H524.626V173.67Z" fill="#E6E6E6"/>
<path d="M499.155 54.6552C499.155 84.6328 444.755 151.414 444.755 151.414C444.755 151.414 390.356 84.6328 390.356 54.6552C390.356 40.2595 396.087 26.4533 406.289 16.274C416.491 6.09467 430.328 0.375977 444.755 0.375977C459.183 0.375977 473.019 6.09467 483.221 16.274C493.423 26.4533 499.155 40.2595 499.155 54.6552V54.6552Z" fill="#0075FF"/>
<path d="M469.715 52.8553C469.715 57.6653 468.289 62.3672 465.616 66.3666C462.944 70.3659 459.146 73.4831 454.702 75.3238C450.258 77.1645 445.368 77.6461 440.651 76.7077C435.933 75.7693 431.6 73.4531 428.199 70.0519C424.798 66.6507 422.481 62.3174 421.543 57.5998C420.605 52.8823 421.086 47.9924 422.927 43.5486C424.768 39.1047 427.885 35.3065 431.884 32.6343C435.883 29.962 440.585 28.5356 445.395 28.5356C448.589 28.5342 451.753 29.1622 454.704 30.3839C457.655 31.6055 460.337 33.3969 462.595 35.6554C464.854 37.914 466.645 40.5956 467.867 43.5469C469.088 46.4981 469.717 49.6612 469.715 52.8553V52.8553Z" fill="white"/>
<path d="M446.035 191.094C454.165 191.094 460.755 184.217 460.755 175.734C460.755 167.251 454.165 160.374 446.035 160.374C437.905 160.374 431.315 167.251 431.315 175.734C431.315 184.217 437.905 191.094 446.035 191.094Z" fill="#0075FF"/>
<path d="M596.988 286.582C597.517 288.35 598.426 289.981 599.653 291.359C600.88 292.737 602.394 293.83 604.088 294.56C605.783 295.29 607.617 295.639 609.462 295.584C611.306 295.528 613.116 295.069 614.763 294.238L647.372 323.997L651.701 301.095L620.052 276.42C618.473 273.744 615.967 271.741 613.01 270.79C610.053 269.838 606.849 270.004 604.006 271.257C601.163 272.51 598.879 274.762 597.585 277.586C596.292 280.411 596.079 283.611 596.988 286.582V286.582Z" fill="#FFB6B6"/>
<path d="M710.485 263.835C710.485 263.835 721.855 238.14 736.216 243.247C749.406 247.938 751.159 246.396 743.162 273.286L689.208 354.588C689.208 354.588 632.46 318.522 641.923 318.17C651.386 317.817 651.13 299.756 651.13 299.756L674.273 307.301L675.665 299.985L677.895 302.215L683.651 297.685L710.485 263.835Z" fill="#0075FF"/>
<path d="M775.255 324.606L772.857 346.853L774.269 376.028L713.076 368.834L708.696 324.606L716.433 324.681L775.255 324.606Z" fill="#FFB6B6"/>
<path d="M786.912 729.784H773.339L760.149 623.587H789.493L786.912 729.784Z" fill="#FFB6B6"/>
<path d="M791.154 642.776V665.79C791.154 665.79 770.803 684.004 756.595 667.07L747.738 592.038C747.738 592.038 747.52 585.011 743.13 580.838C742.755 580.481 742.428 580.076 742.157 579.635C738.982 574.732 740.275 564.595 740.275 564.595C740.275 564.595 734.106 561.267 732.16 550.515C730.215 539.763 723.815 516.276 723.815 516.276C723.815 516.276 710.592 481.601 711.514 459.649C711.68 455.591 711.744 451.892 711.744 448.564C711.706 433.87 710.234 426.28 710.234 426.28L707.559 375.285L713.076 367.554L738.304 368.297L740.019 368.245L740.646 368.233L766.553 367.452L781.183 376.053C781.183 376.053 782.489 379.305 784.332 383.797C787.775 392.13 793.074 404.738 795.417 408.975C799.026 415.502 797.234 449.089 784.947 464.014C784.947 464.014 779.839 471.271 781.183 473.895C782.399 476.276 781.235 480.308 781.004 481.025V481.038C780.979 481.102 780.966 481.14 780.966 481.14L779.007 524.659C779.007 524.659 779.007 543.309 783.398 550.118C787.788 556.928 791.154 642.776 791.154 642.776Z" fill="#2F2E41"/>
<path d="M703.483 728.813L689.576 726.321L694.812 619.302L726.31 624.948L703.483 728.813Z" fill="#FFB6B6"/>
<path d="M784.947 464.014C784.947 464.014 779.84 471.272 781.184 473.896C782.4 476.276 781.235 480.308 781.005 481.025V481.038C779.594 482.152 778.101 483.158 776.538 484.046C776.538 484.046 769.139 488.961 769.447 491.892C769.741 494.823 766.605 498.561 766.605 498.561L748.98 538.394C748.98 538.394 742.196 555.776 743.821 563.712C744.32 566.144 743.514 572.275 742.157 579.635C739.124 596.3 728.142 655.039 728.142 655.039L719.476 676.03C719.476 676.03 687.054 667.032 686.197 664.511C686.197 664.511 697.716 583.18 695.144 577.702C692.571 572.224 693.838 556.186 695.937 545.472C698.024 534.746 700.878 473.422 709.71 453.313C710.427 451.675 711.105 450.088 711.745 448.565C718.874 431.4 720.641 421.749 720.641 421.749L736.666 373.276L738.305 368.297L738.676 370.114L740.647 368.233L769.472 378.498L784.333 383.798C787.776 392.13 793.075 404.738 795.417 408.975C799.027 415.503 797.235 449.089 784.947 464.014Z" fill="#2F2E41"/>
<path d="M705.619 719.105L690.102 715.363L687.747 714.796L686.046 724.315L662.304 735.12C661.131 735.651 660.158 736.544 659.529 737.668C658.9 738.793 658.647 740.089 658.808 741.367C658.97 742.645 659.536 743.838 660.424 744.771C661.313 745.704 662.477 746.328 663.746 746.551L690.184 751.3L696.436 742.698L696.527 752.439L706.505 754.218L709.728 720.096L705.619 719.105Z" fill="#2F2E41"/>
<path d="M747.941 225.746C763.527 225.746 776.162 213.111 776.162 197.525C776.162 181.939 763.527 169.304 747.941 169.304C732.355 169.304 719.72 181.939 719.72 197.525C719.72 213.111 732.355 225.746 747.941 225.746Z" fill="#FFB7B7"/>
<path d="M718.991 251.487L734.346 242.274L741.236 230.596H759.155L765.056 239.203L792.199 253.025L791.927 295.249L779.635 358.595L709.236 338.115L704.917 314.382C704.917 314.382 679.835 287.571 701.332 272.216L718.991 251.487Z" fill="#0075FF"/>
<path d="M784.719 433.795C786.178 432.897 787.422 431.689 788.364 430.257C789.306 428.826 789.923 427.205 790.17 425.51C790.418 423.814 790.291 422.085 789.798 420.444C789.306 418.803 788.459 417.289 787.318 416.011L797.22 309.712L771.805 311.675L770.064 415.546C768.043 417.605 766.847 420.334 766.704 423.215C766.56 426.097 767.479 428.931 769.285 431.18C771.092 433.43 773.661 434.938 776.505 435.42C779.35 435.902 782.272 435.324 784.719 433.795H784.719Z" fill="#FFB6B6"/>
<path d="M792.435 252.356C792.435 252.356 792.435 253.636 796.675 265.652C800.307 275.945 806.736 339.182 794.193 354.616C797.69 356.77 792.431 396.731 791.155 400.834L765.555 394.434C762.102 388.499 765.778 346.837 768.288 345.85L768.141 326.88L761.589 264.352L786.817 254.018L792.435 252.356Z" fill="#0075FF"/>
<path d="M611.464 302.662L605.007 261.282C604.788 259.866 605.139 258.42 605.984 257.263C606.829 256.106 608.098 255.331 609.514 255.108L618.533 253.701C619.949 253.482 621.394 253.833 622.551 254.678C623.708 255.523 624.483 256.793 624.706 258.208L631.162 299.589C631.382 301.005 631.03 302.45 630.185 303.607C629.341 304.765 628.071 305.54 626.656 305.762L617.637 307.169C616.221 307.388 614.776 307.037 613.618 306.192C612.461 305.347 611.686 304.078 611.464 302.662Z" fill="#3F3D56"/>
<path d="M610.899 257.054C610.136 257.174 609.452 257.592 608.997 258.216C608.542 258.839 608.352 259.618 608.47 260.381L614.927 301.762C615.047 302.525 615.464 303.209 616.088 303.664C616.712 304.119 617.491 304.309 618.254 304.19L627.272 302.783C628.035 302.663 628.719 302.246 629.175 301.622C629.63 300.998 629.819 300.22 629.701 299.457L623.244 258.076C623.125 257.313 622.707 256.629 622.083 256.174C621.46 255.718 620.681 255.529 619.918 255.647L610.899 257.054Z" fill="#0075FF"/>
<path d="M789.875 210.489V213.652C789.875 215.694 789.467 217.715 788.674 219.596C787.881 221.477 786.72 223.181 785.258 224.606C783.796 226.031 782.064 227.149 780.164 227.895C778.263 228.64 776.232 228.997 774.192 228.945L753.406 228.285C753.163 226.227 752.483 224.245 751.414 222.47C751.558 224.422 751.283 226.382 750.606 228.218L741.412 227.989C748.702 211.924 751.545 198.268 741.412 191.642H727.788C727.516 189.69 726.852 187.812 725.836 186.123C725.98 187.993 725.732 189.873 725.11 191.642H711.796C711.797 184.859 714.493 178.354 719.289 173.558C724.085 168.761 730.59 166.066 737.373 166.065H741.412C771.863 158.405 787.936 174.774 789.875 210.489Z" fill="#2F2E41"/>
<path d="M928.402 733.976C931.935 728.517 938.655 717.325 938.999 716.635C940.926 712.782 937.715 715.672 937.073 715.672L925.512 733.013L928.402 733.976Z" fill="#F2F2F2"/>
<path d="M913.258 693.611C913.912 693.641 914.558 693.47 915.111 693.12C915.663 692.77 916.094 692.259 916.347 691.656C916.599 691.053 916.66 690.387 916.521 689.748C916.381 689.109 916.049 688.528 915.569 688.084C915.489 687.765 915.431 687.535 915.351 687.216C915.38 687.146 915.409 687.077 915.438 687.007C916.096 685.453 917.198 684.128 918.607 683.199C920.015 682.269 921.667 681.777 923.355 681.783C925.042 681.789 926.69 682.294 928.092 683.234C929.494 684.174 930.586 685.507 931.233 687.066C933.816 693.288 937.105 699.52 937.915 706.099C938.272 709.007 938.121 711.955 937.47 714.811C943.538 701.575 946.688 687.19 946.709 672.63C946.71 668.976 946.507 665.325 946.101 661.694C945.765 658.718 945.299 655.762 944.703 652.828C941.451 636.907 934.469 621.984 924.329 609.285C919.422 606.608 915.453 602.49 912.958 597.487C912.054 595.689 911.415 593.77 911.062 591.788C911.615 591.861 912.178 591.906 912.731 591.942C912.904 591.952 913.085 591.961 913.258 591.97L913.323 591.973C913.931 592 914.535 591.851 915.06 591.543C915.586 591.236 916.011 590.783 916.285 590.239C916.56 589.695 916.671 589.083 916.605 588.478C916.54 587.872 916.301 587.299 915.917 586.826C915.678 586.532 915.439 586.238 915.2 585.944C914.837 585.49 914.465 585.045 914.102 584.592C914.06 584.549 914.02 584.503 913.984 584.455C913.566 583.938 913.149 583.43 912.731 582.913C913.493 581.73 914.518 580.739 915.726 580.018C919.91 577.568 925.682 579.265 928.704 583.049C931.735 586.833 932.306 592.142 931.254 596.87C930.219 600.894 928.506 604.711 926.19 608.16C926.417 608.45 926.653 608.732 926.88 609.022C931.027 614.355 934.642 620.082 937.672 626.12C936.935 619.355 937.815 612.512 940.238 606.154C942.694 600.229 947.299 595.238 951.353 590.115C956.223 583.962 966.209 586.648 967.067 594.448C967.076 594.523 967.084 594.599 967.092 594.674C966.489 595.014 965.9 595.374 965.323 595.756C964.599 596.24 964.037 596.932 963.712 597.74C963.388 598.549 963.315 599.437 963.503 600.288C963.692 601.138 964.133 601.912 964.769 602.508C965.405 603.104 966.206 603.494 967.067 603.627L967.155 603.64C966.941 605.811 966.561 607.962 966.021 610.075C964.454 615.973 961.686 621.485 957.89 626.263C954.093 631.042 949.351 634.985 943.959 637.845C943.605 638.026 943.26 638.208 942.906 638.38C945.951 647.008 947.86 655.995 948.587 665.115C948.999 670.496 948.975 675.901 948.515 681.278L948.542 681.088C949.704 675.109 952.893 669.714 957.572 665.814C964.521 660.106 974.338 658.004 981.835 653.416C982.632 652.904 983.558 652.631 984.505 652.629C985.451 652.626 986.379 652.895 987.178 653.403C987.978 653.91 988.615 654.636 989.015 655.494C989.416 656.352 989.562 657.306 989.438 658.245C989.428 658.312 989.418 658.378 989.407 658.445C988.29 658.9 987.202 659.425 986.149 660.015C985.547 660.355 984.958 660.716 984.381 661.097C983.656 661.581 983.095 662.273 982.77 663.081C982.445 663.89 982.372 664.778 982.561 665.629C982.749 666.479 983.19 667.254 983.826 667.849C984.462 668.445 985.263 668.835 986.125 668.968L986.213 668.981C986.276 668.99 986.331 669 986.394 669.009C984.485 673.568 981.805 677.764 978.472 681.414C974.354 685.833 969.378 689.363 963.847 691.79C958.317 694.217 952.349 695.488 946.309 695.526H946.3C944.661 702.65 942.286 709.585 939.213 716.218H913.893C913.802 715.936 913.721 715.646 913.639 715.364C915.982 715.512 918.335 715.372 920.645 714.947C918.766 712.642 916.888 710.319 915.009 708.014C914.967 707.97 914.928 707.925 914.891 707.877C913.938 706.698 912.976 705.527 912.023 704.347C911.973 700.731 912.388 697.121 913.258 693.611Z" fill="#F2F2F2"/>
<path d="M150.992 401.929H135.687V447.667H135.047L103.655 401.929H90.1611V474.656H105.538V428.882H106.07L137.711 474.656H150.992V401.929ZM178.966 475.686C187.027 475.686 192.247 472.17 194.911 467.092H195.337V474.656H209.683V437.866C209.683 424.869 198.675 419.4 186.53 419.4C173.462 419.4 164.868 425.65 162.773 435.594L176.764 436.73C177.794 433.108 181.026 430.444 186.459 430.444C191.608 430.444 194.556 433.037 194.556 437.511V437.724C194.556 441.24 190.827 441.701 181.345 442.625C170.55 443.619 160.855 447.241 160.855 459.422C160.855 470.217 168.561 475.686 178.966 475.686ZM183.299 465.245C178.647 465.245 175.308 463.079 175.308 458.924C175.308 454.663 178.824 452.568 184.151 451.822C187.453 451.361 192.851 450.579 194.662 449.372V455.16C194.662 460.878 189.939 465.245 183.299 465.245ZM270.319 420.111H254.304L243.011 459.138H242.443L231.115 420.111H215.134L234.204 474.656H251.25L270.319 420.111ZM301.063 475.721C314.557 475.721 323.648 469.152 325.779 459.031L311.788 458.108C310.261 462.263 306.354 464.429 301.312 464.429C293.748 464.429 288.954 459.422 288.954 451.29V451.254H326.099V447.099C326.099 428.562 314.877 419.4 300.459 419.4C284.408 419.4 274.003 430.799 274.003 447.632C274.003 464.926 284.266 475.721 301.063 475.721ZM288.954 441.879C289.273 435.665 293.996 430.693 300.708 430.693C307.278 430.693 311.823 435.38 311.859 441.879H288.954ZM360.545 496.247C376.134 496.247 387.214 489.145 387.214 475.189V420.111H372.192V429.272H371.624C369.6 424.834 365.161 419.4 356.035 419.4C344.067 419.4 333.947 428.704 333.947 447.277C333.947 465.423 343.783 473.875 356.07 473.875C364.77 473.875 369.636 469.507 371.624 464.997H372.263V474.976C372.263 482.469 367.469 485.38 360.9 485.38C354.224 485.38 350.85 482.469 349.607 479.166L335.616 481.048C337.427 489.642 345.843 496.247 360.545 496.247ZM360.864 462.511C353.442 462.511 349.394 456.616 349.394 447.206C349.394 437.937 353.371 431.439 360.864 431.439C368.215 431.439 372.334 437.653 372.334 447.206C372.334 456.829 368.144 462.511 360.864 462.511ZM414.806 475.686C422.867 475.686 428.087 472.17 430.751 467.092H431.177V474.656H445.523V437.866C445.523 424.869 434.515 419.4 422.37 419.4C409.302 419.4 400.708 425.65 398.613 435.594L412.604 436.73C413.634 433.108 416.866 430.444 422.299 430.444C427.448 430.444 430.395 433.037 430.395 437.511V437.724C430.395 441.24 426.667 441.701 417.185 442.625C406.39 443.619 396.695 447.241 396.695 459.422C396.695 470.217 404.401 475.686 414.806 475.686ZM419.138 465.245C414.486 465.245 411.148 463.079 411.148 458.924C411.148 454.663 414.664 452.568 419.991 451.822C423.293 451.361 428.691 450.579 430.502 449.372V455.16C430.502 460.878 425.779 465.245 419.138 465.245ZM486.273 420.111H476.01V407.042H460.882V420.111H453.425V431.474H460.882V459.883C460.811 470.572 468.091 475.863 479.064 475.402C482.97 475.26 485.74 474.478 487.267 473.981L484.888 462.724C484.142 462.866 482.544 463.221 481.123 463.221C478.105 463.221 476.01 462.085 476.01 457.895V431.474H486.273V420.111ZM496.127 474.656H511.255V420.111H496.127V474.656ZM503.726 413.079C508.236 413.079 511.93 409.635 511.93 405.409C511.93 401.219 508.236 397.774 503.726 397.774C499.252 397.774 495.559 401.219 495.559 405.409C495.559 409.635 499.252 413.079 503.726 413.079ZM548.018 475.721C564.566 475.721 574.865 464.393 574.865 447.596C574.865 430.693 564.566 419.4 548.018 419.4C531.47 419.4 521.171 430.693 521.171 447.596C521.171 464.393 531.47 475.721 548.018 475.721ZM548.089 464.003C540.454 464.003 536.548 457.007 536.548 447.49C536.548 437.973 540.454 430.942 548.089 430.942C555.582 430.942 559.488 437.973 559.488 447.49C559.488 457.007 555.582 464.003 548.089 464.003ZM599.829 443.122C599.865 436.091 604.055 431.971 610.163 431.971C616.235 431.971 619.893 435.949 619.857 442.625V474.656H634.985V439.926C634.985 427.213 627.528 419.4 616.164 419.4C608.068 419.4 602.208 423.378 599.758 429.734H599.119V420.111H584.701V474.656H599.829V443.122ZM102.697 595.656L108.094 579.072H134.337L139.735 595.656H156.212L131.141 522.929H111.326L86.2193 595.656H102.697ZM112.001 567.069L120.949 539.548H121.518L130.467 567.069H112.001ZM164.682 616.111H179.81V586.92H180.271C182.366 591.466 186.947 596.544 195.754 596.544C208.183 596.544 217.878 586.707 217.878 568.454C217.878 549.704 207.757 540.4 195.79 540.4C186.663 540.4 182.295 545.834 180.271 550.272H179.596V541.111H164.682V616.111ZM179.49 568.383C179.49 558.653 183.609 552.439 190.96 552.439C198.453 552.439 202.43 558.937 202.43 568.383C202.43 577.9 198.382 584.505 190.96 584.505C183.68 584.505 179.49 578.113 179.49 568.383ZM227.963 616.111H243.091V586.92H243.552C245.648 591.466 250.229 596.544 259.035 596.544C271.464 596.544 281.159 586.707 281.159 568.454C281.159 549.704 271.038 540.4 259.071 540.4C249.944 540.4 245.577 545.834 243.552 550.272H242.878V541.111H227.963V616.111ZM242.771 568.383C242.771 558.653 246.891 552.439 254.241 552.439C261.734 552.439 265.712 558.937 265.712 568.383C265.712 577.9 261.663 584.505 254.241 584.505C246.962 584.505 242.771 578.113 242.771 568.383Z" fill="white"/>
<path d="M800.656 742.005L790.861 744.596L786.667 735.81L784.634 746.242L758.656 753.113C757.411 753.442 756.093 753.365 754.894 752.892C753.696 752.419 752.68 751.576 751.995 750.485C751.311 749.394 750.992 748.113 751.087 746.829C751.182 745.544 751.685 744.323 752.522 743.345L769.479 723.531L767.006 714.182L789.172 709.713L800.656 742.005Z" fill="#2F2E41"/>
<path d="M800.656 742.005L790.861 744.596L786.667 735.81L784.634 746.242L758.656 753.113C757.411 753.442 756.093 753.365 754.894 752.892C753.696 752.419 752.68 751.576 751.995 750.485C751.311 749.394 750.992 748.113 751.087 746.829C751.182 745.544 751.685 744.323 752.522 743.345L769.479 723.531L767.006 714.182L789.172 709.713L800.656 742.005Z" fill="#2F2E41"/>
</svg>
