<svg width="375" height="333" viewBox="0 0 375 333" fill="none" xmlns="http://www.w3.org/2000/svg">
<path d="M0 262V262C1.41413 242.379 26.235 234.777 38.3945 250.241L68.4705 288.49C83.2156 307.242 110.922 309.178 128.133 292.66L149.2 272.44C169.488 252.968 199.796 248.285 225.016 260.724L228.425 262.406C246.629 271.385 267.77 272.29 286.675 264.9L290.657 263.343C304.618 257.886 319.808 256.363 334.574 258.942L375 266V333H0V262Z" fill="white"/>
<path d="M208.38 96.6399H98V27.9386H208.38V96.6399ZM100.568 94.0723H205.812V30.5062H100.568V94.0723Z" fill="#E5E5E5"/>
<path d="M206.548 29.7706H99.832V95.2659H206.548V29.7706Z" fill="white"/>
<path d="M206.548 46.37V42.3486H191.744V29.7706H187.724V42.3486H161.368V29.7706H157.348V42.3486H116.697V29.7706H112.677V42.3486H99.832V46.37H112.677V62.0088H99.832V66.0302H112.677V82.7861H99.832V86.8075H134.342V95.2659H138.363V86.8075H157.348V95.2659H161.368V86.8075H206.548V82.7861H161.368V66.0302H206.548V62.0088H191.744V46.37L206.548 46.37ZM157.348 46.37V51.2851H116.697V46.37H157.348ZM116.697 55.3065H157.348V62.0088H116.697V55.3065ZM116.697 82.7861V66.0302H134.342V82.7861L116.697 82.7861ZM157.348 82.7861H138.363V66.0302H157.348V82.7861ZM187.724 62.0088H161.368V46.37H187.724V62.0088Z" fill="#E6E6E6"/>
<path d="M178.61 19.4224C178.61 30.1492 159.144 54.0451 159.144 54.0451C159.144 54.0451 139.679 30.1492 139.679 19.4224C139.679 14.2713 141.73 9.33112 145.38 5.6887C149.031 2.04629 153.982 0 159.144 0C164.307 0 169.258 2.04629 172.908 5.6887C176.559 9.33112 178.61 14.2713 178.61 19.4224V19.4224Z" fill="#0075FF"/>
<path d="M168.075 18.7784C168.075 20.4995 167.565 22.182 166.609 23.6131C165.653 25.0441 164.294 26.1595 162.703 26.8182C161.113 27.4768 159.364 27.6491 157.676 27.3134C155.988 26.9776 154.437 26.1488 153.22 24.9318C152.003 23.7147 151.174 22.1642 150.838 20.4761C150.503 18.7881 150.675 17.0383 151.334 15.4482C151.992 13.8581 153.108 12.499 154.539 11.5428C155.97 10.5866 157.652 10.0762 159.373 10.0762C160.516 10.0757 161.648 10.3004 162.704 10.7376C163.76 11.1747 164.72 11.8157 165.528 12.6239C166.336 13.432 166.977 14.3916 167.414 15.4476C167.851 16.5036 168.076 17.6355 168.075 18.7784V18.7784Z" fill="white"/>
<path d="M159.602 68.2434C162.511 68.2434 164.869 65.7827 164.869 62.7473C164.869 59.7119 162.511 57.2512 159.602 57.2512C156.693 57.2512 154.335 59.7119 154.335 62.7473C154.335 65.7827 156.693 68.2434 159.602 68.2434Z" fill="#0075FF"/>
<path d="M213.617 102.412C213.806 103.044 214.132 103.628 214.57 104.121C215.009 104.614 215.551 105.005 216.158 105.266C216.764 105.527 217.42 105.652 218.08 105.633C218.74 105.613 219.388 105.448 219.977 105.151L231.646 115.8L233.195 107.605L221.87 98.7752C221.305 97.8178 220.408 97.101 219.35 96.7606C218.292 96.4201 217.145 96.4796 216.128 96.9278C215.111 97.376 214.293 98.1818 213.831 99.1925C213.368 100.203 213.292 101.349 213.617 102.412V102.412Z" fill="#FFB6B6"/>
<path d="M254.229 94.2721C254.229 94.2721 258.297 85.0776 263.436 86.9052C268.156 88.5839 268.783 88.0321 265.921 97.654L246.615 126.746C246.615 126.746 226.309 113.841 229.696 113.714C233.082 113.588 232.99 107.125 232.99 107.125L241.271 109.825L241.769 107.207L242.567 108.006L244.627 106.384L254.229 94.2721Z" fill="#0075FF"/>
<path d="M277.405 116.017L276.547 123.978L277.052 134.417L255.156 131.843L253.589 116.017L256.357 116.044L277.405 116.017Z" fill="#FFB6B6"/>
<path d="M281.576 261H276.719L272 223H282.5L281.576 261Z" fill="#FFB6B6"/>
<path d="M283.094 229.867V238.102C283.094 238.102 275.812 244.619 270.728 238.56L267.559 211.711C267.559 211.711 267.481 209.197 265.91 207.703C265.776 207.576 265.659 207.431 265.562 207.273C264.426 205.519 264.888 201.891 264.888 201.891C264.888 201.891 262.681 200.701 261.985 196.853C261.289 193.006 258.998 184.601 258.998 184.601C258.998 184.601 254.267 172.194 254.597 164.339C254.657 162.887 254.679 161.564 254.679 160.373C254.666 155.115 254.139 152.399 254.139 152.399L253.182 134.152L255.156 131.385L264.183 131.651L264.797 131.633L265.021 131.628L274.291 131.349L279.526 134.427C279.526 134.427 279.994 135.59 280.653 137.198C281.885 140.179 283.781 144.691 284.62 146.207C285.911 148.542 285.27 160.561 280.873 165.901C280.873 165.901 279.046 168.498 279.526 169.437C279.962 170.289 279.545 171.731 279.462 171.988V171.992C279.453 172.015 279.449 172.029 279.449 172.029L278.748 187.601C278.748 187.601 278.748 194.275 280.319 196.711C281.89 199.148 283.094 229.867 283.094 229.867Z" fill="#2F2E41"/>
<path d="M251.723 260.653L246.747 259.761L248.621 221.467L259.891 223.487L251.723 260.653Z" fill="#FFB6B6"/>
<path d="M280.873 165.901C280.873 165.901 279.046 168.498 279.527 169.437C279.962 170.289 279.545 171.731 279.463 171.988V171.993C278.958 172.391 278.423 172.751 277.864 173.069C277.864 173.069 275.217 174.828 275.327 175.876C275.432 176.925 274.31 178.263 274.31 178.263L268.003 192.516C268.003 192.516 265.576 198.736 266.157 201.575C266.336 202.446 266.047 204.639 265.562 207.273C264.476 213.236 260.547 234.254 260.547 234.254L257.446 241.766C257.446 241.766 245.845 238.546 245.538 237.644C245.538 237.644 249.66 208.542 248.739 206.581C247.819 204.621 248.272 198.882 249.023 195.049C249.77 191.211 250.791 169.267 253.951 162.072C254.208 161.486 254.451 160.918 254.68 160.373C257.231 154.231 257.863 150.778 257.863 150.778L263.597 133.433L264.183 131.651L264.316 132.301L265.022 131.628L275.336 135.301L280.653 137.198C281.885 140.179 283.782 144.691 284.62 146.207C285.911 148.542 285.27 160.561 280.873 165.901Z" fill="#2F2E41"/>
<path d="M252.488 257.179L246.935 255.84L246.093 255.637L245.484 259.043L236.989 262.909C236.569 263.099 236.221 263.419 235.995 263.821C235.77 264.224 235.68 264.687 235.738 265.145C235.795 265.602 235.998 266.029 236.316 266.363C236.634 266.697 237.05 266.92 237.504 267L246.965 268.699L249.202 265.621L249.234 269.106L252.805 269.743L253.958 257.533L252.488 257.179Z" fill="#2F2E41"/>
<path d="M267.632 80.6428C273.209 80.6428 277.73 76.1217 277.73 70.5447C277.73 64.9677 273.209 60.4466 267.632 60.4466C262.055 60.4466 257.533 64.9677 257.533 70.5447C257.533 76.1217 262.055 80.6428 267.632 80.6428Z" fill="#FFB7B7"/>
<path d="M257.272 89.8536L262.767 86.5569L265.232 82.3785H271.644L273.756 85.4581L283.468 90.4039L283.371 105.513L278.972 128.179L253.782 120.851L252.236 112.359C252.236 112.359 243.262 102.765 250.954 97.271L257.272 89.8536Z" fill="#0075FF"/>
<path d="M280.792 155.088C281.314 154.766 281.759 154.334 282.096 153.822C282.433 153.31 282.654 152.73 282.742 152.123C282.831 151.517 282.785 150.898 282.609 150.311C282.433 149.723 282.13 149.182 281.722 148.724L285.265 110.688L276.171 111.39L275.547 148.558C274.824 149.295 274.397 150.271 274.345 151.302C274.294 152.333 274.623 153.347 275.269 154.152C275.915 154.957 276.835 155.497 277.853 155.669C278.87 155.842 279.916 155.635 280.792 155.088H280.792Z" fill="#FFB6B6"/>
<path d="M283.553 90.1646C283.553 90.1646 283.553 90.6226 285.07 94.9222C286.369 98.6054 288.67 121.233 284.182 126.756C285.433 127.527 283.551 141.825 283.095 143.294L273.934 141.004C272.699 138.88 274.014 123.972 274.912 123.619L274.859 116.831L272.515 94.457L281.542 90.7591L283.553 90.1646Z" fill="#0075FF"/>
<path d="M218.797 108.165L216.486 93.3584C216.408 92.8517 216.534 92.3345 216.836 91.9204C217.138 91.5063 217.592 91.229 218.099 91.1495L221.326 90.6459C221.833 90.5674 222.35 90.6932 222.764 90.9955C223.178 91.2978 223.455 91.7521 223.535 92.2586L225.845 107.066C225.924 107.572 225.798 108.089 225.496 108.504C225.193 108.918 224.739 109.195 224.233 109.275L221.006 109.778C220.499 109.857 219.982 109.731 219.568 109.428C219.153 109.126 218.876 108.672 218.797 108.165Z" fill="#3F3D56"/>
<path d="M218.595 91.8458C218.322 91.8887 218.077 92.0381 217.914 92.2613C217.751 92.4844 217.683 92.7631 217.726 93.0361L220.036 107.843C220.079 108.116 220.228 108.361 220.451 108.524C220.675 108.687 220.953 108.754 221.226 108.712L224.453 108.209C224.726 108.166 224.971 108.016 225.134 107.793C225.297 107.57 225.365 107.291 225.322 107.018L223.012 92.2113C222.969 91.9383 222.82 91.6936 222.597 91.5306C222.373 91.3677 222.095 91.3 221.822 91.3423L218.595 91.8458Z" fill="#0075FF"/>
<path d="M282.636 75.1835V76.3155C282.637 77.046 282.491 77.7691 282.207 78.4423C281.923 79.1154 281.508 79.725 280.985 80.2349C280.462 80.7449 279.842 81.145 279.162 81.4117C278.481 81.6783 277.755 81.8061 277.025 81.7875L269.587 81.5515C269.5 80.8151 269.257 80.1057 268.874 79.4706C268.926 80.169 268.827 80.8703 268.585 81.5274L265.295 81.4456C267.904 75.6971 268.921 70.8105 265.295 68.4397H260.42C260.323 67.741 260.085 67.0693 259.722 66.4647C259.773 67.1339 259.685 67.8065 259.462 68.4397H254.698C254.698 66.0125 255.663 63.6849 257.379 61.9686C259.095 60.2524 261.423 59.2879 263.85 59.2874H265.295C276.191 56.5465 281.943 62.404 282.636 75.1835Z" fill="#2F2E41"/>
<path d="M332.205 262.5C333.469 260.547 335.874 256.542 335.997 256.295C336.686 254.916 335.537 255.95 335.307 255.95L331.171 262.155L332.205 262.5Z" fill="#F2F2F2"/>
<path d="M326.786 248.056C327.02 248.067 327.251 248.006 327.449 247.881C327.646 247.755 327.801 247.573 327.891 247.357C327.981 247.141 328.003 246.903 327.953 246.674C327.904 246.445 327.785 246.238 327.613 246.079C327.584 245.965 327.564 245.882 327.535 245.768C327.545 245.743 327.555 245.718 327.566 245.693C327.801 245.137 328.196 244.663 328.7 244.331C329.204 243.998 329.795 243.822 330.399 243.824C331.003 243.826 331.592 244.007 332.094 244.343C332.595 244.68 332.986 245.157 333.218 245.714C334.142 247.941 335.319 250.171 335.609 252.525C335.736 253.565 335.683 254.62 335.45 255.642C337.621 250.906 338.748 245.759 338.755 240.549C338.756 239.241 338.683 237.935 338.538 236.636C338.418 235.571 338.251 234.513 338.038 233.463C336.874 227.766 334.376 222.426 330.748 217.883C328.992 216.924 327.572 215.451 326.679 213.661C326.355 213.018 326.127 212.331 326 211.622C326.198 211.648 326.399 211.664 326.598 211.677C326.659 211.68 326.724 211.683 326.786 211.687L326.809 211.688C327.027 211.697 327.243 211.644 327.431 211.534C327.619 211.424 327.771 211.262 327.869 211.067C327.967 210.873 328.007 210.654 327.984 210.437C327.96 210.221 327.875 210.015 327.738 209.846C327.652 209.741 327.566 209.636 327.481 209.53C327.351 209.368 327.218 209.209 327.088 209.047C327.073 209.031 327.059 209.015 327.046 208.998C326.896 208.813 326.747 208.631 326.598 208.446C326.87 208.023 327.237 207.668 327.669 207.41C329.166 206.533 331.231 207.14 332.313 208.495C333.397 209.849 333.602 211.748 333.225 213.44C332.855 214.88 332.242 216.246 331.413 217.48C331.494 217.584 331.579 217.684 331.66 217.788C333.144 219.697 334.438 221.746 335.522 223.906C335.258 221.486 335.573 219.037 336.44 216.762C337.319 214.642 338.966 212.856 340.417 211.023C342.16 208.821 345.733 209.782 346.04 212.573C346.043 212.6 346.046 212.627 346.049 212.654C345.833 212.776 345.623 212.905 345.416 213.041C345.157 213.215 344.956 213.462 344.84 213.752C344.724 214.041 344.697 214.359 344.765 214.663C344.832 214.967 344.99 215.244 345.218 215.458C345.445 215.671 345.732 215.81 346.04 215.858L346.072 215.863C345.995 216.639 345.859 217.409 345.666 218.165C345.105 220.276 344.115 222.248 342.756 223.958C341.398 225.668 339.701 227.079 337.772 228.102C337.645 228.167 337.521 228.232 337.395 228.293C338.484 231.381 339.168 234.597 339.428 237.86C339.575 239.785 339.566 241.719 339.402 243.643L339.411 243.575C339.827 241.436 340.968 239.505 342.642 238.11C345.129 236.067 348.642 235.315 351.324 233.673C351.61 233.49 351.941 233.393 352.28 233.392C352.619 233.391 352.951 233.487 353.236 233.669C353.522 233.85 353.751 234.11 353.894 234.417C354.037 234.724 354.09 235.066 354.045 235.402C354.041 235.425 354.038 235.449 354.034 235.473C353.634 235.636 353.245 235.824 352.868 236.035C352.653 236.157 352.442 236.286 352.235 236.422C351.976 236.595 351.775 236.843 351.659 237.132C351.543 237.422 351.517 237.739 351.584 238.044C351.652 238.348 351.81 238.625 352.037 238.838C352.265 239.051 352.551 239.191 352.859 239.238L352.891 239.243C352.914 239.247 352.933 239.25 352.956 239.253C352.273 240.884 351.314 242.386 350.121 243.692C348.648 245.273 346.867 246.536 344.888 247.405C342.909 248.273 340.774 248.728 338.613 248.742H338.609C338.023 251.291 337.173 253.772 336.073 256.146H327.013C326.981 256.045 326.951 255.941 326.922 255.84C327.761 255.893 328.603 255.843 329.429 255.691C328.757 254.866 328.085 254.035 327.413 253.21C327.398 253.195 327.383 253.178 327.37 253.161C327.029 252.739 326.685 252.32 326.344 251.898C326.326 250.604 326.475 249.312 326.786 248.056Z" fill="#F2F2F2"/>
<path d="M54.1747 143.818H48.6648V160.284H48.4347L37.1335 143.818H32.2756V170H37.8111V153.521H38.0028L49.3935 170H54.1747V143.818ZM64.2454 170.371C67.1474 170.371 69.0266 169.105 69.9854 167.277H70.1389V170H75.3036V156.756C75.3036 152.077 71.3406 150.108 66.9684 150.108C62.2638 150.108 59.1701 152.358 58.4158 155.938L63.4528 156.347C63.8235 155.043 64.9869 154.084 66.9428 154.084C68.7965 154.084 69.8576 155.017 69.8576 156.628V156.705C69.8576 157.97 68.5153 158.136 65.1019 158.469C61.2156 158.827 57.7255 160.131 57.7255 164.516C57.7255 168.402 60.4996 170.371 64.2454 170.371ZM65.805 166.612C64.1303 166.612 62.9286 165.832 62.9286 164.337C62.9286 162.803 64.1942 162.048 66.1119 161.78C67.3008 161.614 69.244 161.332 69.896 160.898V162.982C69.896 165.04 68.1957 166.612 65.805 166.612ZM97.1325 150.364H91.3668L87.3015 164.413H87.0969L83.0188 150.364H77.266L84.131 170H90.2674L97.1325 150.364ZM108.2 170.384C113.058 170.384 116.331 168.018 117.098 164.375L112.061 164.043C111.511 165.538 110.105 166.318 108.29 166.318C105.567 166.318 103.841 164.516 103.841 161.588V161.575H117.213V160.08C117.213 153.406 113.173 150.108 107.983 150.108C102.205 150.108 98.4588 154.212 98.4588 160.271C98.4588 166.497 102.153 170.384 108.2 170.384ZM103.841 158.2C103.956 155.963 105.656 154.173 108.072 154.173C110.438 154.173 112.074 155.861 112.087 158.2H103.841ZM129.614 177.773C135.226 177.773 139.214 175.216 139.214 170.192V150.364H133.807V153.662H133.602C132.874 152.064 131.276 150.108 127.99 150.108C123.682 150.108 120.038 153.457 120.038 160.143C120.038 166.676 123.58 169.719 128.003 169.719C131.135 169.719 132.886 168.146 133.602 166.523H133.832V170.115C133.832 172.812 132.107 173.861 129.741 173.861C127.338 173.861 126.124 172.812 125.676 171.624L120.639 172.301C121.291 175.395 124.321 177.773 129.614 177.773ZM129.729 165.628C127.057 165.628 125.599 163.506 125.599 160.118C125.599 156.781 127.031 154.442 129.729 154.442C132.375 154.442 133.858 156.679 133.858 160.118C133.858 163.582 132.349 165.628 129.729 165.628ZM149.148 170.371C152.05 170.371 153.929 169.105 154.888 167.277H155.041V170H160.206V156.756C160.206 152.077 156.243 150.108 151.871 150.108C147.166 150.108 144.072 152.358 143.318 155.938L148.355 156.347C148.726 155.043 149.889 154.084 151.845 154.084C153.699 154.084 154.76 155.017 154.76 156.628V156.705C154.76 157.97 153.418 158.136 150.004 158.469C146.118 158.827 142.628 160.131 142.628 164.516C142.628 168.402 145.402 170.371 149.148 170.371ZM150.707 166.612C149.033 166.612 147.831 165.832 147.831 164.337C147.831 162.803 149.097 162.048 151.014 161.78C152.203 161.614 154.146 161.332 154.798 160.898V162.982C154.798 165.04 153.098 166.612 150.707 166.612ZM174.876 150.364H171.181V145.659H165.735V150.364H163.05V154.455H165.735V164.682C165.71 168.53 168.33 170.435 172.281 170.268C173.687 170.217 174.684 169.936 175.234 169.757L174.377 165.705C174.109 165.756 173.533 165.884 173.022 165.884C171.935 165.884 171.181 165.474 171.181 163.966V154.455H174.876V150.364ZM178.423 170H183.869V150.364H178.423V170ZM181.159 147.832C182.783 147.832 184.112 146.592 184.112 145.071C184.112 143.562 182.783 142.322 181.159 142.322C179.548 142.322 178.219 143.562 178.219 145.071C178.219 146.592 179.548 147.832 181.159 147.832ZM197.104 170.384C203.061 170.384 206.769 166.305 206.769 160.259C206.769 154.173 203.061 150.108 197.104 150.108C191.147 150.108 187.439 154.173 187.439 160.259C187.439 166.305 191.147 170.384 197.104 170.384ZM197.13 166.165C194.381 166.165 192.975 163.646 192.975 160.22C192.975 156.794 194.381 154.263 197.13 154.263C199.827 154.263 201.233 156.794 201.233 160.22C201.233 163.646 199.827 166.165 197.13 166.165ZM215.756 158.648C215.769 156.116 217.277 154.634 219.476 154.634C221.662 154.634 222.979 156.065 222.966 158.469V170H228.412V157.497C228.412 152.92 225.728 150.108 221.637 150.108C218.722 150.108 216.613 151.54 215.73 153.828H215.5V150.364H210.31V170H215.756V158.648ZM36.7884 214L38.7315 208.03H48.179L50.1222 214H56.054L47.0284 187.818H39.8949L30.8565 214H36.7884ZM40.1378 203.709L43.3594 193.801H43.5639L46.7855 203.709H40.1378ZM59.103 221.364H64.549V210.855H64.7152C65.4695 212.491 67.1186 214.32 70.2891 214.32C74.7635 214.32 78.2536 210.778 78.2536 204.207C78.2536 197.457 74.6101 194.108 70.3018 194.108C67.0163 194.108 65.4439 196.064 64.7152 197.662H64.4723V194.364H59.103V221.364ZM64.4339 204.182C64.4339 200.679 65.9169 198.442 68.5632 198.442C71.2607 198.442 72.6925 200.781 72.6925 204.182C72.6925 207.608 71.2351 209.986 68.5632 209.986C65.9425 209.986 64.4339 207.685 64.4339 204.182ZM81.8842 221.364H87.3303V210.855H87.4964C88.2507 212.491 89.8999 214.32 93.0703 214.32C97.5447 214.32 101.035 210.778 101.035 204.207C101.035 197.457 97.3913 194.108 93.0831 194.108C89.7976 194.108 88.2251 196.064 87.4964 197.662H87.2536V194.364H81.8842V221.364ZM87.2152 204.182C87.2152 200.679 88.6982 198.442 91.3445 198.442C94.0419 198.442 95.4737 200.781 95.4737 204.182C95.4737 207.608 94.0163 209.986 91.3445 209.986C88.7237 209.986 87.2152 207.685 87.2152 204.182Z" fill="white"/>
<path d="M286.494 265.373L282.989 266.3L281.489 263.156L280.761 266.889L271.466 269.348C271.02 269.465 270.548 269.438 270.12 269.269C269.691 269.1 269.327 268.798 269.082 268.407C268.837 268.017 268.723 267.559 268.757 267.099C268.791 266.639 268.971 266.203 269.271 265.852L275.338 258.762L274.454 255.417L282.385 253.818L286.494 265.373Z" fill="#2F2E41"/>
</svg>
