<svg xmlns="http://www.w3.org/2000/svg"  viewBox="0 0 212 96">
  <path fill="#FFF"  fill-rule="evenodd" d="M164.93250545 95.15914446c1.37603052.42264916 2.23469876-1.455767 1.01472792-2.21981116 0 0-7.93246813-4.96795148-9.83626048-7.74728032-1.90379236-2.77932884-.44727283-5.03054378-.44727283-5.03054378.25981249-.40156946.76760532-.56294247 1.21157327-.38502952 0 0 2.40868681.96524217 4.31247916-.306281 1.90379236-1.27152318.52036991-.49970861 4.44218216-9.53642385 1.69636996-3.9088083 1.66176805-7.44223927 2.80318361-10.93237235 1.49740594-4.5786532 4.721117-8.00513826 4.721117-8.00513826.39379427-.41856425 1.05852163-.41987092 1.45395841-.00285808l10.24852552 10.80771152c.503393.53085942.28503511 1.4048656-.40887972 1.63659485l-4.22216345 1.4099696 13.96114391 5.08609272s15.86493627 12.5900677 17.76872862 9.53642385c.55602884-.89185885-4.24867885-4.47958667-6.3459745-7.62913908-5.08365456-7.63422957-11.42275412-17.8013245-11.42275412-17.8013245s-12.05735156-10.80794702-20.30711842-10.80794702c-3.8075847 0-8.24976686 5.08609271-8.24976686 5.08609271s-1.1689285-10.64531165-13.32654647-25.18263616C140.14577022 8.59792013 133.26546466 0 126.2848927 0c-6.98057196 0-14.15617933 17.1726498-18.01900915 23.13524463C99.45453896 36.73627808 91.3820329 48.3178808 91.3820329 48.3178808S71.07491449 29.24503311 64.69059007 27.33774834C54.52760354 24.3016073 38.7104445 62.94039735 38.7104445 62.94039735s-4.2803995-4.65663984-9.01003737-6.70271393c-2.86773916-1.2406038-6.77088257-.29066355-7.48949635-.29066355-.81967989 0-10.42882243 5.8483123-15.38384078 13.90172011C.27353943 80.50021501 0 94.09271523 0 94.09271523s4.65223391-8.63944517 12.69194902-17.6761604c8.0397151-9.03671524 11.4227541-11.56887271 11.4227541-11.56887271l2.53838981 5.08609271s6.98057196 6.48278 6.98057196 9.53642385C33.63366489 82.52384253 24.11470313 96 24.11470313 96l38.07584704-19.58344517c0-2.70193121-5.00645308-1.86261736-7.53512778-2.40179527-3.61799077-.77144786-12.46032726-6.05826358-12.46032726-6.05826358-.50701355-.30314241-.64215542-.97738627-.29113319-1.45250884 0 0 5.84302879-7.90877196 7.59463922-10.55696727 1.75161043-2.64819531 9.53291512-17.88624426 9.53291512-17.88624426.42525557-.8327736 1.65896926-.67833644 1.86582512.23356532 0 0 .85188949 3.75546305 3.79324867 10.04187365 2.94135919 6.2864106 5.11512951 7.61080529 5.11512951 7.61080529s.27801034 5.26092715 4.3959132 10.17218543c4.11790286 4.91125828 8.93063327 5.7218543 8.93063327 5.7218543v13.35099338s3.01561486-3.27488888 5.3687022-8.77549815c2.35308735-5.50060928 2.88106466-9.02582635 2.88106466-9.02582635l1.90379235-8.26490067 10.78815666-8.90066225S122.477308 19.07284768 123.11190545 18.4370861c.63459745-.63576159 1.90379235-1.90728477 3.17298725-1.27152318 1.2691949.6357616 1.2478488 10.44395563 2.85787295 14.11944194 4.03277527 9.2063279 8.29696827 17.23987249 8.29696827 17.23987249.37969848.71533459-.20395542 1.56172628-1.00753968 1.46109398l-11.61710873-1.45480247c-.76038223-.09522214-1.34090164.66509778-1.04871804 1.37353064l5.37639818 13.03569786s2.93536718 5.06447682 6.66108881 10.17218543c3.72572164 5.10770861 4.44218216 10.17218543 10.67540486 14.85879904 7.8436245 3.92900663 18.45324613 7.18776264 18.45324613 7.18776264z"/>
</svg>
