<svg width="200" height="200" viewBox="0 0 200 200" fill="none" xmlns="http://www.w3.org/2000/svg">
<mask id="mask0_123_429" style="mask-type:alpha" maskUnits="userSpaceOnUse" x="0" y="0" width="200" height="200">
<circle cx="100" cy="100" r="100" fill="#C4C4C4"/>
</mask>
<g mask="url(#mask0_123_429)">
<circle cx="100" cy="100" r="99.5" fill="#B21E35" stroke="#FF5E5E"/>
<path d="M36.3077 130C36.3077 130 18.9262 295.303 23.8924 297.795C28.8585 300.287 42.1016 303.609 44.5846 301.117C47.0677 298.625 57 196.453 57 196.453L49.5508 143.291L36.3077 130Z" fill="#FF0000"/>
<path d="M79.5375 82C79.5375 82 77.8859 118.158 66.3252 120.624C54.7645 123.089 77.0602 165 77.0602 165L111.742 161.713L120 112.406C120 112.406 101.007 109.119 107.614 83.6435L79.5375 82Z" fill="#F0A8A8"/>
<path d="M97 98C110.255 98 121 87.2548 121 74C121 60.7451 110.255 50 97 50C83.7451 50 73 60.7451 73 74C73 87.2548 83.7451 98 97 98Z" fill="#FFB9B9"/>
<path d="M72.6471 132.806C72.6471 132.806 81.7059 146.075 93.2353 136.952C104.765 127.829 111.353 127 111.353 127L125.353 135.294L122.059 167.638L127 257.209C127 257.209 66.8824 262.185 63.5882 255.55C60.2941 248.915 67.7059 220.717 67.7059 220.717L57 160.174V132.806H72.6471Z" fill="#FF8787"/>
<path d="M91.4915 157.26C91.4915 157.26 76.6187 111.874 71.661 111.049C66.7034 110.224 52.6568 120.126 52.6568 120.126C52.6568 120.126 32 126.728 32 130.854C32 134.98 35.3051 134.98 35.3051 134.98L46.8729 157.26C46.8729 157.26 51.8306 177.065 50.178 190.268C49.1814 198.204 48.9048 206.214 49.3518 214.199C49.3518 214.199 31.1737 323.126 40.2627 326.427C49.3517 329.727 49.3518 333.028 49.3518 333.028C49.3518 333.028 62.5721 340.455 65.0508 337.154C67.5296 333.854 91.4915 191.919 91.4915 191.919C91.4915 191.919 103.886 167.988 91.4915 157.26Z" fill="#FF0000"/>
<path d="M95.0574 157.229C95.0574 157.229 102.446 139.884 98.3414 128.321C98.3414 128.321 102.446 127.495 104.088 125.017C105.73 122.539 104.088 110.15 108.193 109.324C112.298 108.498 142.675 109.324 144.317 110.976C145.959 112.628 150.885 124.191 150.885 124.191H148.422L130.36 153.926C130.36 153.926 139.391 210.091 137.749 219.176C136.107 228.262 161.558 266.256 164.842 268.733C168.126 271.211 182.904 310.857 176.336 314.987C169.768 319.117 112.298 345.547 109.835 332.332C107.372 319.117 90.1314 239.825 90.1314 239.825C90.1314 239.825 89.3104 196.049 91.7734 185.312C94.2364 174.575 95.0574 157.229 95.0574 157.229Z" fill="#FF0000"/>
<path d="M144.555 116C147.179 119.288 149.379 122.898 151.104 126.744C153.56 132.53 171.57 202.781 155.197 244.932C155.197 244.932 153.56 297 151.922 297C150.285 297 130.637 296.174 131.456 290.388C132.275 284.603 133.912 191.21 133.912 185.425C133.912 179.639 129 140.795 129 140.795L144.555 116Z" fill="#FF0000"/>
<path d="M83.047 31.7739C74.3718 34.4886 67.8943 41.5821 61.8572 48.3826C59.5093 50.7871 57.5178 53.5158 55.9434 56.4857C54.4094 60.2716 53.5992 64.3121 53.5551 68.3972C53.1524 74.7284 53.0237 81.0692 53.169 87.4196C53.3086 93.5028 53.6806 99.7387 51.8123 105.529C50.006 111.127 46.2458 115.86 43.663 121.144C39.5427 129.574 38.5918 139.804 42.3952 148.382C44.4887 153.103 47.8766 157.122 50.4081 161.623C54.8841 169.64 56.5421 178.928 55.1167 188L67.0229 172.563C74.6487 162.677 82.5155 152.259 84.6609 139.955C87.7727 122.108 78.2607 104.628 76.3837 86.609C75.8603 81.5845 76.0363 76.1584 78.8777 71.9832C83.0721 65.8202 92.1949 63.643 94.717 56.6263C95.0818 59.5649 112.669 68.9228 114.787 67.1025C116.09 70.6206 116.468 74.4146 115.887 78.1211C115.305 81.8276 113.782 85.3227 111.464 88.2715C109.762 90.3869 107.67 92.1668 106.009 94.3154C101.709 99.88 100.731 107.383 101.338 114.392C101.945 121.4 103.961 128.206 105.027 135.16C105.927 142.083 106.358 149.059 106.314 156.041C106.393 160.874 106.261 166.267 102.874 169.713C108.428 167.765 113.502 164.653 117.757 160.584C120.066 158.069 122.546 155.716 125.18 153.543C130.506 149.697 137.722 148.556 142.067 143.628C145.946 139.227 146.564 132.771 145.653 126.974C144.742 121.177 142.52 115.661 141.402 109.9C139.989 102.573 140.384 95.011 142.553 87.8709C144.134 82.6851 146.658 77.6864 146.967 72.2731C147.597 61.2321 139.091 51.9968 130.913 44.5599C118.661 33.4188 99.6867 26.5671 83.047 31.7739Z" fill="#2F2E41"/>
</g>
</svg>
