<svg width="280" height="186" viewBox="0 0 280 186" fill="none" xmlns="http://www.w3.org/2000/svg">
<g clip-path="url(#clip0_123_373)">
<path d="M100.436 107.045C110.032 90.1721 128.336 77.2167 147.712 78.4647C133.419 94.0005 125.085 114.089 124.184 135.176C123.866 143.309 124.359 152.389 118.956 158.479C115.595 162.268 110.456 164.104 105.404 164.489C100.352 164.874 95.3007 163.961 90.3159 163.053L89.1067 163.424C88.6463 144.021 90.8405 123.917 100.436 107.045Z" fill="#F0F0F0"/>
<path d="M147.741 78.8711C133.412 85.7658 121.195 97.2809 113.695 111.324C112.073 114.36 110.693 117.581 110.09 120.987C109.488 124.394 109.909 127.638 111.073 130.874C112.137 133.832 113.569 136.735 113.895 139.901C114.239 143.237 113.011 146.357 110.8 148.833C108.095 151.863 104.462 153.74 100.846 155.452C96.8308 157.354 92.6301 159.265 89.7862 162.813C89.4416 163.243 88.7943 162.684 89.1384 162.254C94.0863 156.081 102.556 154.92 108.429 149.947C111.17 147.626 113.227 144.466 113.097 140.763C112.984 137.525 111.51 134.53 110.407 131.544C109.248 128.408 108.67 125.256 109.086 121.913C109.511 118.493 110.768 115.211 112.305 112.147C115.771 105.236 120.513 98.8917 125.947 93.4072C132.191 87.103 139.468 81.9129 147.464 78.0616C147.959 77.8234 148.232 78.6344 147.741 78.8711Z" fill="white"/>
<path d="M115.892 106.631C113.695 105.025 112.141 102.692 111.507 100.047C110.873 97.4016 111.2 94.6172 112.43 92.191C112.68 91.7009 113.454 92.0671 113.203 92.5578C112.054 94.815 111.749 97.4087 112.345 99.8706C112.94 102.332 114.397 104.501 116.451 105.983C116.897 106.306 116.335 106.952 115.892 106.631Z" fill="white"/>
<path d="M110.335 129.445C115.84 128.641 120.838 125.793 124.335 121.468C124.681 121.04 125.329 121.599 124.983 122.027C121.336 126.52 116.128 129.474 110.398 130.298C109.852 130.376 109.792 129.522 110.335 129.445V129.445Z" fill="white"/>
<path d="M132.614 88.1554C133.334 88.9536 134.242 89.5605 135.255 89.9215C136.268 90.2825 137.355 90.3864 138.418 90.2237C138.963 90.1387 139.022 90.9924 138.48 91.0768C137.305 91.2511 136.105 91.1349 134.985 90.7385C133.864 90.3421 132.859 89.6776 132.055 88.803C131.972 88.7269 131.921 88.6221 131.913 88.5101C131.905 88.398 131.94 88.2871 132.01 88.1997C132.085 88.1144 132.19 88.0618 132.303 88.0535C132.416 88.0452 132.528 88.0819 132.614 88.1554Z" fill="white"/>
<path d="M186.265 131.692C185.926 131.754 185.587 131.817 185.245 131.886C180.696 132.754 176.224 133.99 171.874 135.581C171.536 135.699 171.195 135.823 170.861 135.95C160.423 139.896 150.808 145.744 142.506 153.198C139.205 156.168 136.135 159.383 133.322 162.818C129.438 167.562 125.604 173.014 120.528 176.107C120.002 176.436 119.456 176.732 118.894 176.993L89.6534 164.87C89.6008 164.809 89.5451 164.754 89.4921 164.693L88.3025 164.263C88.4352 164.075 88.5768 163.884 88.7095 163.697C88.7861 163.588 88.8691 163.481 88.9456 163.372C88.9987 163.301 89.0521 163.229 89.0959 163.161C89.1135 163.137 89.1314 163.113 89.1462 163.096C89.19 163.028 89.2379 162.97 89.2789 162.909C90.0677 161.837 90.8654 160.769 91.6721 159.704C91.6748 159.697 91.6748 159.697 91.6841 159.693C97.851 151.597 104.748 143.945 112.588 137.582C112.824 137.391 113.063 137.192 113.312 137.007C116.862 134.158 120.639 131.604 124.605 129.371C126.78 128.155 129.016 127.05 131.303 126.06C137.219 123.513 143.498 121.912 149.911 121.316C162.695 120.13 175.717 123.043 185.522 131.071C185.772 131.276 186.017 131.479 186.265 131.692Z" fill="#F0F0F0"/>
<path d="M186.045 132.035C170.452 128.917 153.761 130.759 139.314 137.458C136.19 138.906 133.148 140.647 130.616 143.004C128.082 145.362 126.465 148.205 125.445 151.489C124.513 154.492 123.908 157.671 122.261 160.395C120.526 163.266 117.667 165.018 114.41 165.665C110.425 166.456 106.394 165.768 102.475 164.959C98.1241 164.061 93.6188 163.059 89.2107 164.181C88.6766 164.317 88.4969 163.48 89.0302 163.345C96.6995 161.393 104.161 165.563 111.846 165.127C115.432 164.923 118.978 163.638 121.105 160.604C122.965 157.95 123.592 154.672 124.51 151.623C125.473 148.422 126.911 145.557 129.256 143.138C131.655 140.664 134.636 138.8 137.708 137.278C144.638 133.846 152.247 131.635 159.888 130.526C168.671 129.25 177.608 129.486 186.311 131.222C186.85 131.33 186.58 132.142 186.045 132.035V132.035Z" fill="white"/>
<path d="M143.895 135.033C143.108 132.429 143.272 129.63 144.359 127.137C145.446 124.643 147.385 122.617 149.828 121.42C150.323 121.179 150.72 121.937 150.225 122.178C147.947 123.289 146.142 125.176 145.134 127.5C144.127 129.825 143.984 132.432 144.731 134.852C144.893 135.378 144.055 135.556 143.895 135.033Z" fill="white"/>
<path d="M125.717 149.905C130.596 152.575 136.303 153.31 141.7 151.961C142.234 151.827 142.414 152.663 141.88 152.797C136.262 154.19 130.325 153.414 125.254 150.624C124.77 150.357 125.237 149.64 125.717 149.905Z" fill="white"/>
<path d="M168.375 130.345C168.469 131.416 168.828 132.446 169.42 133.344C170.011 134.242 170.816 134.979 171.763 135.489C172.249 135.749 171.782 136.466 171.299 136.208C170.256 135.64 169.367 134.825 168.712 133.834C168.056 132.844 167.653 131.708 167.538 130.525C167.518 130.415 167.541 130.301 167.602 130.206C167.663 130.112 167.757 130.044 167.866 130.017C167.977 129.994 168.093 130.015 168.188 130.076C168.283 130.138 168.35 130.234 168.375 130.345Z" fill="white"/>
<path d="M130.563 151.693C126.468 131.901 121.35 125.302 121.35 125.302L119.394 123.787L117.042 121.961L117.054 121.726L116.496 121.536L116.365 121.435L116.15 121.27L116.116 121.307L116.043 121.382L105.401 117.767L91.9005 113.183L85.6488 105.06C84.6307 103.738 83.3198 102.668 81.8191 101.937C80.3184 101.205 78.6685 100.831 76.9987 100.843L57.033 100.991C54.3333 101.011 51.7389 102.039 49.7596 103.874L36.6364 116.042L16.1879 125.804L16.1534 125.769L15.9386 125.923L12.7792 127.433L12.9095 128.111L10.954 129.522C10.954 129.522 5.8352 135.662 1.74013 154.078C0.698389 158.763 0.185607 168.815 0.000520133 181.202C-0.00877676 181.829 0.10664 182.451 0.340056 183.032C0.573473 183.614 0.920234 184.143 1.36018 184.59C1.80012 185.036 2.32446 185.391 2.90273 185.633C3.48099 185.875 4.10163 186 4.72857 186H113.948V186H127.58C128.206 186 128.827 185.875 129.404 185.633C129.982 185.391 130.506 185.037 130.946 184.591C131.386 184.145 131.733 183.617 131.967 183.036C132.201 182.455 132.317 181.833 132.308 181.207C132.127 167.728 131.615 156.775 130.563 151.693Z" fill="#3F3D56"/>
<path d="M144.577 17.2601C140.328 17.2601 136.252 18.9474 133.248 21.9508C130.243 24.9542 128.555 29.0277 128.555 33.2752C128.555 37.5226 130.243 41.5961 133.248 44.5996C136.252 47.603 140.328 49.2902 144.577 49.2902H263.978C268.227 49.2902 272.303 47.603 275.307 44.5996C278.312 41.5961 280 37.5226 280 33.2752C280 29.0277 278.312 24.9542 275.307 21.9508C272.303 18.9474 268.227 17.2601 263.978 17.2601H144.577Z" fill="#E5E5E5"/>
<path d="M144.577 20.5012C141.187 20.5012 137.937 21.847 135.54 24.2426C133.144 26.6382 131.797 29.8873 131.797 33.2751C131.797 36.663 133.144 39.9121 135.54 42.3077C137.937 44.7032 141.187 46.0491 144.577 46.0491H263.978C267.367 46.0491 270.618 44.7032 273.014 42.3077C275.411 39.9121 276.757 36.663 276.757 33.2751C276.757 29.8873 275.411 26.6382 273.014 24.2426C270.618 21.847 267.367 20.5012 263.978 20.5012H144.577Z" fill="white"/>
<path d="M70.1513 93.3454C84.5975 93.3454 96.3084 81.6394 96.3084 67.1994C96.3084 52.7594 84.5975 41.0535 70.1513 41.0535C55.7051 41.0535 43.9941 52.7594 43.9941 67.1994C43.9941 81.6394 55.7051 93.3454 70.1513 93.3454Z" fill="#9E616A"/>
<path d="M63.4598 92.065C63.3481 91.8191 63.2366 91.5723 63.1255 91.3247C63.1683 91.3261 63.2107 91.3322 63.2535 91.3334L63.4598 92.065Z" fill="#2F2E41"/>
<path d="M43.2668 42.2424C44.5897 41.1875 46.1359 40.2169 47.8274 40.2715C49.5188 40.3259 51.234 41.853 50.8836 43.5079C53.9904 38.0094 58.9356 33.7803 64.851 31.5632C70.7664 29.346 77.2741 29.2823 83.2317 31.3834C87.4356 32.8659 91.5582 35.8319 92.5239 40.182C92.7718 41.2987 92.8251 42.5232 93.5226 43.43C94.4021 44.5733 96.0848 44.8319 97.4704 44.4297C97.4843 44.4257 97.4981 44.4216 97.5119 44.4175C97.746 44.3376 97.9987 44.3297 98.2372 44.3949C98.4758 44.4601 98.6894 44.5954 98.8502 44.7832C99.011 44.9711 99.1118 45.2028 99.1394 45.4485C99.1671 45.6942 99.1203 45.9425 99.0052 46.1614L97.8158 48.3788C99.3152 48.7129 100.873 48.6798 102.357 48.2823C102.604 48.2177 102.864 48.2308 103.103 48.32C103.341 48.4092 103.547 48.5701 103.69 48.7805C103.834 48.9909 103.909 49.2406 103.905 49.4953C103.901 49.7499 103.818 49.9972 103.668 50.2031C99.7461 55.5857 93.1934 59.0616 86.5065 59.0207C81.7539 58.9917 76.9523 57.3545 72.3269 58.4469C70.5376 58.8696 68.8655 59.6873 67.4336 60.84C66.0016 61.9928 64.846 63.4515 64.0515 65.1089C63.257 66.7664 62.8439 68.5806 62.8424 70.4184C62.8408 72.2563 63.251 74.0712 64.0427 75.7299C62.6217 74.1764 59.8749 74.5442 58.4214 76.0674C56.968 77.5907 56.5917 79.8641 56.7381 81.964C56.9621 85.1758 58.221 88.2021 59.5481 91.1475C48.4212 90.7974 37.8969 82.9954 34.3544 72.4429C30.7971 61.8462 34.5253 49.2128 43.2668 42.2424Z" fill="#2F2E41"/>
<path opacity="0.2" d="M25.7454 145.718L33.0818 185.617L37.4839 186L25.7454 145.718Z" fill="black"/>
<path opacity="0.2" d="M106.558 142.708L99.2216 185.588L94.8196 186L106.558 142.708Z" fill="black"/>
<path d="M49.5241 28.8144C48.1174 29.4015 46.6496 28.7581 46.034 27.2845C45.4091 25.7884 45.9928 24.2697 47.422 23.6732C48.8513 23.0766 50.293 23.7216 50.9281 25.2418C51.5536 26.7392 50.9762 28.2083 49.5241 28.8144ZM46.8295 20.7284L45.711 21.1952C45.4316 21.3105 45.1191 21.3167 44.8354 21.2127C44.5516 21.1086 44.3172 20.9019 44.1786 20.6334L44.1233 20.5253C42.9198 18.3558 42.782 15.7191 43.7159 12.6926C44.581 9.97769 44.9403 8.0683 44.2177 6.33848C43.3822 4.33849 41.5982 3.71199 39.3231 4.61954C38.4407 4.98784 38.1599 4.98197 37.4655 5.67052C37.3145 5.82212 37.1344 5.94176 36.9361 6.02231C36.7378 6.10286 36.5253 6.14267 36.3113 6.13936C36.1044 6.13693 35.9001 6.09287 35.7106 6.00981C35.5211 5.92676 35.3503 5.80641 35.2083 5.65594C34.9348 5.36597 34.7816 4.98306 34.7796 4.58454C34.7775 4.18602 34.9269 3.80158 35.1975 3.50886C36.3646 2.28759 37.7724 1.32141 39.3319 0.671287C44.2201 -1.36898 46.6808 1.64318 47.8069 4.33878C48.9083 6.97538 48.2887 9.42171 47.2932 12.5899C46.459 15.2226 46.5076 17.1733 47.4552 19.1129C47.5236 19.2596 47.5617 19.4185 47.5671 19.5802C47.5726 19.7419 47.5452 19.9031 47.4868 20.0539C47.4283 20.2048 47.34 20.3424 47.2271 20.4583C47.1141 20.5742 46.9789 20.666 46.8295 20.7284L46.8295 20.7284Z" fill="white"/>
<path d="M170.951 40.9132H147.195C147.119 40.9137 147.044 40.8993 146.974 40.8708C146.904 40.8423 146.841 40.8003 146.787 40.7471C146.734 40.6939 146.691 40.6307 146.662 40.5611C146.633 40.4914 146.618 40.4167 146.618 40.3413C146.618 40.2658 146.633 40.1911 146.662 40.1215C146.691 40.0518 146.734 39.9886 146.787 39.9354C146.841 39.8823 146.904 39.8402 146.974 39.8117C147.044 39.7832 147.119 39.7688 147.195 39.7693H170.951C171.102 39.7703 171.247 39.831 171.353 39.9382C171.46 40.0453 171.519 40.1902 171.519 40.3413C171.519 40.4923 171.46 40.6372 171.353 40.7443C171.247 40.8515 171.102 40.9122 170.951 40.9132Z" fill="#FF6363"/>
<path d="M201.087 41.1039H177.331C177.256 41.1044 177.181 41.09 177.111 41.0615C177.041 41.033 176.977 40.9909 176.924 40.9378C176.87 40.8846 176.828 40.8214 176.799 40.7517C176.77 40.6821 176.755 40.6074 176.755 40.5319C176.755 40.4565 176.77 40.3818 176.799 40.3122C176.828 40.2425 176.87 40.1793 176.924 40.1261C176.977 40.073 177.041 40.0309 177.111 40.0024C177.181 39.9739 177.256 39.9595 177.331 39.96H201.087C201.163 39.9595 201.238 39.9739 201.308 40.0024C201.377 40.0309 201.441 40.073 201.495 40.1261C201.548 40.1793 201.591 40.2425 201.62 40.3122C201.649 40.3818 201.664 40.4565 201.664 40.5319C201.664 40.6074 201.649 40.6821 201.62 40.7517C201.591 40.8214 201.548 40.8846 201.495 40.9378C201.441 40.9909 201.377 41.033 201.308 41.0615C201.238 41.09 201.163 41.1044 201.087 41.1039Z" fill="#FF6363"/>
<path d="M231.224 41.2946H207.468C207.316 41.2936 207.172 41.2328 207.065 41.1257C206.959 41.0185 206.899 40.8736 206.899 40.7226C206.899 40.5716 206.959 40.4267 207.065 40.3195C207.172 40.2124 207.316 40.1517 207.468 40.1506H231.224C231.299 40.1501 231.374 40.1646 231.444 40.1931C231.514 40.2216 231.578 40.2636 231.631 40.3168C231.685 40.37 231.727 40.4332 231.756 40.5028C231.785 40.5725 231.8 40.6472 231.8 40.7226C231.8 40.7981 231.785 40.8728 231.756 40.9424C231.727 41.0121 231.685 41.0753 231.631 41.1284C231.578 41.1816 231.514 41.2236 231.444 41.2522C231.374 41.2807 231.299 41.2951 231.224 41.2946H231.224Z" fill="#FF6363"/>
<path d="M261.36 41.4852H237.604C237.453 41.4842 237.308 41.4235 237.202 41.3163C237.095 41.2092 237.036 41.0643 237.036 40.9133C237.036 40.7622 237.095 40.6174 237.202 40.5102C237.308 40.403 237.453 40.3423 237.604 40.3413H261.36C261.511 40.3423 261.656 40.403 261.763 40.5102C261.869 40.6174 261.929 40.7622 261.929 40.9133C261.929 41.0643 261.869 41.2092 261.763 41.3163C261.656 41.4235 261.511 41.4842 261.36 41.4852Z" fill="#FF6363"/>
<path d="M159.021 35.6494C161.459 35.6494 163.436 33.6734 163.436 31.2359C163.436 28.7985 161.459 26.8225 159.021 26.8225C156.582 26.8225 154.605 28.7985 154.605 31.2359C154.605 33.6734 156.582 35.6494 159.021 35.6494Z" fill="#FF6363"/>
<path d="M189.339 35.6494C191.777 35.6494 193.754 33.6734 193.754 31.2359C193.754 28.7985 191.777 26.8225 189.339 26.8225C186.9 26.8225 184.924 28.7985 184.924 31.2359C184.924 33.6734 186.9 35.6494 189.339 35.6494Z" fill="#FF6363"/>
<path d="M219.657 35.6494C222.096 35.6494 224.073 33.6734 224.073 31.2359C224.073 28.7985 222.096 26.8225 219.657 26.8225C217.219 26.8225 215.242 28.7985 215.242 31.2359C215.242 33.6734 217.219 35.6494 219.657 35.6494Z" fill="#FF6363"/>
<path d="M249.976 35.6494C252.414 35.6494 254.391 33.6734 254.391 31.2359C254.391 28.7985 252.414 26.8225 249.976 26.8225C247.537 26.8225 245.561 28.7985 245.561 31.2359C245.561 33.6734 247.537 35.6494 249.976 35.6494Z" fill="#FF6363"/>
</g>
<defs>
<clipPath id="clip0_123_373">
<rect width="280" height="186" fill="white"/>
</clipPath>
</defs>
</svg>
