<svg width="375" height="338" viewBox="0 0 375 338" fill="none" xmlns="http://www.w3.org/2000/svg">
<path d="M0 267V267C1.41413 247.379 26.235 239.777 38.3945 255.241L68.4705 293.49C83.2156 312.242 110.922 314.178 128.133 297.66L149.2 277.44C169.488 257.968 199.796 253.285 225.016 265.724L228.425 267.406C246.629 276.385 267.77 277.29 286.675 269.9L290.657 268.343C304.618 262.886 319.808 261.363 334.574 263.942L375 271V338H0V267Z" fill="white"/>
<g clip-path="url(#clip0_244_98)">
<path d="M132.436 107.045C142.032 90.1721 160.336 77.2167 179.712 78.4648C165.419 94.0006 157.085 114.089 156.184 135.176C155.866 143.309 156.359 152.389 150.956 158.479C147.595 162.268 142.456 164.104 137.404 164.489C132.352 164.874 127.301 163.961 122.316 163.053L121.107 163.424C120.646 144.021 122.84 123.917 132.436 107.045Z" fill="#F0F0F0"/>
<path d="M179.741 78.871C165.412 85.7658 153.195 97.2808 145.695 111.324C144.073 114.36 142.693 117.581 142.09 120.987C141.488 124.394 141.909 127.638 143.073 130.874C144.137 133.832 145.569 136.735 145.895 139.901C146.239 143.237 145.011 146.357 142.8 148.833C140.095 151.862 136.462 153.74 132.846 155.452C128.831 157.354 124.63 159.265 121.786 162.813C121.442 163.243 120.794 162.684 121.138 162.254C126.086 156.081 134.556 154.92 140.429 149.947C143.17 147.626 145.227 144.466 145.097 140.763C144.984 137.525 143.51 134.53 142.407 131.544C141.248 128.408 140.67 125.255 141.086 121.913C141.511 118.493 142.768 115.211 144.305 112.147C147.771 105.236 152.513 98.8916 157.947 93.4071C164.191 87.1029 171.468 81.9129 179.464 78.0616C179.958 77.8234 180.232 78.6344 179.741 78.871V78.871Z" fill="white"/>
<path d="M147.892 106.631C145.695 105.025 144.141 102.692 143.507 100.047C142.873 97.4016 143.2 94.6172 144.43 92.191C144.68 91.7009 145.454 92.0671 145.203 92.5578C144.053 94.815 143.749 97.4087 144.345 99.8706C144.94 102.332 146.396 104.501 148.451 105.983C148.897 106.306 148.335 106.952 147.892 106.631V106.631Z" fill="white"/>
<path d="M142.336 129.445C147.84 128.641 152.839 125.793 156.335 121.468C156.681 121.04 157.329 121.599 156.983 122.027C153.336 126.52 148.128 129.474 142.398 130.298C141.852 130.376 141.792 129.522 142.336 129.445V129.445Z" fill="white"/>
<path d="M164.614 88.1555C165.334 88.9537 166.242 89.5605 167.255 89.9215C168.268 90.2826 169.355 90.3864 170.418 90.2238C170.963 90.1387 171.022 90.9924 170.48 91.0769C169.305 91.2511 168.105 91.1349 166.985 90.7386C165.865 90.3422 164.859 89.6776 164.055 88.803C163.972 88.7269 163.921 88.6222 163.913 88.5101C163.905 88.3981 163.94 88.2871 164.01 88.1998C164.085 88.1144 164.19 88.0618 164.303 88.0536C164.416 88.0453 164.528 88.0819 164.614 88.1555Z" fill="white"/>
<path d="M218.265 131.692C217.926 131.754 217.587 131.817 217.245 131.886C212.696 132.754 208.224 133.99 203.874 135.581C203.536 135.699 203.195 135.823 202.861 135.95C192.423 139.896 182.808 145.744 174.506 153.198C171.205 156.168 168.135 159.383 165.322 162.818C161.438 167.562 157.604 173.014 152.528 176.107C152.002 176.436 151.456 176.732 150.894 176.993L121.653 164.87C121.601 164.809 121.545 164.754 121.492 164.693L120.302 164.263C120.435 164.075 120.577 163.884 120.709 163.697C120.786 163.588 120.869 163.481 120.945 163.372C120.999 163.301 121.052 163.229 121.096 163.161C121.113 163.137 121.131 163.113 121.146 163.096C121.19 163.028 121.238 162.97 121.279 162.909C122.068 161.837 122.865 160.769 123.672 159.704C123.675 159.697 123.675 159.697 123.684 159.693C129.851 151.597 136.748 143.945 144.588 137.582C144.824 137.39 145.062 137.192 145.312 137.006C148.862 134.158 152.638 131.604 156.604 129.371C158.78 128.155 161.016 127.05 163.303 126.06C169.219 123.513 175.498 121.912 181.911 121.316C194.695 120.13 207.716 123.043 217.522 131.071C217.772 131.276 218.017 131.479 218.265 131.692Z" fill="#F0F0F0"/>
<path d="M218.045 132.035C202.451 128.917 185.761 130.759 171.314 137.458C168.19 138.906 165.148 140.647 162.616 143.004C160.082 145.362 158.465 148.205 157.445 151.489C156.513 154.492 155.908 157.671 154.261 160.395C152.526 163.266 149.667 165.018 146.41 165.665C142.425 166.456 138.394 165.768 134.475 164.959C130.124 164.061 125.619 163.059 121.211 164.181C120.677 164.317 120.497 163.48 121.03 163.345C128.699 161.393 136.161 165.563 143.846 165.127C147.432 164.923 150.978 163.638 153.105 160.604C154.965 157.95 155.592 154.672 156.51 151.623C157.473 148.423 158.911 145.558 161.256 143.138C163.655 140.664 166.636 138.8 169.708 137.279C176.638 133.846 184.247 131.635 191.888 130.526C200.671 129.25 209.608 129.486 218.311 131.222C218.85 131.33 218.58 132.142 218.045 132.035V132.035Z" fill="white"/>
<path d="M175.895 135.033C175.108 132.429 175.272 129.63 176.359 127.137C177.446 124.643 179.385 122.617 181.828 121.42C182.323 121.179 182.72 121.937 182.225 122.178C179.947 123.289 178.142 125.176 177.134 127.5C176.127 129.825 175.984 132.432 176.731 134.852C176.893 135.378 176.055 135.556 175.895 135.033Z" fill="white"/>
<path d="M157.717 149.905C162.596 152.575 168.303 153.31 173.699 151.961C174.234 151.827 174.414 152.663 173.88 152.797C168.262 154.19 162.324 153.414 157.253 150.624C156.77 150.357 157.237 149.64 157.717 149.905V149.905Z" fill="white"/>
<path d="M200.375 130.345C200.469 131.416 200.828 132.446 201.42 133.344C202.011 134.242 202.816 134.979 203.763 135.489C204.249 135.749 203.782 136.466 203.299 136.208C202.256 135.64 201.367 134.825 200.712 133.834C200.056 132.844 199.653 131.708 199.538 130.525C199.518 130.415 199.541 130.301 199.602 130.206C199.662 130.112 199.757 130.044 199.866 130.017C199.977 129.994 200.093 130.015 200.188 130.076C200.283 130.138 200.35 130.234 200.375 130.345V130.345Z" fill="white"/>
<path d="M162.563 151.693C158.468 131.901 153.35 125.302 153.35 125.302L151.394 123.786L149.042 121.961L149.054 121.726L148.496 121.536L148.365 121.435L148.15 121.27L148.116 121.307L148.043 121.382L137.401 117.767L123.901 113.183L117.649 105.06C116.631 103.737 115.32 102.668 113.819 101.937C112.318 101.205 110.669 100.831 108.999 100.843L89.033 100.991C86.3334 101.011 83.7389 102.039 81.7596 103.874L68.6364 116.042L48.1879 125.804L48.1534 125.769L47.9387 125.923L44.7792 127.433L44.9096 128.111L42.9541 129.522C42.9541 129.522 37.8353 135.661 33.7402 154.077C32.6985 158.763 32.1857 168.815 32.0006 181.202C31.9913 181.828 32.1067 182.451 32.3401 183.032C32.5735 183.614 32.9203 184.143 33.3602 184.59C33.8002 185.036 34.3245 185.391 34.9028 185.633C35.4811 185.875 36.1017 186 36.7286 186H145.948V186H159.58C160.206 186 160.827 185.875 161.405 185.633C161.982 185.391 162.507 185.037 162.946 184.591C163.386 184.145 163.733 183.617 163.967 183.036C164.201 182.455 164.317 181.833 164.308 181.207C164.127 167.728 163.615 156.774 162.563 151.693Z" fill="#3F3D56"/>
<path d="M176.577 17.2601C172.328 17.2601 168.252 18.9474 165.248 21.9508C162.243 24.9542 160.555 29.0277 160.555 33.2751C160.555 37.5226 162.243 41.5961 165.248 44.5995C168.252 47.6029 172.328 49.2902 176.577 49.2902H295.978C300.227 49.2902 304.303 47.6029 307.307 44.5995C310.312 41.5961 312 37.5226 312 33.2751C312 29.0277 310.312 24.9542 307.307 21.9508C304.303 18.9474 300.227 17.2601 295.978 17.2601H176.577Z" fill="#E5E5E5"/>
<path d="M176.577 20.5013C173.187 20.5013 169.937 21.8471 167.54 24.2426C165.144 26.6382 163.797 29.8873 163.797 33.2752C163.797 36.663 165.144 39.9121 167.54 42.3077C169.937 44.7033 173.187 46.0491 176.577 46.0491H295.978C299.367 46.0491 302.618 44.7033 305.014 42.3077C307.411 39.9121 308.757 36.663 308.757 33.2752C308.757 29.8873 307.411 26.6382 305.014 24.2426C302.618 21.8471 299.367 20.5013 295.978 20.5013H176.577Z" fill="white"/>
<path d="M102.151 93.3453C116.598 93.3453 128.308 81.6394 128.308 67.1994C128.308 52.7594 116.598 41.0534 102.151 41.0534C87.7051 41.0534 75.9942 52.7594 75.9942 67.1994C75.9942 81.6394 87.7051 93.3453 102.151 93.3453Z" fill="#88656A"/>
<path d="M95.4597 92.0651C95.348 91.8192 95.2366 91.5724 95.1254 91.3248C95.1683 91.3261 95.2107 91.3323 95.2535 91.3334L95.4597 92.0651Z" fill="#2F2E41"/>
<path d="M75.2668 42.2424C76.5898 41.1875 78.136 40.2169 79.8275 40.2715C81.5189 40.3259 83.2341 41.853 82.8837 43.5079C85.9905 38.0094 90.9356 33.7803 96.851 31.5632C102.766 29.346 109.274 29.2823 115.232 31.3834C119.436 32.8659 123.558 35.8319 124.524 40.182C124.772 41.2987 124.825 42.5232 125.523 43.43C126.402 44.5733 128.085 44.8319 129.47 44.4297C129.484 44.4257 129.498 44.4216 129.512 44.4175C129.746 44.3376 129.999 44.3297 130.237 44.3949C130.476 44.4601 130.689 44.5954 130.85 44.7832C131.011 44.9711 131.112 45.2028 131.14 45.4485C131.167 45.6942 131.12 45.9425 131.005 46.1614L129.816 48.3788C131.315 48.7129 132.873 48.6798 134.357 48.2823C134.604 48.2177 134.864 48.2308 135.103 48.32C135.341 48.4092 135.547 48.5701 135.69 48.7805C135.834 48.9909 135.909 49.2406 135.905 49.4953C135.901 49.7499 135.818 49.9972 135.668 50.2031C131.746 55.5857 125.193 59.0615 118.507 59.0207C113.754 58.9917 108.952 57.3545 104.327 58.4469C102.538 58.8696 100.866 59.6873 99.4336 60.84C98.0016 61.9928 96.846 63.4515 96.0516 65.1089C95.2571 66.7664 94.8439 68.5806 94.8424 70.4184C94.8409 72.2563 95.251 74.0712 96.0428 75.73C94.6218 74.1764 91.875 74.5442 90.4215 76.0674C88.968 77.5907 88.5917 79.8641 88.7382 81.964C88.9621 85.1758 90.221 88.2021 91.5482 91.1475C80.4212 90.7974 69.897 82.9954 66.3545 72.4429C62.7971 61.8462 66.5254 49.2128 75.2668 42.2424Z" fill="#2F2E41"/>
<path opacity="0.2" d="M57.7454 145.717L65.0818 185.617L69.4839 186L57.7454 145.717Z" fill="black"/>
<path opacity="0.2" d="M138.558 142.708L131.222 185.588L126.82 186L138.558 142.708Z" fill="black"/>
<path d="M81.5241 28.8143C80.1175 29.4015 78.6497 28.758 78.0341 27.2845C77.4091 25.7884 77.9928 24.2697 79.4221 23.6731C80.8514 23.0765 82.2931 23.7216 82.9281 25.2418C83.5537 26.7392 82.9763 28.2082 81.5241 28.8143ZM78.8296 20.7284L77.7111 21.1952C77.4317 21.3104 77.1192 21.3166 76.8354 21.2126C76.5516 21.1086 76.3173 20.9019 76.1787 20.6334L76.1234 20.5252C74.9199 18.3557 74.7821 15.7191 75.716 12.6926C76.5811 9.97763 76.9404 8.06823 76.2178 6.33842C75.3823 4.33843 73.5982 3.71193 71.3231 4.61948C70.4408 4.98778 70.16 4.98191 69.4656 5.67046C69.3145 5.82206 69.1345 5.9417 68.9362 6.02225C68.7379 6.1028 68.5254 6.14261 68.3114 6.1393C68.1045 6.13686 67.9002 6.09281 67.7107 6.00975C67.5212 5.9267 67.3503 5.80635 67.2084 5.65588C66.9349 5.36591 66.7816 4.983 66.7796 4.58448C66.7776 4.18595 66.927 3.80152 67.1975 3.5088C68.3647 2.28753 69.7724 1.32135 71.3319 0.671226C76.2201 -1.36904 78.6809 1.64312 79.8069 4.33872C80.9084 6.97532 80.2888 9.42165 79.2933 12.5899C78.459 15.2225 78.5076 17.1732 79.4553 19.1129C79.5237 19.2595 79.5618 19.4184 79.5672 19.5801C79.5726 19.7419 79.5453 19.903 79.4868 20.0539C79.4284 20.2048 79.3401 20.3423 79.2271 20.4582C79.1142 20.5741 78.9789 20.666 78.8296 20.7283L78.8296 20.7284Z" fill="white"/>
<path d="M202.951 40.9133H179.195C179.119 40.9138 179.044 40.8994 178.974 40.8708C178.904 40.8423 178.841 40.8003 178.787 40.7471C178.734 40.694 178.691 40.6307 178.662 40.5611C178.633 40.4914 178.618 40.4167 178.618 40.3413C178.618 40.2659 178.633 40.1912 178.662 40.1215C178.691 40.0519 178.734 39.9886 178.787 39.9355C178.841 39.8823 178.904 39.8403 178.974 39.8117C179.044 39.7832 179.119 39.7688 179.195 39.7693H202.951C203.102 39.7704 203.247 39.8311 203.353 39.9382C203.46 40.0454 203.519 40.1903 203.519 40.3413C203.519 40.4923 203.46 40.6372 203.353 40.7444C203.247 40.8515 203.102 40.9122 202.951 40.9133Z" fill="#D83CFF"/>
<path d="M233.087 41.1039H209.331C209.256 41.1044 209.181 41.09 209.111 41.0615C209.041 41.033 208.977 40.9909 208.924 40.9377C208.87 40.8846 208.828 40.8213 208.799 40.7517C208.77 40.682 208.755 40.6074 208.755 40.5319C208.755 40.4565 208.77 40.3818 208.799 40.3121C208.828 40.2425 208.87 40.1792 208.924 40.1261C208.977 40.0729 209.041 40.0309 209.111 40.0024C209.181 39.9738 209.256 39.9594 209.331 39.9599H233.087C233.163 39.9594 233.238 39.9738 233.308 40.0024C233.378 40.0309 233.441 40.0729 233.495 40.1261C233.548 40.1792 233.591 40.2425 233.62 40.3121C233.649 40.3818 233.664 40.4565 233.664 40.5319C233.664 40.6074 233.649 40.682 233.62 40.7517C233.591 40.8213 233.548 40.8846 233.495 40.9377C233.441 40.9909 233.378 41.033 233.308 41.0615C233.238 41.09 233.163 41.1044 233.087 41.1039V41.1039Z" fill="#D83CFF"/>
<path d="M263.224 41.2946H239.467C239.316 41.2935 239.172 41.2328 239.065 41.1257C238.959 41.0185 238.899 40.8736 238.899 40.7226C238.899 40.5716 238.959 40.4267 239.065 40.3195C239.172 40.2124 239.316 40.1516 239.467 40.1506H263.224C263.299 40.1501 263.374 40.1645 263.444 40.193C263.514 40.2215 263.577 40.2636 263.631 40.3168C263.685 40.3699 263.727 40.4331 263.756 40.5028C263.785 40.5724 263.8 40.6471 263.8 40.7226C263.8 40.798 263.785 40.8727 263.756 40.9424C263.727 41.012 263.685 41.0752 263.631 41.1284C263.577 41.1816 263.514 41.2236 263.444 41.2521C263.374 41.2806 263.299 41.2951 263.224 41.2946H263.224Z" fill="#D83CFF"/>
<path d="M293.36 41.4852H269.604C269.453 41.4842 269.308 41.4234 269.202 41.3163C269.095 41.2091 269.036 41.0642 269.036 40.9132C269.036 40.7622 269.095 40.6173 269.202 40.5101C269.308 40.403 269.453 40.3423 269.604 40.3412H293.36C293.511 40.3423 293.656 40.403 293.762 40.5101C293.869 40.6173 293.929 40.7622 293.929 40.9132C293.929 41.0642 293.869 41.2091 293.762 41.3163C293.656 41.4234 293.511 41.4842 293.36 41.4852Z" fill="#D83CFF"/>
<path d="M191.021 35.6494C193.459 35.6494 195.436 33.6734 195.436 31.2359C195.436 28.7985 193.459 26.8225 191.021 26.8225C188.582 26.8225 186.605 28.7985 186.605 31.2359C186.605 33.6734 188.582 35.6494 191.021 35.6494Z" fill="#D83CFF"/>
<path d="M221.339 35.6494C223.777 35.6494 225.754 33.6734 225.754 31.2359C225.754 28.7985 223.777 26.8225 221.339 26.8225C218.9 26.8225 216.924 28.7985 216.924 31.2359C216.924 33.6734 218.9 35.6494 221.339 35.6494Z" fill="#D83CFF"/>
<path d="M251.657 35.6494C254.096 35.6494 256.073 33.6734 256.073 31.2359C256.073 28.7985 254.096 26.8225 251.657 26.8225C249.219 26.8225 247.242 28.7985 247.242 31.2359C247.242 33.6734 249.219 35.6494 251.657 35.6494Z" fill="#D83CFF"/>
<path d="M281.976 35.6494C284.414 35.6494 286.391 33.6734 286.391 31.2359C286.391 28.7985 284.414 26.8225 281.976 26.8225C279.537 26.8225 277.561 28.7985 277.561 31.2359C277.561 33.6734 279.537 35.6494 281.976 35.6494Z" fill="#D83CFF"/>
</g>
<path d="M233.278 74.3821H241.294V96H246.766V74.3821H254.781V69.8182H233.278V74.3821ZM256.181 96H261.627V84.8906C261.627 82.4744 263.391 80.8125 265.795 80.8125C266.549 80.8125 267.585 80.9403 268.096 81.1065V76.2741C267.61 76.1591 266.933 76.0824 266.383 76.0824C264.184 76.0824 262.381 77.3608 261.665 79.7898H261.461V76.3636H256.181V96ZM278.87 96.3835C284.827 96.3835 288.534 92.3054 288.534 86.2585C288.534 80.1733 284.827 76.108 278.87 76.108C272.912 76.108 269.205 80.1733 269.205 86.2585C269.205 92.3054 272.912 96.3835 278.87 96.3835ZM278.895 92.1648C276.147 92.1648 274.74 89.6463 274.74 86.2202C274.74 82.794 276.147 80.2628 278.895 80.2628C281.593 80.2628 282.999 82.794 282.999 86.2202C282.999 89.6463 281.593 92.1648 278.895 92.1648ZM300.948 96.3835C306.176 96.3835 309.462 93.3153 309.718 88.8026H304.578C304.259 90.8991 302.878 92.0753 301.012 92.0753C298.468 92.0753 296.819 89.9403 296.819 86.1818C296.819 82.4744 298.48 80.3523 301.012 80.3523C303.006 80.3523 304.284 81.669 304.578 83.625H309.718C309.488 79.0866 306.049 76.108 300.922 76.108C294.965 76.108 291.283 80.2372 291.283 86.2585C291.283 92.2287 294.901 96.3835 300.948 96.3835ZM318.804 96.3707C321.706 96.3707 323.585 95.1051 324.544 93.277H324.697V96H329.862V82.7557C329.862 78.0767 325.899 76.108 321.527 76.108C316.822 76.108 313.729 78.358 312.974 81.9375L318.011 82.3466C318.382 81.0426 319.545 80.0838 321.501 80.0838C323.355 80.0838 324.416 81.017 324.416 82.6278V82.7045C324.416 83.9702 323.074 84.1364 319.661 84.4688C315.774 84.8267 312.284 86.1307 312.284 90.5156C312.284 94.402 315.058 96.3707 318.804 96.3707ZM320.364 92.6122C318.689 92.6122 317.487 91.8324 317.487 90.3366C317.487 88.8026 318.753 88.0483 320.67 87.7798C321.859 87.6136 323.803 87.3324 324.455 86.8977V88.9815C324.455 91.0398 322.754 92.6122 320.364 92.6122ZM241.409 140.32C244.58 140.32 246.229 138.491 246.983 136.855H247.213V140H252.582V113.818H247.149V123.662H246.983C246.254 122.064 244.682 120.108 241.396 120.108C237.088 120.108 233.445 123.457 233.445 130.207C233.445 136.778 236.935 140.32 241.409 140.32ZM243.135 135.986C240.463 135.986 239.006 133.608 239.006 130.182C239.006 126.781 240.438 124.442 243.135 124.442C245.781 124.442 247.264 126.679 247.264 130.182C247.264 133.685 245.756 135.986 243.135 135.986ZM266.009 140.384C270.867 140.384 274.14 138.018 274.907 134.375L269.87 134.043C269.32 135.538 267.914 136.318 266.098 136.318C263.375 136.318 261.65 134.516 261.65 131.588V131.575H275.022V130.08C275.022 123.406 270.982 120.108 265.792 120.108C260.013 120.108 256.267 124.212 256.267 130.271C256.267 136.497 259.962 140.384 266.009 140.384ZM261.65 128.2C261.765 125.963 263.465 124.173 265.881 124.173C268.246 124.173 269.882 125.861 269.895 128.2H261.65ZM248.479 165.348H253.784C253.707 160.682 249.872 157.46 244.043 157.46C238.303 157.46 234.097 160.631 234.122 165.386C234.109 169.247 236.832 171.459 241.256 172.52L244.107 173.236C246.957 173.926 248.543 174.744 248.555 176.509C248.543 178.426 246.727 179.73 243.915 179.73C241.038 179.73 238.967 178.401 238.788 175.78H233.432C233.572 181.443 237.625 184.371 243.979 184.371C250.371 184.371 254.129 181.315 254.142 176.521C254.129 172.162 250.844 169.848 246.293 168.825L243.94 168.263C241.665 167.739 239.76 166.895 239.798 165.016C239.798 163.328 241.294 162.088 244.004 162.088C246.651 162.088 248.274 163.29 248.479 165.348ZM266.712 184.384C271.57 184.384 274.843 182.018 275.61 178.375L270.573 178.043C270.023 179.538 268.617 180.318 266.801 180.318C264.078 180.318 262.353 178.516 262.353 175.588V175.575H275.725V174.08C275.725 167.406 271.685 164.108 266.495 164.108C260.716 164.108 256.971 168.212 256.971 174.271C256.971 180.497 260.665 184.384 266.712 184.384ZM262.353 172.2C262.468 169.963 264.168 168.173 266.584 168.173C268.949 168.173 270.586 169.861 270.598 172.2H262.353ZM284.725 172.648C284.738 170.116 286.246 168.634 288.445 168.634C290.631 168.634 291.948 170.065 291.935 172.469V184H297.381V171.497C297.381 166.92 294.696 164.108 290.605 164.108C287.691 164.108 285.581 165.54 284.699 167.828H284.469V164.364H279.279V184H284.725V172.648ZM307.119 172.648C307.132 170.116 308.679 168.634 310.903 168.634C313.115 168.634 314.419 170.053 314.406 172.469V184H319.852V171.497C319.865 166.895 317.155 164.108 313.064 164.108C310.085 164.108 308.091 165.514 307.196 167.828H306.966V157.818H301.673V184H307.119V172.648ZM329.738 184.371C332.64 184.371 334.519 183.105 335.478 181.277H335.631V184H340.796V170.756C340.796 166.077 336.833 164.108 332.461 164.108C327.756 164.108 324.662 166.358 323.908 169.938L328.945 170.347C329.316 169.043 330.479 168.084 332.435 168.084C334.289 168.084 335.35 169.017 335.35 170.628V170.705C335.35 171.97 334.007 172.136 330.594 172.469C326.708 172.827 323.218 174.131 323.218 178.516C323.218 182.402 325.992 184.371 329.738 184.371ZM331.297 180.612C329.623 180.612 328.421 179.832 328.421 178.337C328.421 176.803 329.686 176.048 331.604 175.78C332.793 175.614 334.736 175.332 335.388 174.898V176.982C335.388 179.04 333.688 180.612 331.297 180.612Z" fill="white"/>
<defs>
<clipPath id="clip0_244_98">
<rect width="280" height="186" fill="white" transform="translate(32)"/>
</clipPath>
</defs>
</svg>
