<svg width="311" height="193" viewBox="0 0 311 193" fill="none" xmlns="http://www.w3.org/2000/svg">
<g clip-path="url(#clip0_227_73)">
<path d="M100.436 107.045C110.032 90.1721 128.336 77.2167 147.712 78.4648C133.419 94.0006 125.085 114.089 124.184 135.176C123.866 143.309 124.359 152.389 118.956 158.479C115.595 162.268 110.456 164.104 105.404 164.489C100.352 164.874 95.3007 163.961 90.3159 163.053L89.1067 163.424C88.6463 144.021 90.8405 123.917 100.436 107.045Z" fill="#F0F0F0"/>
<path d="M147.741 78.871C133.412 85.7658 121.195 97.2808 113.695 111.324C112.073 114.36 110.693 117.581 110.09 120.987C109.488 124.394 109.909 127.638 111.073 130.874C112.137 133.832 113.569 136.735 113.895 139.901C114.239 143.237 113.011 146.357 110.8 148.833C108.095 151.862 104.462 153.74 100.846 155.452C96.8307 157.354 92.63 159.265 89.7861 162.813C89.4415 163.243 88.7942 162.684 89.1383 162.254C94.0862 156.081 102.556 154.92 108.429 149.947C111.17 147.626 113.227 144.466 113.097 140.763C112.984 137.525 111.51 134.53 110.407 131.544C109.248 128.408 108.67 125.255 109.086 121.913C109.511 118.493 110.768 115.211 112.305 112.147C115.771 105.236 120.513 98.8916 125.947 93.4071C132.191 87.1029 139.468 81.9129 147.464 78.0616C147.958 77.8234 148.232 78.6344 147.741 78.871Z" fill="white"/>
<path d="M115.892 106.631C113.695 105.025 112.141 102.692 111.507 100.047C110.873 97.4016 111.2 94.6172 112.43 92.191C112.68 91.7009 113.454 92.0671 113.203 92.5578C112.053 94.815 111.749 97.4087 112.345 99.8706C112.94 102.332 114.396 104.501 116.451 105.983C116.897 106.306 116.335 106.952 115.892 106.631Z" fill="white"/>
<path d="M110.336 129.445C115.84 128.641 120.839 125.793 124.335 121.468C124.681 121.04 125.329 121.599 124.983 122.027C121.336 126.52 116.128 129.474 110.398 130.298C109.852 130.376 109.792 129.522 110.336 129.445V129.445Z" fill="white"/>
<path d="M132.614 88.1555C133.334 88.9537 134.242 89.5605 135.255 89.9215C136.268 90.2826 137.355 90.3864 138.418 90.2238C138.963 90.1387 139.022 90.9924 138.48 91.0769C137.305 91.2511 136.105 91.1349 134.985 90.7386C133.865 90.3422 132.859 89.6776 132.055 88.803C131.972 88.7269 131.921 88.6222 131.913 88.5101C131.905 88.3981 131.94 88.2871 132.01 88.1998C132.085 88.1144 132.19 88.0618 132.303 88.0536C132.416 88.0453 132.528 88.0819 132.614 88.1555Z" fill="white"/>
<path d="M186.265 131.692C185.926 131.754 185.587 131.817 185.245 131.886C180.696 132.754 176.224 133.99 171.874 135.581C171.536 135.699 171.195 135.823 170.861 135.95C160.423 139.896 150.808 145.744 142.506 153.198C139.205 156.168 136.135 159.383 133.322 162.818C129.438 167.562 125.604 173.014 120.528 176.107C120.002 176.436 119.456 176.732 118.894 176.993L89.6533 164.87C89.6006 164.809 89.5449 164.754 89.492 164.693L88.3024 164.263C88.4351 164.075 88.5767 163.884 88.7094 163.697C88.7859 163.588 88.8689 163.481 88.9455 163.372C88.9985 163.301 89.052 163.229 89.0958 163.161C89.1133 163.137 89.1312 163.113 89.1461 163.096C89.1899 163.028 89.2377 162.97 89.2788 162.909C90.0676 161.837 90.8653 160.769 91.6719 159.704C91.6747 159.697 91.6747 159.697 91.684 159.693C97.8509 151.597 104.748 143.945 112.588 137.582C112.824 137.39 113.062 137.192 113.312 137.006C116.862 134.158 120.638 131.604 124.604 129.371C126.78 128.155 129.016 127.05 131.303 126.06C137.219 123.513 143.498 121.912 149.911 121.316C162.695 120.13 175.716 123.043 185.522 131.071C185.772 131.276 186.017 131.479 186.265 131.692Z" fill="#F0F0F0"/>
<path d="M186.045 132.035C170.451 128.917 153.761 130.759 139.314 137.458C136.19 138.906 133.148 140.647 130.616 143.004C128.082 145.362 126.465 148.205 125.445 151.489C124.513 154.492 123.908 157.671 122.261 160.395C120.526 163.266 117.667 165.018 114.41 165.665C110.425 166.456 106.394 165.768 102.475 164.959C98.1241 164.061 93.6188 163.059 89.2107 164.181C88.6766 164.317 88.4968 163.48 89.0301 163.345C96.6995 161.393 104.161 165.563 111.846 165.127C115.432 164.923 118.978 163.638 121.105 160.604C122.965 157.95 123.592 154.672 124.51 151.623C125.473 148.423 126.911 145.558 129.256 143.138C131.655 140.664 134.636 138.8 137.708 137.279C144.638 133.846 152.247 131.635 159.888 130.526C168.671 129.25 177.608 129.486 186.311 131.222C186.85 131.33 186.58 132.142 186.045 132.035V132.035Z" fill="white"/>
<path d="M143.895 135.033C143.108 132.429 143.272 129.63 144.359 127.137C145.446 124.643 147.385 122.617 149.828 121.42C150.323 121.179 150.72 121.937 150.225 122.178C147.947 123.289 146.142 125.176 145.134 127.5C144.127 129.825 143.984 132.432 144.731 134.852C144.893 135.378 144.055 135.556 143.895 135.033Z" fill="white"/>
<path d="M125.717 149.905C130.596 152.575 136.303 153.31 141.699 151.961C142.234 151.827 142.414 152.663 141.88 152.797C136.262 154.19 130.324 153.414 125.253 150.624C124.77 150.357 125.237 149.64 125.717 149.905Z" fill="white"/>
<path d="M168.375 130.345C168.469 131.416 168.828 132.446 169.42 133.344C170.011 134.242 170.816 134.979 171.763 135.489C172.249 135.749 171.782 136.466 171.299 136.208C170.256 135.64 169.367 134.825 168.712 133.834C168.056 132.844 167.653 131.708 167.538 130.525C167.518 130.415 167.541 130.301 167.602 130.206C167.662 130.112 167.757 130.044 167.866 130.017C167.977 129.994 168.093 130.015 168.188 130.076C168.283 130.138 168.35 130.234 168.375 130.345Z" fill="white"/>
<path d="M130.563 151.693C126.468 131.901 121.35 125.302 121.35 125.302L119.394 123.786L117.042 121.961L117.054 121.726L116.496 121.536L116.365 121.435L116.15 121.27L116.116 121.307L116.043 121.382L105.401 117.767L91.9006 113.183L85.6489 105.06C84.6307 103.737 83.3199 102.668 81.8192 101.937C80.3184 101.205 78.6685 100.831 76.9988 100.843L57.033 100.991C54.3334 101.011 51.7389 102.039 49.7596 103.874L36.6364 116.042L16.1879 125.804L16.1534 125.769L15.9387 125.923L12.7792 127.433L12.9096 128.111L10.9541 129.522C10.9541 129.522 5.83526 135.661 1.74019 154.077C0.69845 158.763 0.185668 168.815 0.000581168 181.202C-0.00871573 181.828 0.106701 182.451 0.340117 183.032C0.573534 183.614 0.920295 184.143 1.36024 184.59C1.80018 185.036 2.32453 185.391 2.90279 185.633C3.48105 185.875 4.10169 186 4.72863 186H113.948V186H127.58C128.206 186 128.827 185.875 129.405 185.633C129.982 185.391 130.507 185.037 130.946 184.591C131.386 184.145 131.733 183.617 131.967 183.036C132.201 182.455 132.317 181.833 132.308 181.207C132.127 167.728 131.615 156.774 130.563 151.693Z" fill="#3F3D56"/>
<path d="M144.577 17.2601C140.328 17.2601 136.252 18.9474 133.248 21.9508C130.243 24.9542 128.555 29.0277 128.555 33.2751C128.555 37.5226 130.243 41.5961 133.248 44.5995C136.252 47.6029 140.328 49.2902 144.577 49.2902H263.978C268.227 49.2902 272.303 47.6029 275.307 44.5995C278.312 41.5961 280 37.5226 280 33.2751C280 29.0277 278.312 24.9542 275.307 21.9508C272.303 18.9474 268.227 17.2601 263.978 17.2601H144.577Z" fill="#E5E5E5"/>
<path d="M144.577 20.5013C141.187 20.5013 137.937 21.8471 135.54 24.2426C133.144 26.6382 131.797 29.8873 131.797 33.2752C131.797 36.663 133.144 39.9121 135.54 42.3077C137.937 44.7033 141.187 46.0491 144.577 46.0491H263.978C267.367 46.0491 270.618 44.7033 273.014 42.3077C275.411 39.9121 276.757 36.663 276.757 33.2752C276.757 29.8873 275.411 26.6382 273.014 24.2426C270.618 21.8471 267.367 20.5013 263.978 20.5013H144.577Z" fill="white"/>
<path d="M70.1513 93.3453C84.5975 93.3453 96.3085 81.6394 96.3085 67.1994C96.3085 52.7594 84.5975 41.0534 70.1513 41.0534C55.7051 41.0534 43.9942 52.7594 43.9942 67.1994C43.9942 81.6394 55.7051 93.3453 70.1513 93.3453Z" fill="#88656A"/>
<path d="M63.4597 92.0651C63.348 91.8192 63.2366 91.5724 63.1254 91.3248C63.1683 91.3261 63.2107 91.3323 63.2535 91.3334L63.4597 92.0651Z" fill="#2F2E41"/>
<path d="M43.2668 42.2424C44.5898 41.1875 46.136 40.2169 47.8275 40.2715C49.5189 40.3259 51.2341 41.853 50.8837 43.5079C53.9905 38.0094 58.9356 33.7803 64.851 31.5632C70.7664 29.346 77.2741 29.2823 83.2318 31.3834C87.4357 32.8659 91.5583 35.8319 92.524 40.182C92.7719 41.2987 92.8251 42.5232 93.5227 43.43C94.4021 44.5733 96.0849 44.8319 97.4705 44.4297C97.4843 44.4257 97.4982 44.4216 97.512 44.4175C97.746 44.3376 97.9987 44.3297 98.2373 44.3949C98.4759 44.4601 98.6894 44.5954 98.8503 44.7832C99.0111 44.9711 99.1119 45.2028 99.1395 45.4485C99.1671 45.6942 99.1204 45.9425 99.0053 46.1614L97.8158 48.3788C99.3152 48.7129 100.873 48.6798 102.357 48.2823C102.604 48.2177 102.864 48.2308 103.103 48.32C103.341 48.4092 103.547 48.5701 103.69 48.7805C103.834 48.9909 103.909 49.2406 103.905 49.4953C103.901 49.7499 103.818 49.9972 103.668 50.2031C99.7462 55.5857 93.1935 59.0616 86.5066 59.0207C81.754 58.9917 76.9524 57.3545 72.327 58.4469C70.5376 58.8696 68.8656 59.6873 67.4336 60.84C66.0016 61.9928 64.846 63.4515 64.0516 65.1089C63.2571 66.7664 62.8439 68.5806 62.8424 70.4184C62.8409 72.2563 63.251 74.0712 64.0428 75.7299C62.6218 74.1764 59.875 74.5442 58.4215 76.0674C56.968 77.5907 56.5917 79.8641 56.7382 81.964C56.9621 85.1758 58.221 88.2021 59.5482 91.1475C48.4212 90.7974 37.897 82.9954 34.3545 72.4429C30.7971 61.8462 34.5254 49.2128 43.2668 42.2424Z" fill="#2F2E41"/>
<path opacity="0.2" d="M25.7454 145.717L33.0818 185.617L37.4839 186L25.7454 145.717Z" fill="black"/>
<path opacity="0.2" d="M106.558 142.708L99.2217 185.588L94.8197 186L106.558 142.708Z" fill="black"/>
<path d="M49.5241 28.8143C48.1175 29.4015 46.6497 28.758 46.0341 27.2845C45.4091 25.7884 45.9928 24.2697 47.4221 23.6731C48.8514 23.0765 50.2931 23.7216 50.9281 25.2418C51.5537 26.7392 50.9763 28.2082 49.5241 28.8143ZM46.8296 20.7284L45.7111 21.1952C45.4317 21.3104 45.1192 21.3166 44.8354 21.2126C44.5516 21.1086 44.3173 20.9019 44.1787 20.6334L44.1234 20.5252C42.9199 18.3557 42.7821 15.7191 43.716 12.6926C44.5811 9.97763 44.9404 8.06823 44.2178 6.33842C43.3823 4.33843 41.5982 3.71193 39.3231 4.61948C38.4408 4.98778 38.16 4.98191 37.4656 5.67046C37.3145 5.82206 37.1345 5.9417 36.9362 6.02225C36.7379 6.1028 36.5254 6.14261 36.3114 6.1393C36.1045 6.13686 35.9002 6.09281 35.7107 6.00975C35.5212 5.9267 35.3503 5.80635 35.2084 5.65588C34.9349 5.36591 34.7816 4.983 34.7796 4.58448C34.7776 4.18596 34.927 3.80152 35.1975 3.5088C36.3647 2.28753 37.7724 1.32135 39.3319 0.671226C44.2201 -1.36904 46.6809 1.64312 47.8069 4.33872C48.9084 6.97532 48.2888 9.42165 47.2933 12.5899C46.459 15.2225 46.5076 17.1732 47.4553 19.1129C47.5237 19.2595 47.5618 19.4184 47.5672 19.5801C47.5726 19.7419 47.5453 19.903 47.4868 20.0539C47.4284 20.2048 47.3401 20.3423 47.2271 20.4582C47.1142 20.5741 46.9789 20.666 46.8296 20.7283L46.8296 20.7284Z" fill="white"/>
<path d="M170.951 40.9133H147.195C147.119 40.9138 147.044 40.8994 146.974 40.8708C146.904 40.8423 146.841 40.8003 146.787 40.7471C146.734 40.694 146.691 40.6307 146.662 40.5611C146.633 40.4914 146.618 40.4167 146.618 40.3413C146.618 40.2659 146.633 40.1912 146.662 40.1215C146.691 40.0519 146.734 39.9886 146.787 39.9355C146.841 39.8823 146.904 39.8403 146.974 39.8117C147.044 39.7832 147.119 39.7688 147.195 39.7693H170.951C171.102 39.7704 171.247 39.8311 171.353 39.9382C171.46 40.0454 171.519 40.1903 171.519 40.3413C171.519 40.4923 171.46 40.6372 171.353 40.7444C171.247 40.8515 171.102 40.9122 170.951 40.9133Z" fill="#C13CFF"/>
<path d="M201.087 41.1039H177.331C177.256 41.1044 177.181 41.09 177.111 41.0615C177.041 41.033 176.977 40.9909 176.924 40.9377C176.87 40.8846 176.828 40.8213 176.799 40.7517C176.77 40.682 176.755 40.6074 176.755 40.5319C176.755 40.4565 176.77 40.3818 176.799 40.3121C176.828 40.2425 176.87 40.1792 176.924 40.1261C176.977 40.0729 177.041 40.0309 177.111 40.0024C177.181 39.9738 177.256 39.9594 177.331 39.9599H201.087C201.163 39.9594 201.238 39.9738 201.308 40.0024C201.378 40.0309 201.441 40.0729 201.495 40.1261C201.548 40.1792 201.591 40.2425 201.62 40.3121C201.649 40.3818 201.664 40.4565 201.664 40.5319C201.664 40.6074 201.649 40.682 201.62 40.7517C201.591 40.8213 201.548 40.8846 201.495 40.9377C201.441 40.9909 201.378 41.033 201.308 41.0615C201.238 41.09 201.163 41.1044 201.087 41.1039Z" fill="#C13CFF"/>
<path d="M231.224 41.2946H207.467C207.316 41.2935 207.172 41.2328 207.065 41.1257C206.959 41.0185 206.899 40.8736 206.899 40.7226C206.899 40.5716 206.959 40.4267 207.065 40.3195C207.172 40.2124 207.316 40.1516 207.467 40.1506H231.224C231.299 40.1501 231.374 40.1645 231.444 40.193C231.514 40.2215 231.577 40.2636 231.631 40.3168C231.685 40.3699 231.727 40.4331 231.756 40.5028C231.785 40.5724 231.8 40.6471 231.8 40.7226C231.8 40.798 231.785 40.8727 231.756 40.9424C231.727 41.012 231.685 41.0752 231.631 41.1284C231.577 41.1816 231.514 41.2236 231.444 41.2521C231.374 41.2806 231.299 41.2951 231.224 41.2946H231.224Z" fill="#C13CFF"/>
<path d="M261.36 41.4852H237.604C237.453 41.4842 237.308 41.4234 237.202 41.3163C237.095 41.2091 237.036 41.0642 237.036 40.9132C237.036 40.7622 237.095 40.6173 237.202 40.5101C237.308 40.403 237.453 40.3423 237.604 40.3412H261.36C261.511 40.3423 261.656 40.403 261.762 40.5101C261.869 40.6173 261.929 40.7622 261.929 40.9132C261.929 41.0642 261.869 41.2091 261.762 41.3163C261.656 41.4234 261.511 41.4842 261.36 41.4852Z" fill="#C13CFF"/>
<path d="M159.021 35.6494C161.459 35.6494 163.436 33.6734 163.436 31.2359C163.436 28.7985 161.459 26.8225 159.021 26.8225C156.582 26.8225 154.605 28.7985 154.605 31.2359C154.605 33.6734 156.582 35.6494 159.021 35.6494Z" fill="#C13CFF"/>
<path d="M189.339 35.6494C191.777 35.6494 193.754 33.6734 193.754 31.2359C193.754 28.7985 191.777 26.8225 189.339 26.8225C186.9 26.8225 184.924 28.7985 184.924 31.2359C184.924 33.6734 186.9 35.6494 189.339 35.6494Z" fill="#C13CFF"/>
<path d="M219.657 35.6494C222.096 35.6494 224.073 33.6734 224.073 31.2359C224.073 28.7985 222.096 26.8225 219.657 26.8225C217.219 26.8225 215.242 28.7985 215.242 31.2359C215.242 33.6734 217.219 35.6494 219.657 35.6494Z" fill="#C13CFF"/>
<path d="M249.976 35.6494C252.414 35.6494 254.391 33.6734 254.391 31.2359C254.391 28.7985 252.414 26.8225 249.976 26.8225C247.537 26.8225 245.561 28.7985 245.561 31.2359C245.561 33.6734 247.537 35.6494 249.976 35.6494Z" fill="#C13CFF"/>
</g>
<path d="M201.278 74.3821H209.294V96H214.766V74.3821H222.781V69.8182H201.278V74.3821ZM224.181 96H229.627V84.8906C229.627 82.4744 231.391 80.8125 233.795 80.8125C234.549 80.8125 235.585 80.9403 236.096 81.1065V76.2741C235.61 76.1591 234.933 76.0824 234.383 76.0824C232.184 76.0824 230.381 77.3608 229.665 79.7898H229.461V76.3636H224.181V96ZM246.87 96.3835C252.827 96.3835 256.534 92.3054 256.534 86.2585C256.534 80.1733 252.827 76.108 246.87 76.108C240.912 76.108 237.205 80.1733 237.205 86.2585C237.205 92.3054 240.912 96.3835 246.87 96.3835ZM246.895 92.1648C244.147 92.1648 242.74 89.6463 242.74 86.2202C242.74 82.794 244.147 80.2628 246.895 80.2628C249.593 80.2628 250.999 82.794 250.999 86.2202C250.999 89.6463 249.593 92.1648 246.895 92.1648ZM268.948 96.3835C274.176 96.3835 277.462 93.3153 277.718 88.8026H272.578C272.259 90.8991 270.878 92.0753 269.012 92.0753C266.468 92.0753 264.819 89.9403 264.819 86.1818C264.819 82.4744 266.48 80.3523 269.012 80.3523C271.006 80.3523 272.284 81.669 272.578 83.625H277.718C277.488 79.0866 274.049 76.108 268.922 76.108C262.965 76.108 259.283 80.2372 259.283 86.2585C259.283 92.2287 262.901 96.3835 268.948 96.3835ZM286.804 96.3707C289.706 96.3707 291.585 95.1051 292.544 93.277H292.697V96H297.862V82.7557C297.862 78.0767 293.899 76.108 289.527 76.108C284.822 76.108 281.729 78.358 280.974 81.9375L286.011 82.3466C286.382 81.0426 287.545 80.0838 289.501 80.0838C291.355 80.0838 292.416 81.017 292.416 82.6278V82.7045C292.416 83.9702 291.074 84.1364 287.661 84.4688C283.774 84.8267 280.284 86.1307 280.284 90.5156C280.284 94.402 283.058 96.3707 286.804 96.3707ZM288.364 92.6122C286.689 92.6122 285.487 91.8324 285.487 90.3366C285.487 88.8026 286.753 88.0483 288.67 87.7798C289.859 87.6136 291.803 87.3324 292.455 86.8977V88.9815C292.455 91.0398 290.754 92.6122 288.364 92.6122ZM209.409 140.32C212.58 140.32 214.229 138.491 214.983 136.855H215.213V140H220.582V113.818H215.149V123.662H214.983C214.254 122.064 212.682 120.108 209.396 120.108C205.088 120.108 201.445 123.457 201.445 130.207C201.445 136.778 204.935 140.32 209.409 140.32ZM211.135 135.986C208.463 135.986 207.006 133.608 207.006 130.182C207.006 126.781 208.438 124.442 211.135 124.442C213.781 124.442 215.264 126.679 215.264 130.182C215.264 133.685 213.756 135.986 211.135 135.986ZM234.009 140.384C238.867 140.384 242.14 138.018 242.907 134.375L237.87 134.043C237.32 135.538 235.914 136.318 234.098 136.318C231.375 136.318 229.65 134.516 229.65 131.588V131.575H243.022V130.08C243.022 123.406 238.982 120.108 233.792 120.108C228.013 120.108 224.267 124.212 224.267 130.271C224.267 136.497 227.962 140.384 234.009 140.384ZM229.65 128.2C229.765 125.963 231.465 124.173 233.881 124.173C236.246 124.173 237.882 125.861 237.895 128.2H229.65ZM216.479 165.348H221.784C221.707 160.682 217.872 157.46 212.043 157.46C206.303 157.46 202.097 160.631 202.122 165.386C202.109 169.247 204.832 171.459 209.256 172.52L212.107 173.236C214.957 173.926 216.543 174.744 216.555 176.509C216.543 178.426 214.727 179.73 211.915 179.73C209.038 179.73 206.967 178.401 206.788 175.78H201.432C201.572 181.443 205.625 184.371 211.979 184.371C218.371 184.371 222.129 181.315 222.142 176.521C222.129 172.162 218.844 169.848 214.293 168.825L211.94 168.263C209.665 167.739 207.76 166.895 207.798 165.016C207.798 163.328 209.294 162.088 212.004 162.088C214.651 162.088 216.274 163.29 216.479 165.348ZM234.712 184.384C239.57 184.384 242.843 182.018 243.61 178.375L238.573 178.043C238.023 179.538 236.617 180.318 234.801 180.318C232.078 180.318 230.353 178.516 230.353 175.588V175.575H243.725V174.08C243.725 167.406 239.685 164.108 234.495 164.108C228.716 164.108 224.971 168.212 224.971 174.271C224.971 180.497 228.665 184.384 234.712 184.384ZM230.353 172.2C230.468 169.963 232.168 168.173 234.584 168.173C236.949 168.173 238.586 169.861 238.598 172.2H230.353ZM252.725 172.648C252.738 170.116 254.246 168.634 256.445 168.634C258.631 168.634 259.948 170.065 259.935 172.469V184H265.381V171.497C265.381 166.92 262.696 164.108 258.605 164.108C255.691 164.108 253.581 165.54 252.699 167.828H252.469V164.364H247.279V184H252.725V172.648ZM275.119 172.648C275.132 170.116 276.679 168.634 278.903 168.634C281.115 168.634 282.419 170.053 282.406 172.469V184H287.852V171.497C287.865 166.895 285.155 164.108 281.064 164.108C278.085 164.108 276.091 165.514 275.196 167.828H274.966V157.818H269.673V184H275.119V172.648ZM297.738 184.371C300.64 184.371 302.519 183.105 303.478 181.277H303.631V184H308.796V170.756C308.796 166.077 304.833 164.108 300.461 164.108C295.756 164.108 292.662 166.358 291.908 169.938L296.945 170.347C297.316 169.043 298.479 168.084 300.435 168.084C302.289 168.084 303.35 169.017 303.35 170.628V170.705C303.35 171.97 302.007 172.136 298.594 172.469C294.708 172.827 291.218 174.131 291.218 178.516C291.218 182.402 293.992 184.371 297.738 184.371ZM299.297 180.612C297.623 180.612 296.421 179.832 296.421 178.337C296.421 176.803 297.686 176.048 299.604 175.78C300.793 175.614 302.736 175.332 303.388 174.898V176.982C303.388 179.04 301.688 180.612 299.297 180.612Z" fill="white"/>
<defs>
<clipPath id="clip0_227_73">
<rect width="280" height="186" fill="white"/>
</clipPath>
</defs>
</svg>
