<svg width="128" height="128" viewBox="0 0 128 128" fill="none" xmlns="http://www.w3.org/2000/svg">
<path d="M46.8717 66.6318C46.8717 65.7731 47.5678 65.0769 48.4265 65.0769C49.2852 65.0769 49.9814 65.7731 49.9814 66.6318V72.2469L52.6952 69.8346C53.3324 69.2681 54.3149 69.3195 54.8895 69.9495C55.464 70.5795 55.4132 71.5495 54.7759 72.116L49.9814 76.3779V83.3408L56.4147 79.6739L57.6685 73.8506C57.8472 73.0208 58.6729 72.491 59.5128 72.6672C60.3528 72.8435 60.8889 73.6591 60.7102 74.4888L60.0386 77.6084L64.5897 75.0143C65.3286 74.5931 66.2757 74.8469 66.705 75.5811C67.1344 76.3152 66.8835 77.2518 66.1446 77.673L61.224 80.4776L64.6427 81.5742C65.4599 81.8363 65.9073 82.7025 65.6419 83.5087C65.3766 84.315 64.499 84.7561 63.6817 84.4939L57.6001 82.5431L51.6523 85.9332L58.0694 89.5908L63.7531 87.7677C64.5703 87.5055 65.4479 87.9466 65.7133 88.7529C65.9787 89.5591 65.5313 90.4252 64.714 90.6874L61.6932 91.6564L66.213 94.2325C66.9519 94.6537 67.2029 95.5903 66.7735 96.3245C66.3442 97.0586 65.3971 97.3124 64.6582 96.8912L59.7065 94.0688L60.465 97.592C60.6437 98.4218 60.1076 99.2374 59.2677 99.4136C58.4277 99.5899 57.602 99.0601 57.4233 98.2303L56.0826 92.0033L49.9814 88.5257V95.9842L54.4649 99.9697C55.1022 100.536 55.1531 101.506 54.5785 102.136C54.0039 102.766 53.0215 102.818 52.3842 102.251L49.9814 100.115V105.274C49.9814 106.132 49.2852 106.828 48.4265 106.828C47.5678 106.828 46.8717 106.132 46.8717 105.274V99.6943L44.1981 102.071C43.5608 102.637 42.5783 102.586 42.0038 101.956C41.4292 101.326 41.48 100.356 42.1173 99.7894L46.8717 95.5632V88.6581L40.3383 92.382L39.0959 98.1527C38.9172 98.9825 38.0915 99.5122 37.2515 99.336C36.4116 99.1597 35.8755 98.3442 36.0541 97.5144L36.7145 94.4475L32.1949 97.0236C31.456 97.4447 30.5089 97.191 30.0795 96.4568C29.6502 95.7226 29.9011 94.786 30.64 94.3649L35.5919 91.5424L32.1217 90.4293C31.3045 90.1671 30.8571 89.301 31.1224 88.4948C31.3878 87.6885 32.2654 87.2474 33.0826 87.5096L39.2158 89.4769L45.433 85.9332L38.8833 82.2001L33.1484 84.0397C32.3311 84.3019 31.4535 83.8608 31.1882 83.0545C30.9228 82.2483 31.3702 81.3822 32.1874 81.12L35.2595 80.1346L30.7085 77.5406C29.9696 77.1195 29.7187 76.1829 30.148 75.4487C30.5774 74.7145 31.5244 74.4608 32.2633 74.882L37.1838 77.6865L36.4364 74.2154C36.2578 73.3856 36.7939 72.5701 37.6338 72.3938C38.4737 72.2176 39.2995 72.7474 39.4781 73.5771L40.8076 79.752L46.8717 83.2084V75.8853L42.4283 71.9355C41.791 71.369 41.7402 70.3991 42.3148 69.7691C42.8893 69.1391 43.8718 69.0876 44.5091 69.6541L46.8717 71.7543V66.6318Z" fill="#64D2FF"/>
<path d="M69.2986 92.4112C69.1288 92.2531 68.9456 92.1059 68.7496 91.9716C69.5344 90.8113 69.8036 89.3114 69.3219 87.8533C69.0975 87.1741 68.7355 86.5822 68.278 86.0962C68.7006 85.6259 69.0358 85.0616 69.2479 84.4195C69.7649 82.8549 69.4173 81.2428 68.4959 80.0531C70.6635 78.7087 71.3774 75.8761 70.0744 73.6566C68.8098 71.5025 66.1005 70.7048 63.8843 71.7828C63.2655 70.4771 62.0573 69.4757 60.5531 69.1612C59.8556 69.0154 59.156 69.0304 58.4974 69.1828C58.3012 68.5085 57.9507 67.8673 57.4439 67.3138C56.3251 66.0918 54.7103 65.5857 53.1834 65.823C53.0778 63.2869 50.9884 61.2633 48.4264 61.2633C45.9414 61.2633 43.9011 63.167 43.6842 65.5956C42.2643 65.4804 40.8065 65.9982 39.7725 67.1276C39.2848 67.6603 38.9418 68.2742 38.7418 68.9207C38.0593 68.7499 37.3305 68.7273 36.6039 68.8792C35.0066 69.2131 33.7429 70.3217 33.1643 71.7472C30.9144 70.5221 28.0805 71.302 26.7784 73.5201C25.5123 75.6768 26.1504 78.4123 28.1764 79.799C27.3738 80.9638 27.0946 82.4787 27.581 83.951C27.8095 84.6424 28.1805 85.2434 28.6496 85.7341C28.1484 86.2372 27.7524 86.8624 27.513 87.587C27.0015 89.1351 27.3364 90.7295 28.2359 91.9154C16.9746 89.6244 8.5 79.6653 8.5 67.7278C8.5 54.0955 19.5511 43.0444 33.1834 43.0444C36.1402 43.0444 38.9745 43.5641 41.6007 44.5166L42.0523 44.6804L42.234 44.2358C47.4476 31.4835 59.9771 22.5 74.6035 22.5C93.909 22.5 109.559 38.1502 109.559 57.4556C109.559 58.3063 109.529 59.1499 109.469 59.9852L109.444 60.3303L109.759 60.475C115.509 63.123 119.5 68.9362 119.5 75.6805C119.5 84.9206 112.009 92.4112 102.769 92.4112H69.2986Z" fill="white" stroke="black"/>
</svg>
